<svg xmlns="http://www.w3.org/2000/svg" width="52.199" height="54.119" viewBox="0 0 52.199 54.119">
  <g id="그룹_151" data-name="그룹 151" transform="translate(0 0)">
    <g id="그룹_110" data-name="그룹 110">
      <g id="그룹_108" data-name="그룹 108" transform="translate(0 34.277)">
        <path id="패스_80" data-name="패스 80" d="M722.426,696.553,716.96,679.09H678.04l-5.466,17.463Z" transform="translate(-671.401 -677.917)" fill="#fff"/>
        <path id="패스_81" data-name="패스 81" d="M721.349,696.65H671.5a1.173,1.173,0,0,1-1.12-1.524l5.466-17.463a1.173,1.173,0,0,1,1.12-.823h38.92a1.173,1.173,0,0,1,1.12.823l5.466,17.463a1.173,1.173,0,0,1-1.12,1.524ZM673.094,694.3h46.658l-4.732-15.116H677.826Z" transform="translate(-670.324 -676.84)" fill="#595757"/>
      </g>
      <g id="그룹_109" data-name="그룹 109" transform="translate(8.463)">
        <path id="패스_82" data-name="패스 82" d="M705.265,613.363a16.462,16.462,0,0,0-4.538,32.287l4.538,9.192,4.538-9.192a16.462,16.462,0,0,0-4.538-32.287Zm0,25.086a8.623,8.623,0,1,1,8.623-8.623A8.623,8.623,0,0,1,705.265,638.449Z" transform="translate(-687.63 -612.19)" fill="#2583c8"/>
        <path id="패스_83" data-name="패스 83" d="M704.189,654.938a1.174,1.174,0,0,1-1.052-.653l-4.313-8.736a17.636,17.636,0,1,1,10.731,0l-4.313,8.736A1.174,1.174,0,0,1,704.189,654.938Zm0-41.478a15.289,15.289,0,0,0-4.215,29.985,1.176,1.176,0,0,1,.729.609l3.486,7.061,3.486-7.061a1.177,1.177,0,0,1,.729-.609,15.289,15.289,0,0,0-4.215-29.985Zm0,25.086a9.8,9.8,0,1,1,9.8-9.8A9.808,9.808,0,0,1,704.189,638.545Zm0-17.246a7.45,7.45,0,1,0,7.45,7.45A7.458,7.458,0,0,0,704.189,621.3Z" transform="translate(-686.553 -611.113)" fill="#595757"/>
      </g>
      <path id="패스_84" data-name="패스 84" d="M713.947,696.784a1.174,1.174,0,0,1-.838-2l17.036-17.383a1.174,1.174,0,0,1,1.677,1.643l-17.036,17.383A1.174,1.174,0,0,1,713.947,696.784Z" transform="translate(-690.636 -642.665)" fill="#595757"/>
      <path id="패스_85" data-name="패스 85" d="M723.542,699.742a1.109,1.109,0,0,1-.142-.009l-44.766-5.425a1.173,1.173,0,0,1,.282-2.33l44.766,5.425a1.173,1.173,0,0,1-.14,2.338Z" transform="translate(-673.806 -649.802)" fill="#595757"/>
    </g>
  </g>
</svg>
