<svg id="그룹_154" data-name="그룹 154" xmlns="http://www.w3.org/2000/svg" width="54.087" height="53.153" viewBox="0 0 54.087 53.153">
  <g id="그룹_149" data-name="그룹 149" transform="translate(0 0)">
    <g id="그룹_143" data-name="그룹 143">
      <g id="그룹_140" data-name="그룹 140">
        <rect id="사각형_126" data-name="사각형 126" width="43.329" height="37.964" transform="translate(1.173 1.173)" fill="#fff"/>
        <path id="패스_116" data-name="패스 116" d="M151.016,1004.35H107.687a1.174,1.174,0,0,1-1.173-1.173V965.212a1.173,1.173,0,0,1,1.173-1.173h43.329a1.174,1.174,0,0,1,1.173,1.173v37.964A1.174,1.174,0,0,1,151.016,1004.35ZM108.861,1002h40.982V966.386H108.861Z" transform="translate(-106.514 -964.039)" fill="#595757"/>
      </g>
      <g id="그룹_141" data-name="그룹 141">
        <path id="패스_117" data-name="패스 117" d="M108.764,972.891v-6.6h43.329v6.6" transform="translate(-107.59 -965.116)" fill="#2583c8"/>
        <path id="패스_118" data-name="패스 118" d="M151.016,972.988a1.173,1.173,0,0,1-1.173-1.173v-5.429H108.861v5.429a1.173,1.173,0,0,1-2.347,0v-6.6a1.173,1.173,0,0,1,1.173-1.173h43.329a1.174,1.174,0,0,1,1.173,1.173v6.6A1.174,1.174,0,0,1,151.016,972.988Z" transform="translate(-106.514 -964.039)" fill="#595757"/>
      </g>
      <g id="그룹_142" data-name="그룹 142" transform="translate(4.337 3.787)">
        <path id="패스_119" data-name="패스 119" d="M117.031,972.4a1.1,1.1,0,1,0-1.1,1.1A1.1,1.1,0,0,0,117.031,972.4Z" transform="translate(-114.83 -971.301)" fill="#595757"/>
        <path id="패스_120" data-name="패스 120" d="M124.68,972.4a1.1,1.1,0,1,0-1.1,1.1A1.1,1.1,0,0,0,124.68,972.4Z" transform="translate(-118.49 -971.301)" fill="#595757"/>
        <path id="패스_121" data-name="패스 121" d="M132.328,972.4a1.1,1.1,0,1,0-1.1,1.1A1.1,1.1,0,0,0,132.328,972.4Z" transform="translate(-122.149 -971.301)" fill="#595757"/>
      </g>
    </g>
    <g id="그룹_148" data-name="그룹 148" transform="translate(8.185 14.219)">
      <g id="그룹_144" data-name="그룹 144" transform="translate(13.493 13.48)">
        <path id="패스_122" data-name="패스 122" d="M150.306,1019.4Z" transform="translate(-149.145 -1018.23)" fill="#fff"/>
        <path id="패스_123" data-name="패스 123" d="M149.256,1019.5a1.173,1.173,0,0,1,0-2.347h0a1.173,1.173,0,1,1,0,2.347Z" transform="translate(-148.081 -1017.153)" fill="#595757"/>
      </g>
      <g id="그룹_145" data-name="그룹 145">
        <path id="패스_124" data-name="패스 124" d="M137.938,993.555a13.48,13.48,0,1,0,0,26.96v-13.48h0Z" transform="translate(-123.285 -992.382)" fill="#fff"/>
        <path id="패스_125" data-name="패스 125" d="M136.861,1020.612a14.653,14.653,0,1,1,0-29.307,1.174,1.174,0,0,1,1.173,1.173v26.96A1.174,1.174,0,0,1,136.861,1020.612Zm-1.173-26.905a12.308,12.308,0,0,0,0,24.5Z" transform="translate(-122.208 -991.305)" fill="#595757"/>
      </g>
      <g id="그룹_146" data-name="그룹 146" transform="translate(13.48)">
        <path id="패스_126" data-name="패스 126" d="M150.306,993.555v13.48h0l9.531,9.532a13.48,13.48,0,0,0-9.531-23.012Z" transform="translate(-149.133 -992.382)" fill="#2583c8"/>
        <path id="패스_127" data-name="패스 127" d="M158.76,1016.664a1.169,1.169,0,0,1-.829-.344l-9.532-9.532a1.171,1.171,0,0,1-.344-.83v-13.48a1.173,1.173,0,0,1,1.173-1.173,14.653,14.653,0,0,1,10.361,25.015A1.17,1.17,0,0,1,158.76,1016.664Zm-8.358-11.191,8.319,8.32a12.309,12.309,0,0,0-8.319-20.085Z" transform="translate(-148.056 -991.305)" fill="#595757"/>
      </g>
      <g id="그룹_147" data-name="그룹 147" transform="translate(13.48 13.48)">
        <path id="패스_128" data-name="패스 128" d="M150.306,1032.883a13.436,13.436,0,0,0,9.531-3.948l-9.531-9.532Z" transform="translate(-149.133 -1018.23)" fill="#fff"/>
        <path id="패스_129" data-name="패스 129" d="M149.229,1032.98a1.173,1.173,0,0,1-1.173-1.173v-13.48a1.173,1.173,0,0,1,2-.829l9.532,9.532a1.174,1.174,0,0,1,0,1.659A14.557,14.557,0,0,1,149.229,1032.98Zm1.173-11.82v9.419a12.187,12.187,0,0,0,6.66-2.759Z" transform="translate(-148.056 -1017.153)" fill="#595757"/>
      </g>
    </g>
    <path id="패스_130" data-name="패스 130" d="M188.041,1025.185H171.967a1.174,1.174,0,0,1-.83-.344l-4.479-4.48a1.173,1.173,0,1,1,1.659-1.659l4.136,4.136h15.589a1.173,1.173,0,0,1,0,2.347Z" transform="translate(-135.128 -990.031)" fill="#595757"/>
    <path id="패스_131" data-name="패스 131" d="M203.312,1040.8H199.4a1.173,1.173,0,1,1,0-2.347h3.911a1.173,1.173,0,1,1,0,2.347Z" transform="translate(-150.398 -999.645)" fill="#595757"/>
    <path id="패스_132" data-name="패스 132" d="M188.5,1052.3H168.933a1.173,1.173,0,1,1,0-2.347H188.5a1.173,1.173,0,1,1,0,2.347Z" transform="translate(-135.82 -1005.15)" fill="#595757"/>
    <path id="패스_133" data-name="패스 133" d="M181.08,1063.808H153.433a1.173,1.173,0,1,1,0-2.347H181.08a1.173,1.173,0,1,1,0,2.347Z" transform="translate(-128.403 -1010.655)" fill="#595757"/>
  </g>
</svg>
