<svg id="그룹_152" data-name="그룹 152" xmlns="http://www.w3.org/2000/svg" width="54.592" height="61.479" viewBox="0 0 54.592 61.479">
  <g id="그룹_129" data-name="그룹 129" transform="translate(0 0)">
    <path id="패스_86" data-name="패스 86" d="M324.034,665.233a1.172,1.172,0,0,1-.587-.157L301,652.118a1.173,1.173,0,0,1-.587-1.016V625.185a1.173,1.173,0,0,1,.587-1.016l22.445-12.959a1.173,1.173,0,0,1,1.173,0l22.445,12.959a1.173,1.173,0,0,1,.587,1.016V651.1a1.173,1.173,0,0,1-.587,1.016l-22.445,12.958A1.172,1.172,0,0,1,324.034,665.233Zm-21.271-14.809,21.271,12.281,21.272-12.281V625.863l-21.272-12.282-21.271,12.282Z" transform="translate(-296.738 -607.404)" fill="#595757"/>
    <g id="그룹_128" data-name="그룹 128">
      <g id="그룹_115" data-name="그룹 115" transform="translate(0 12.857)">
        <path id="패스_87" data-name="패스 87" d="M346.293,664.059a1.165,1.165,0,0,1-.586-.158l-40.418-23.335a1.173,1.173,0,1,1,1.173-2.032l40.418,23.335a1.173,1.173,0,0,1-.588,2.189Z" transform="translate(-298.789 -633.335)" fill="#595757"/>
        <g id="그룹_114" data-name="그룹 114">
          <g id="그룹_112" data-name="그룹 112">
            <path id="패스_88" data-name="패스 88" d="M301.394,631.477a3.851,3.851,0,1,0,1.41,5.261A3.851,3.851,0,0,0,301.394,631.477Z" transform="translate(-294.441 -629.786)" fill="#2583c8"/>
            <path id="패스_89" data-name="패스 89" d="M298.386,638.76h0a5.025,5.025,0,1,1,4.356-2.513A5.021,5.021,0,0,1,298.386,638.76Zm.007-7.7a2.688,2.688,0,0,0-2.322,1.34,2.678,2.678,0,0,0,2.315,4.017,2.678,2.678,0,0,0,.007-5.357Z" transform="translate(-293.363 -628.71)" fill="#595757"/>
          </g>
          <g id="그룹_113" data-name="그룹 113" transform="translate(44.538 25.715)">
            <path id="패스_90" data-name="패스 90" d="M386.8,680.784a3.851,3.851,0,1,0,1.41,5.261A3.852,3.852,0,0,0,386.8,680.784Z" transform="translate(-379.844 -679.094)" fill="#2583c8"/>
            <path id="패스_91" data-name="패스 91" d="M383.79,688.068h0a5.026,5.026,0,1,1,4.355-2.513A5.029,5.029,0,0,1,383.79,688.068Zm.007-7.7a2.691,2.691,0,0,0-2.324,1.339,2.679,2.679,0,1,0,2.324-1.339Z" transform="translate(-378.766 -678.018)" fill="#595757"/>
          </g>
        </g>
      </g>
      <g id="그룹_119" data-name="그룹 119" transform="translate(0 12.857)">
        <path id="패스_92" data-name="패스 92" d="M305.877,664.059a1.173,1.173,0,0,1-.588-2.189l40.418-23.335a1.173,1.173,0,0,1,1.173,2.032L306.463,663.9A1.168,1.168,0,0,1,305.877,664.059Z" transform="translate(-298.789 -633.335)" fill="#595757"/>
        <g id="그룹_118" data-name="그룹 118">
          <g id="그룹_116" data-name="그룹 116" transform="translate(44.541)">
            <path id="패스_93" data-name="패스 93" d="M382.945,631.477a3.851,3.851,0,1,1-1.41,5.261A3.851,3.851,0,0,1,382.945,631.477Z" transform="translate(-379.847 -629.786)" fill="#2583c8"/>
            <path id="패스_94" data-name="패스 94" d="M383.8,638.76a5.025,5.025,0,1,1,4.348-7.537,5.026,5.026,0,0,1-4.348,7.537Zm-.007-7.7a2.679,2.679,0,1,0,2.323,1.34A2.674,2.674,0,0,0,383.792,631.057Z" transform="translate(-378.772 -628.71)" fill="#595757"/>
          </g>
          <g id="그룹_117" data-name="그룹 117" transform="translate(0 25.715)">
            <path id="패스_95" data-name="패스 95" d="M297.542,680.784a3.851,3.851,0,1,1-1.41,5.261A3.852,3.852,0,0,1,297.542,680.784Z" transform="translate(-294.441 -679.094)" fill="#2583c8"/>
            <path id="패스_96" data-name="패스 96" d="M298.393,688.068a5.025,5.025,0,0,1-4.857-6.326,5.026,5.026,0,0,1,4.85-3.725,5.043,5.043,0,0,1,4.356,2.513,5.026,5.026,0,0,1-4.349,7.538Zm-.007-7.7a2.677,2.677,0,1,0,2.323,1.339A2.679,2.679,0,0,0,298.386,680.365Z" transform="translate(-293.363 -678.018)" fill="#595757"/>
          </g>
        </g>
      </g>
      <g id="그룹_123" data-name="그룹 123" transform="translate(22.272)">
        <path id="패스_97" data-name="패스 97" d="M344.628,665.022a1.174,1.174,0,0,1-1.173-1.173V617.177a1.173,1.173,0,0,1,2.347,0v46.671A1.174,1.174,0,0,1,344.628,665.022Z" transform="translate(-339.603 -609.774)" fill="#595757"/>
        <g id="그룹_122" data-name="그룹 122">
          <g id="그룹_120" data-name="그룹 120">
            <path id="패스_98" data-name="패스 98" d="M346.022,610.159a3.852,3.852,0,1,0-3.851,3.851A3.852,3.852,0,0,0,346.022,610.159Z" transform="translate(-337.146 -605.134)" fill="#2583c8"/>
            <path id="패스_99" data-name="패스 99" d="M341.094,614.107a5.025,5.025,0,1,1,5.025-5.025A5.031,5.031,0,0,1,341.094,614.107Zm0-7.7a2.678,2.678,0,1,0,2.678,2.678A2.682,2.682,0,0,0,341.094,606.4Z" transform="translate(-336.069 -604.057)" fill="#595757"/>
          </g>
          <g id="그룹_121" data-name="그룹 121" transform="translate(0 51.429)">
            <path id="패스_100" data-name="패스 100" d="M346.022,708.773a3.852,3.852,0,1,0-3.851,3.852A3.851,3.851,0,0,0,346.022,708.773Z" transform="translate(-337.146 -703.749)" fill="#2583c8"/>
            <path id="패스_101" data-name="패스 101" d="M341.094,712.722a5.025,5.025,0,1,1,5.025-5.025A5.031,5.031,0,0,1,341.094,712.722Zm0-7.7a2.678,2.678,0,1,0,2.678,2.678A2.681,2.681,0,0,0,341.094,705.019Z" transform="translate(-336.069 -702.672)" fill="#595757"/>
          </g>
        </g>
      </g>
      <g id="그룹_127" data-name="그룹 127" transform="translate(12.893 16.337)">
        <g id="그룹_125" data-name="그룹 125">
          <g id="그룹_124" data-name="그룹 124">
            <path id="패스_102" data-name="패스 102" d="M346.8,650.862a13.23,13.23,0,1,0-13.229,13.23A13.229,13.229,0,0,0,346.8,650.862Z" transform="translate(-319.163 -636.46)" fill="#fff"/>
            <path id="패스_103" data-name="패스 103" d="M332.49,664.189a14.4,14.4,0,1,1,14.4-14.4A14.42,14.42,0,0,1,332.49,664.189Zm0-26.459a12.056,12.056,0,1,0,12.056,12.056A12.07,12.07,0,0,0,332.49,637.73Z" transform="translate(-318.086 -635.383)" fill="#595757"/>
          </g>
          <path id="패스_104" data-name="패스 104" d="M338.993,664.171a1.168,1.168,0,0,1-.648-.2c-4.113-2.721-6.668-8.085-6.668-14s2.555-11.277,6.668-14a1.173,1.173,0,0,1,1.295,0c4.113,2.722,6.668,8.085,6.668,14s-2.555,11.277-6.668,14A1.175,1.175,0,0,1,338.993,664.171Zm0-25.766c-3.083,2.416-4.969,6.766-4.969,11.573s1.886,9.157,4.969,11.573c3.083-2.416,4.968-6.766,4.968-11.573S342.075,640.82,338.993,638.4Z" transform="translate(-324.589 -635.575)" fill="#595757"/>
        </g>
        <path id="패스_105" data-name="패스 105" d="M345.719,663.1H319.259a1.173,1.173,0,1,1,0-2.347h26.459a1.173,1.173,0,0,1,0,2.347Z" transform="translate(-318.086 -647.521)" fill="#595757"/>
        <g id="그룹_126" data-name="그룹 126" transform="translate(2.599 6.194)">
          <path id="패스_106" data-name="패스 106" d="M345.5,649.607H324.242a1.173,1.173,0,1,1,0-2.347H345.5a1.173,1.173,0,1,1,0,2.347Z" transform="translate(-323.069 -647.26)" fill="#595757"/>
          <path id="패스_107" data-name="패스 107" d="M345.5,676.587H324.242a1.173,1.173,0,0,1,0-2.347H345.5a1.173,1.173,0,0,1,0,2.347Z" transform="translate(-323.069 -660.17)" fill="#595757"/>
        </g>
      </g>
    </g>
  </g>
</svg>
