<svg id="그룹_153" data-name="그룹 153" xmlns="http://www.w3.org/2000/svg" width="54.087" height="53.778" viewBox="0 0 54.087 53.778">
  <g id="그룹_138" data-name="그룹 138" transform="translate(0)">
    <g id="그룹_136" data-name="그룹 136" transform="translate(0 9.664)">
      <g id="그룹_135" data-name="그룹 135" transform="translate(5.143)">
        <g id="그룹_131" data-name="그룹 131" transform="translate(0 36.156)">
          <rect id="사각형_122" data-name="사각형 122" width="5.922" height="5.611" transform="translate(1.173 1.173)" fill="#fff"/>
          <path id="패스_109" data-name="패스 109" d="M123.471,883.258h-5.922a1.173,1.173,0,0,1-1.173-1.173v-5.611a1.173,1.173,0,0,1,1.173-1.173h5.922a1.173,1.173,0,0,1,1.173,1.173v5.611A1.173,1.173,0,0,1,123.471,883.258Zm-4.748-2.347H122.3v-3.265h-3.575Z" transform="translate(-116.376 -875.3)" fill="#595757"/>
        </g>
        <g id="그룹_132" data-name="그룹 132" transform="translate(11.844 29.923)">
          <rect id="사각형_123" data-name="사각형 123" width="5.922" height="11.844" transform="translate(1.173 1.173)" fill="#fff"/>
          <path id="패스_110" data-name="패스 110" d="M146.182,877.54H140.26a1.174,1.174,0,0,1-1.173-1.173V864.522a1.173,1.173,0,0,1,1.173-1.173h5.922a1.173,1.173,0,0,1,1.173,1.173v11.844A1.174,1.174,0,0,1,146.182,877.54Zm-4.748-2.347h3.575v-9.5h-3.575Z" transform="translate(-139.087 -863.349)" fill="#595757"/>
        </g>
        <g id="그룹_133" data-name="그룹 133" transform="translate(23.688 16.01)">
          <rect id="사각형_124" data-name="사각형 124" width="5.922" height="25.757" transform="translate(1.173 1.173)" fill="#fff"/>
          <path id="패스_111" data-name="패스 111" d="M168.894,864.774h-5.922A1.173,1.173,0,0,1,161.8,863.6V837.843a1.173,1.173,0,0,1,1.173-1.173h5.922a1.173,1.173,0,0,1,1.173,1.173V863.6A1.173,1.173,0,0,1,168.894,864.774Zm-4.749-2.347h3.575V839.017h-3.575Z" transform="translate(-161.798 -836.67)" fill="#595757"/>
        </g>
        <g id="그룹_134" data-name="그룹 134" transform="translate(35.532)">
          <rect id="사각형_125" data-name="사각형 125" width="5.922" height="41.767" transform="translate(1.173 1.173)" fill="#2583c8"/>
          <path id="패스_112" data-name="패스 112" d="M191.605,850.085h-5.922a1.173,1.173,0,0,1-1.173-1.173V807.144a1.173,1.173,0,0,1,1.173-1.173h5.922a1.173,1.173,0,0,1,1.173,1.173v41.767A1.173,1.173,0,0,1,191.605,850.085Zm-4.748-2.347h3.575v-39.42h-3.575Z" transform="translate(-184.51 -805.971)" fill="#2583c8"/>
        </g>
      </g>
      <path id="패스_113" data-name="패스 113" d="M159.428,888.407h-51.74a1.173,1.173,0,1,1,0-2.347h51.74a1.173,1.173,0,1,1,0,2.347Z" transform="translate(-106.514 -844.293)" fill="#595757"/>
    </g>
    <g id="그룹_137" data-name="그룹 137" transform="translate(3.585)">
      <path id="패스_114" data-name="패스 114" d="M118.925,829.683h-4.363a1.173,1.173,0,0,1,0-2.347h4.048l11.342-6.566,10.968-15.989a1.19,1.19,0,0,1,.148-.176l17.245-16.831a1.173,1.173,0,1,1,1.639,1.68L142.79,806.2l-11.053,16.112a1.168,1.168,0,0,1-.38.352l-11.844,6.857A1.173,1.173,0,0,1,118.925,829.683Z" transform="translate(-113.388 -787.44)" fill="#595757"/>
      <path id="패스_115" data-name="패스 115" d="M195.451,794.773a1.174,1.174,0,0,1-1.173-1.173v-3.813h-3.813a1.173,1.173,0,0,1,0-2.347h4.987a1.173,1.173,0,0,1,1.173,1.173V793.6A1.173,1.173,0,0,1,195.451,794.773Z" transform="translate(-149.707 -787.44)" fill="#595757"/>
    </g>
  </g>
</svg>
