<svg xmlns="http://www.w3.org/2000/svg" xmlns:xlink="http://www.w3.org/1999/xlink" width="45" height="41.266" viewBox="0 0 45 41.266">
  <defs>
    <clipPath id="clip-path">
      <rect id="사각형_370" data-name="사각형 370" width="36.973" height="36.975" fill="none"/>
    </clipPath>
  </defs>
  <g id="그룹_354" data-name="그룹 354" transform="translate(-200 -1134.734)">
    <circle id="타원_14" data-name="타원 14" cx="17" cy="17" r="17" transform="translate(211 1142)" fill="#2583c8" opacity="0.25"/>
    <g id="그룹_353" data-name="그룹 353" transform="translate(200 1134.734)">
      <g id="그룹_352" data-name="그룹 352" clip-path="url(#clip-path)">
        <path id="패스_222" data-name="패스 222" d="M38.513,22.781A15.738,15.738,0,1,0,22.775,38.519,15.738,15.738,0,0,0,38.513,22.781" transform="translate(-4.29 -4.293)" fill="none"/>
        <path id="패스_223" data-name="패스 223" d="M46.13,36.975a.781.781,0,0,1,0-1.562,16.926,16.926,0,0,0,0-33.852A.781.781,0,0,1,46.13,0a18.487,18.487,0,0,1,0,36.975" transform="translate(-27.644)" fill="#333"/>
        <path id="패스_224" data-name="패스 224" d="M16.33,36.845a.791.791,0,0,1-.1-.006q-.406-.05-.807-.116a.781.781,0,0,1,.257-1.541q.367.061.739.107a.781.781,0,0,1-.094,1.556m-3.423-.766a.787.787,0,0,1-.246-.04q-.388-.129-.768-.274a.781.781,0,0,1,.557-1.459q.348.133.7.251a.781.781,0,0,1-.246,1.522m-3.2-1.43a.777.777,0,0,1-.387-.1q-.354-.2-.7-.42a.781.781,0,1,1,.834-1.32q.315.2.639.384a.781.781,0,0,1-.388,1.459M6.85,32.617a.778.778,0,0,1-.513-.192q-.308-.268-.6-.55a.781.781,0,1,1,1.078-1.13q.269.257.551.5a.781.781,0,0,1-.514,1.37m-2.4-2.554a.782.782,0,0,1-.62-.305q-.248-.323-.482-.656a.781.781,0,1,1,1.277-.9q.216.307.444.6a.781.781,0,0,1-.619,1.256M2.593,27.084a.781.781,0,0,1-.7-.436q-.18-.366-.344-.74a.781.781,0,0,1,1.43-.627q.151.343.315.679a.781.781,0,0,1-.7,1.125M1.363,23.8a.781.781,0,0,1-.755-.581q-.1-.394-.191-.793a.781.781,0,1,1,1.526-.331q.079.365.174.725a.782.782,0,0,1-.755.981M.81,20.334A.781.781,0,0,1,.031,19.6C.015,19.331,0,19.058,0,18.786a.781.781,0,0,1,.768-.793.791.791,0,0,1,.793.768q.006.375.028.745a.781.781,0,0,1-.732.826l-.048,0m.136-3.5a.779.779,0,0,1-.775-.888q.056-.4.129-.8a.781.781,0,1,1,1.536.28q-.067.367-.118.738a.781.781,0,0,1-.773.673m.821-3.409a.769.769,0,0,1-.257-.044.781.781,0,0,1-.48-.994q.135-.387.286-.764a.781.781,0,0,1,1.45.58q-.138.346-.262.7a.78.78,0,0,1-.737.524m1.48-3.178a.781.781,0,0,1-.671-1.179q.208-.351.431-.691a.781.781,0,1,1,1.307.855q-.2.312-.394.632a.78.78,0,0,1-.672.383M5.326,7.42a.781.781,0,0,1-.579-1.3q.272-.3.558-.593a.781.781,0,0,1,1.113,1.1q-.261.266-.512.543a.778.778,0,0,1-.58.258M7.92,5.058a.781.781,0,0,1-.467-1.407q.327-.243.664-.472a.781.781,0,1,1,.877,1.292q-.31.21-.609.433a.779.779,0,0,1-.465.154m3.007-1.806a.781.781,0,0,1-.335-1.486q.369-.175.746-.333a.781.781,0,1,1,.6,1.44q-.346.145-.682.3a.775.775,0,0,1-.333.075m3.306-1.176A.781.781,0,0,1,14.047.537q.395-.1.8-.178a.781.781,0,0,1,.306,1.531q-.367.073-.728.162a.772.772,0,0,1-.188.023m3.471-.5A.781.781,0,0,1,17.67.018Q18.076,0,18.485,0a.781.781,0,1,1,0,1.562q-.375,0-.746.016H17.7" transform="translate(0)" fill="#333"/>
        <path id="패스_225" data-name="패스 225" d="M39.894,26.618A13.28,13.28,0,1,0,26.614,39.9a13.281,13.281,0,0,0,13.28-13.28" transform="translate(-8.128 -8.131)" fill="none"/>
        <path id="패스_226" data-name="패스 226" d="M25.394,39.459A14.061,14.061,0,1,1,39.455,25.4a14.077,14.077,0,0,1-14.061,14.06m0-26.56a12.5,12.5,0,1,0,12.5,12.5,12.513,12.513,0,0,0-12.5-12.5" transform="translate(-6.909 -6.912)" fill="#333"/>
        <path id="패스_227" data-name="패스 227" d="M42.83,26.618c0-7.334-3.6-13.28-8.048-13.28s-8.048,5.946-8.048,13.28,3.6,13.28,8.048,13.28,8.048-5.945,8.048-13.28" transform="translate(-16.297 -8.131)" fill="none"/>
        <path id="패스_228" data-name="패스 228" d="M33.563,39.459c-4.868,0-8.829-6.307-8.829-14.06s3.961-14.061,8.829-14.061,8.829,6.307,8.829,14.061-3.961,14.06-8.829,14.06m0-26.56c-4.008,0-7.267,5.607-7.267,12.5s3.26,12.5,7.267,12.5,7.267-5.607,7.267-12.5-3.26-12.5-7.267-12.5" transform="translate(-15.078 -6.912)" fill="#333"/>
        <path id="패스_229" data-name="패스 229" d="M46.911,35.79v3.1a.781.781,0,0,1-1.562,0V13.086a.781.781,0,1,1,1.562,0v22.7" transform="translate(-27.644 -7.501)" fill="#333"/>
        <path id="패스_230" data-name="패스 230" d="M38.886,46.916H13.081a.781.781,0,1,1,0-1.562H38.886a.781.781,0,0,1,0,1.562" transform="translate(-7.498 -27.648)" fill="#333"/>
      </g>
    </g>
  </g>
</svg>
