<svg xmlns="http://www.w3.org/2000/svg" width="46" height="41.858" viewBox="0 0 46 41.858">
  <g id="그룹_351" data-name="그룹 351" transform="translate(-198 -1124.142)">
    <line id="선_14" data-name="선 14" y2="31.268" transform="translate(223.148 1128.792)" fill="#fff"/>
    <path id="패스_206" data-name="패스 206" d="M57.568,41.836a.857.857,0,0,1-.857-.857V9.712a.857.857,0,1,1,1.713,0V40.979a.857.857,0,0,1-.857.857" transform="translate(165.58 1119.08)" fill="#333"/>
    <line id="선_15" data-name="선 15" y2="38.853" transform="translate(218.284 1124.999)" fill="#fff"/>
    <path id="패스_207" data-name="패스 207" d="M46.212,40.567a.857.857,0,0,1-.857-.857V.857a.857.857,0,0,1,1.713,0V39.71a.857.857,0,0,1-.857.857" transform="translate(172.072 1124.142)" fill="#333"/>
    <line id="선_16" data-name="선 16" y2="31.268" transform="translate(213.42 1128.792)" fill="#fff"/>
    <path id="패스_208" data-name="패스 208" d="M34.857,41.836A.857.857,0,0,1,34,40.979V9.712a.857.857,0,1,1,1.713,0V40.979a.857.857,0,0,1-.857.857" transform="translate(178.563 1119.08)" fill="#333"/>
    <line id="선_17" data-name="선 17" x2="31.268" transform="translate(202.65 1139.562)" fill="#fff"/>
    <path id="패스_209" data-name="패스 209" d="M40.98,35.712H9.712a.857.857,0,1,1,0-1.713H40.98a.857.857,0,1,1,0,1.713" transform="translate(192.938 1104.706)" fill="#333"/>
    <line id="선_18" data-name="선 18" x2="38.853" transform="translate(198.857 1144.426)" fill="#fff"/>
    <path id="패스_210" data-name="패스 210" d="M39.71,47.067H.857a.857.857,0,1,1,0-1.713H39.71a.857.857,0,1,1,0,1.713" transform="translate(198 1098.215)" fill="#333"/>
    <line id="선_19" data-name="선 19" x2="31.268" transform="translate(202.65 1149.29)" fill="#fff"/>
    <path id="패스_211" data-name="패스 211" d="M40.98,58.423H9.712a.857.857,0,0,1,0-1.713H40.98a.857.857,0,1,1,0,1.713" transform="translate(192.938 1091.723)" fill="#333"/>
    <path id="사각형_367" data-name="사각형 367" d="M8.391,0h6.38a8.39,8.39,0,0,1,8.39,8.39v6.379a8.392,8.392,0,0,1-8.392,8.392H8.392A8.392,8.392,0,0,1,0,14.769V8.391A8.391,8.391,0,0,1,8.391,0Z" transform="translate(206.703 1132.845)" fill="#fff"/>
    <path id="패스_212" data-name="패스 212" d="M38.742,43.192H22.769a4.456,4.456,0,0,1-4.451-4.451V22.769a4.456,4.456,0,0,1,4.451-4.451H38.742a4.456,4.456,0,0,1,4.451,4.451V38.741a4.456,4.456,0,0,1-4.451,4.451M22.769,20.031a2.741,2.741,0,0,0-2.737,2.737V38.741a2.741,2.741,0,0,0,2.737,2.737H38.742a2.741,2.741,0,0,0,2.737-2.737V22.769a2.741,2.741,0,0,0-2.737-2.737Z" transform="translate(187.528 1113.67)" fill="#333"/>
    <rect id="사각형_368" data-name="사각형 368" width="12.855" height="12.855" transform="translate(211.856 1137.998)" fill="none"/>
    <path id="패스_214" data-name="패스 214" d="M58.449,6.162a1.389,1.389,0,1,0-1.389,1.39,1.39,1.39,0,0,0,1.389-1.39" transform="translate(166.175 1121.414)" fill="#fff"/>
    <path id="패스_215" data-name="패스 215" d="M55.916,7.264a2.247,2.247,0,1,1,2.246-2.246,2.248,2.248,0,0,1-2.246,2.246m0-2.78a.533.533,0,1,0,.533.534.534.534,0,0,0-.533-.534" transform="translate(167.318 1122.558)" fill="#333"/>
    <path id="패스_216" data-name="패스 216" d="M35.332,84.838a1.389,1.389,0,1,0-1.389,1.39,1.39,1.39,0,0,0,1.389-1.39" transform="translate(179.39 1076.438)" fill="#fff"/>
    <path id="패스_217" data-name="패스 217" d="M32.8,85.941a2.246,2.246,0,1,1,2.246-2.246A2.248,2.248,0,0,1,32.8,85.941m0-2.779a.533.533,0,1,0,.533.533.534.534,0,0,0-.533-.533" transform="translate(180.534 1077.581)" fill="#333"/>
    <path id="패스_218" data-name="패스 218" d="M6.161,32.552a1.39,1.39,0,1,0,1.39,1.39,1.39,1.39,0,0,0-1.39-1.39" transform="translate(195.272 1105.533)" fill="#fff"/>
    <path id="패스_219" data-name="패스 219" d="M5.019,35.045A2.246,2.246,0,1,1,7.265,32.8a2.249,2.249,0,0,1-2.246,2.246m0-2.779a.533.533,0,1,0,.533.533.534.534,0,0,0-.533-.533" transform="translate(196.415 1106.677)" fill="#333"/>
    <path id="패스_220" data-name="패스 220" d="M84.839,55.669a1.39,1.39,0,1,0,1.389,1.389,1.39,1.39,0,0,0-1.389-1.389" transform="translate(150.295 1092.318)" fill="#fff"/>
    <path id="패스_221" data-name="패스 221" d="M83.7,58.161a2.246,2.246,0,1,1,2.246-2.246A2.248,2.248,0,0,1,83.7,58.161m0-2.779a.533.533,0,1,0,.533.533.533.533,0,0,0-.533-.533" transform="translate(151.438 1093.461)" fill="#333"/>
    <rect id="사각형_369" data-name="사각형 369" width="40.567" height="40.567" transform="translate(198 1124.142)" fill="none"/>
    <circle id="타원_13" data-name="타원 13" cx="17" cy="17" r="17" transform="translate(210 1132)" fill="#2583c8" opacity="0.25"/>
    <path id="패스_213" data-name="패스 213" d="M44.061,44.917H31.207a.856.856,0,0,1-.857-.857V31.206a.856.856,0,0,1,.857-.857H44.061a.856.856,0,0,1,.857.857V44.06a.856.856,0,0,1-.857.857m-12-1.713H43.205V32.062H32.063Z" transform="translate(180.65 1106.793)" fill="#333"/>
  </g>
</svg>
