<svg xmlns="http://www.w3.org/2000/svg" width="44.735" height="41" viewBox="0 0 44.735 41">
  <g id="그룹_368" data-name="그룹 368" transform="translate(-200.265 -1246)">
    <circle id="타원_12" data-name="타원 12" cx="17" cy="17" r="17" transform="translate(211 1253)" fill="#2583c8" opacity="0.25"/>
    <g id="그룹_350" data-name="그룹 350" transform="translate(-883 416.846)">
      <g id="그룹_348" data-name="그룹 348" transform="translate(1083.265 829.154)">
        <g id="그룹_349" data-name="그룹 349" transform="translate(0 0)">
          <path id="패스_192" data-name="패스 192" d="M18.532,42.707l-8.265,4.771L2,42.707V33.16l8.266-4.772,8.265,4.772Z" transform="translate(-1.225 -12.824)" fill="none"/>
          <path id="패스_193" data-name="패스 193" d="M9.041,47.028a.773.773,0,0,1-.388-.1L.388,42.153A.776.776,0,0,1,0,41.481V31.935a.775.775,0,0,1,.388-.671l8.266-4.772a.776.776,0,0,1,.775,0l8.265,4.772a.774.774,0,0,1,.388.671v9.546a.775.775,0,0,1-.388.672L9.429,46.924a.772.772,0,0,1-.388.1M1.55,41.034l7.491,4.324,7.49-4.324V32.382l-7.49-4.325L1.55,32.382Z" transform="translate(0 -11.599)" fill="#333"/>
          <path id="패스_194" data-name="패스 194" d="M9.041,45.557a.77.77,0,0,1-.388-.1L.387,40.679a.775.775,0,1,1,.775-1.342l7.878,4.55,7.877-4.55a.775.775,0,1,1,.775,1.342L9.428,45.453a.774.774,0,0,1-.388.1" transform="translate(0 -19.465)" fill="#333"/>
          <path id="패스_195" data-name="패스 195" d="M22.1,61.943a.775.775,0,0,1-.775-.775v-8.9a.775.775,0,1,1,1.55,0v8.9a.775.775,0,0,1-.775.775" transform="translate(-13.06 -26.973)" fill="#333"/>
          <path id="패스_196" data-name="패스 196" d="M66.588,42.707l-8.265,4.771-8.266-4.771V33.16l8.266-4.772,8.265,4.772Z" transform="translate(-30.655 -12.824)" fill="none"/>
          <path id="패스_197" data-name="패스 197" d="M57.1,47.028a.773.773,0,0,1-.388-.1l-8.266-4.771a.776.776,0,0,1-.388-.672V31.935a.775.775,0,0,1,.388-.671l8.266-4.772a.776.776,0,0,1,.775,0l8.265,4.772a.774.774,0,0,1,.388.671v9.546a.775.775,0,0,1-.388.672l-8.265,4.771a.772.772,0,0,1-.388.1m-7.491-5.994L57.1,45.357l7.49-4.324V32.382L57.1,28.058l-7.491,4.325Z" transform="translate(-29.43 -11.599)" fill="#333"/>
          <path id="패스_198" data-name="패스 198" d="M57.1,45.557a.77.77,0,0,1-.388-.1l-8.266-4.774a.775.775,0,1,1,.775-1.342l7.878,4.55,7.877-4.55a.775.775,0,1,1,.775,1.342l-8.265,4.774a.774.774,0,0,1-.388.1" transform="translate(-29.43 -19.465)" fill="#333"/>
          <path id="패스_199" data-name="패스 199" d="M70.158,61.943a.775.775,0,0,1-.775-.775v-8.9a.775.775,0,1,1,1.55,0v8.9a.775.775,0,0,1-.775.775" transform="translate(-42.49 -26.973)" fill="#333"/>
          <path id="패스_200" data-name="패스 200" d="M36.272,10.232a17.847,17.847,0,0,1-7.014,1.6v5.333a8.52,8.52,0,0,0,7.014,8.385,8.521,8.521,0,0,0,7.014-8.385V11.835a17.844,17.844,0,0,1-7.014-1.6" transform="translate(-17.918 -1.705)" fill="none"/>
          <path id="패스_201" data-name="패스 201" d="M35.047,25.1a.77.77,0,0,1-.136-.012,9.279,9.279,0,0,1-7.653-9.148V10.611a.775.775,0,0,1,.757-.775A17.018,17.018,0,0,0,34.725,8.3a.777.777,0,0,1,.643,0,17.016,17.016,0,0,0,6.71,1.533.775.775,0,0,1,.757.775v5.333a9.279,9.279,0,0,1-7.653,9.148.766.766,0,0,1-.136.012M28.808,11.353v4.591a7.73,7.73,0,0,0,6.239,7.6,7.73,7.73,0,0,0,6.238-7.6V11.353a18.524,18.524,0,0,1-6.238-1.5,18.528,18.528,0,0,1-6.239,1.5" transform="translate(-16.693 -8.233)" fill="#333"/>
          <path id="패스_202" data-name="패스 202" d="M39.657,28.226A.772.772,0,0,1,39.109,28l-2.046-2.046a.775.775,0,1,1,1.1-1.1l1.5,1.5,4.008-4.008a.775.775,0,0,1,1.1,1.1L40.205,28a.772.772,0,0,1-.548.227" transform="translate(-22.558 -16.737)" fill="#333"/>
        </g>
      </g>
    </g>
  </g>
</svg>
