<svg xmlns="http://www.w3.org/2000/svg" xmlns:xlink="http://www.w3.org/1999/xlink" width="1108.466" height="838" viewBox="0 0 1108.466 838">
  <defs>
    <clipPath id="clip-path">
      <rect id="사각형_416" data-name="사각형 416" width="36.817" height="10.266" transform="translate(0 0)" fill="none"/>
    </clipPath>
    <clipPath id="clip-path-3">
      <rect id="사각형_441" data-name="사각형 441" width="33.254" height="56.779" fill="none"/>
    </clipPath>
    <clipPath id="clip-path-5">
      <rect id="사각형_442" data-name="사각형 442" width="38.283" height="36.413" transform="translate(0 0)" fill="none" stroke="#707070" stroke-width="2"/>
    </clipPath>
  </defs>
  <g id="그룹_383" data-name="그룹 383" transform="translate(-200.5 -1482)">
    <line id="선_20" data-name="선 20" x2="1108.466" transform="translate(200.5 1903.771)" fill="none" stroke="silver" stroke-width="1"/>
    <g id="그룹_382" data-name="그룹 382" transform="translate(225.44 1954.206)">
      <g id="그룹_362" data-name="그룹 362" transform="translate(760.916 244.38)">
        <rect id="사각형_241" data-name="사각형 241" width="82.464" height="5.916" transform="translate(0 0)" fill="#c4c4c4"/>
      </g>
      <g id="그룹_363" data-name="그룹 363" transform="translate(760.916 292.044)">
        <rect id="사각형_241-2" data-name="사각형 241" width="82.464" height="5.916" transform="translate(0 0)" fill="#c4c4c4"/>
      </g>
      <g id="그룹_364" data-name="그룹 364" transform="translate(760.916 337.491)">
        <rect id="사각형_241-3" data-name="사각형 241" width="82.464" height="5.916" transform="translate(0 0)" fill="#c4c4c4"/>
      </g>
      <g id="사각형_379" data-name="사각형 379" transform="translate(257.56 18.794)" fill="#f7f7f7" stroke="#ccc" stroke-width="1">
        <rect width="805" height="163" rx="5" stroke="none"/>
        <rect x="0.5" y="0.5" width="804" height="162" rx="4.5" fill="none"/>
      </g>
      <g id="사각형_392" data-name="사각형 392" transform="translate(-0.44 70.794)" fill="#fff" stroke="#bbb" stroke-width="1">
        <rect width="178" height="44" stroke="none"/>
        <rect x="0.5" y="0.5" width="177" height="43" fill="none"/>
      </g>
      <g id="사각형_381" data-name="사각형 381" transform="translate(297.56 80.794)" fill="#fff" stroke="#dedede" stroke-width="1">
        <rect width="143" height="71" stroke="none"/>
        <rect x="0.5" y="0.5" width="142" height="70" fill="none"/>
      </g>
      <g id="사각형_395" data-name="사각형 395" transform="translate(445.56 80.794)" fill="#fff" stroke="#dedede" stroke-width="1">
        <rect width="143" height="71" stroke="none"/>
        <rect x="0.5" y="0.5" width="142" height="70" fill="none"/>
      </g>
      <g id="사각형_396" data-name="사각형 396" transform="translate(594.56 80.794)" fill="#fff" stroke="#dedede" stroke-width="1">
        <rect width="143" height="71" stroke="none"/>
        <rect x="0.5" y="0.5" width="142" height="70" fill="none"/>
      </g>
      <g id="사각형_397" data-name="사각형 397" transform="translate(742.56 80.794)" fill="#fff" stroke="#dedede" stroke-width="1">
        <rect width="143" height="71" stroke="none"/>
        <rect x="0.5" y="0.5" width="142" height="70" fill="none"/>
      </g>
      <g id="사각형_398" data-name="사각형 398" transform="translate(891.56 80.794)" fill="#fff" stroke="#dedede" stroke-width="1">
        <rect width="143" height="71" stroke="none"/>
        <rect x="0.5" y="0.5" width="142" height="70" fill="none"/>
      </g>
      <rect id="사각형_382" data-name="사각형 382" width="534" height="142" rx="5" transform="translate(257.56 223.794)" fill="#fff3e0"/>
      <rect id="사각형_385" data-name="사각형 385" width="253" height="44" transform="translate(809.56 225.794)" fill="#f99900"/>
      <rect id="사각형_399" data-name="사각형 399" width="253" height="43" transform="translate(809.56 272.794)" fill="#f99900"/>
      <rect id="사각형_400" data-name="사각형 400" width="253" height="44" transform="translate(809.56 318.794)" fill="#f99900"/>
      <g id="사각형_386" data-name="사각형 386" transform="translate(-0.44 126.794)" fill="#fff" stroke="#bbb" stroke-width="1">
        <rect width="178" height="44" stroke="none"/>
        <rect x="0.5" y="0.5" width="177" height="43" fill="none"/>
      </g>
      <g id="사각형_387" data-name="사각형 387" transform="translate(-0.44 181.794)" fill="#fff" stroke="#bbb" stroke-width="1">
        <rect width="178" height="44" stroke="none"/>
        <rect x="0.5" y="0.5" width="177" height="43" fill="none"/>
      </g>
      <g id="사각형_388" data-name="사각형 388" transform="translate(-0.44 236.794)" fill="#fff" stroke="#bbb" stroke-width="1">
        <rect width="178" height="45" stroke="none"/>
        <rect x="0.5" y="0.5" width="177" height="44" fill="none"/>
      </g>
      <g id="사각형_389" data-name="사각형 389" transform="translate(-0.44 292.794)" fill="#fff" stroke="#bbb" stroke-width="1">
        <rect width="178" height="44" stroke="none"/>
        <rect x="0.5" y="0.5" width="177" height="43" fill="none"/>
      </g>
      <rect id="사각형_393" data-name="사각형 393" width="136" height="47" rx="21" transform="translate(21.56 -0.206)" fill="#474747"/>
      <rect id="사각형_394" data-name="사각형 394" width="354" height="47" rx="21" transform="translate(483.56 -0.206)" fill="#474747"/>
      <text id="WEB_APP" data-name="WEB / APP" transform="translate(89.56 28.794)" fill="#fff" font-size="19" font-family="NanumSquareB, NanumSquare"><tspan x="-47.994" y="0">WEB / APP</tspan></text>
      <text id="폐배터리_유통이력_정보" data-name="폐배터리 유통이력 정보" transform="translate(656.56 27.794)" fill="#fff" font-size="19" font-family="NanumSquareB, NanumSquare"><tspan x="-91.2" y="0">폐배터리 유통이력 정보</tspan></text>
      <text id="국민" transform="translate(88.56 96.794)" fill="#5f5f5f" font-size="15" font-family="NanumSquareR, NanumSquare"><tspan x="-13.65" y="0">국민</tspan></text>
      <text id="입고정보" transform="translate(367.56 121.794)" fill="#5f5f5f" font-size="17" font-family="NanumSquareR, NanumSquare"><tspan x="-30.94" y="0">입고정보</tspan></text>
      <text id="관리기관_블록체인" data-name="관리기관 블록체인" transform="translate(351.56 255.794)" fill="#f99900" font-size="17" font-family="NanumSquareR, NanumSquare"><tspan x="-64.005" y="0">관리기관 블록체인</tspan></text>
      <text id="검사정보" transform="translate(516.56 121.794)" fill="#5f5f5f" font-size="17" font-family="NanumSquareR, NanumSquare"><tspan x="-30.94" y="0">검사정보</tspan></text>
      <text id="출고정보" transform="translate(664.56 121.794)" fill="#5f5f5f" font-size="17" font-family="NanumSquareR, NanumSquare"><tspan x="-30.94" y="0">출고정보</tspan></text>
      <text id="폐기정보" transform="translate(813.56 121.794)" fill="#5f5f5f" font-size="17" font-family="NanumSquareR, NanumSquare"><tspan x="-30.94" y="0">폐기정보</tspan></text>
      <text id="모니터링정보" transform="translate(963.56 121.794)" fill="#5f5f5f" font-size="18" font-family="NanumSquareR, NanumSquare"><tspan x="-49.14" y="0">모니터링정보</tspan></text>
      <text id="관리기관_블록체인-2" data-name="관리기관 블록체인" transform="translate(934.56 252.794)" fill="#fff" font-size="17" font-family="NanumSquareB, NanumSquare"><tspan x="-64.005" y="0">관리기관 블록체인</tspan></text>
      <text id="보급업체_블록체인" data-name="보급업체 블록체인" transform="translate(934.56 298.794)" fill="#fff" font-size="17" font-family="NanumSquareB, NanumSquare"><tspan x="-64.005" y="0">보급업체 블록체인</tspan></text>
      <text id="폐기물재활용업체_블록체인" data-name="폐기물재활용업체 블록체인" transform="translate(932.56 345.794)" fill="#fff" font-size="17" font-family="NanumSquareB, NanumSquare"><tspan x="-94.945" y="0">폐기물재활용업체 블록체인</tspan></text>
      <text id="자동차해체_재활용업자" data-name="자동차해체 재활용업자" transform="translate(86.56 152.794)" fill="#5f5f5f" font-size="15" font-family="NanumSquareR, NanumSquare"><tspan x="-70.125" y="0">자동차해체 재활용업자</tspan></text>
      <text id="관리기관" transform="translate(87.56 207.794)" fill="#5f5f5f" font-size="15" font-family="NanumSquareR, NanumSquare"><tspan x="-27.3" y="0">관리기관</tspan></text>
      <text id="보급업체" transform="translate(87.56 263.794)" fill="#5f5f5f" font-size="15" font-family="NanumSquareR, NanumSquare"><tspan x="-27.3" y="0">보급업체</tspan></text>
      <text id="폐기물_재활용업체" data-name="폐기물 재활용업체" transform="translate(85.56 318.794)" fill="#5f5f5f" font-size="15" font-family="NanumSquareR, NanumSquare"><tspan x="-56.475" y="0">폐기물 재활용업체</tspan></text>
      <g id="사각형_401" data-name="사각형 401" transform="translate(288.06 279.794)" fill="#fff" stroke="#dedede" stroke-width="1">
        <rect width="75" height="70" stroke="none"/>
        <rect x="0.5" y="0.5" width="74" height="69" fill="none"/>
      </g>
      <g id="사각형_402" data-name="사각형 402" transform="translate(367.06 279.794)" fill="#fff" stroke="#dedede" stroke-width="1">
        <rect width="76" height="70" stroke="none"/>
        <rect x="0.5" y="0.5" width="75" height="69" fill="none"/>
      </g>
      <g id="사각형_403" data-name="사각형 403" transform="translate(447.06 279.794)" fill="#fff" stroke="#dedede" stroke-width="1">
        <rect width="76" height="70" stroke="none"/>
        <rect x="0.5" y="0.5" width="75" height="69" fill="none"/>
      </g>
      <g id="사각형_404" data-name="사각형 404" transform="translate(527.06 279.794)" fill="#fff" stroke="#dedede" stroke-width="1">
        <rect width="75" height="70" stroke="none"/>
        <rect x="0.5" y="0.5" width="74" height="69" fill="none"/>
      </g>
      <g id="사각형_405" data-name="사각형 405" transform="translate(607.06 279.794)" fill="#fff" stroke="#dedede" stroke-width="1">
        <rect width="75" height="70" stroke="none"/>
        <rect x="0.5" y="0.5" width="74" height="69" fill="none"/>
      </g>
      <g id="사각형_406" data-name="사각형 406" transform="translate(687.06 279.794)" fill="#fff" stroke="#dedede" stroke-width="1">
        <rect width="75" height="70" stroke="none"/>
        <rect x="0.5" y="0.5" width="74" height="69" fill="none"/>
      </g>
      <text id="입고이력" transform="translate(325.06 319.794)" fill="#5f5f5f" font-size="17" font-family="NanumSquareR, NanumSquare"><tspan x="-30.94" y="0">입고이력</tspan></text>
      <text id="외관검사_이력" data-name="외관검사
이력" transform="translate(405.06 309.794)" fill="#5f5f5f" font-size="17" font-family="NanumSquareR, NanumSquare"><tspan x="-30.94" y="0">외관검사</tspan><tspan x="-15.47" y="21">이력</tspan></text>
      <text id="분석이력" transform="translate(485.06 319.794)" fill="#5f5f5f" font-size="17" font-family="NanumSquareR, NanumSquare"><tspan x="-30.94" y="0">분석이력</tspan></text>
      <text id="분해이력" transform="translate(564.06 319.794)" fill="#5f5f5f" font-size="17" font-family="NanumSquareR, NanumSquare"><tspan x="-30.94" y="0">분해이력</tspan></text>
      <text id="폐기이력" transform="translate(645.06 319.794)" fill="#5f5f5f" font-size="17" font-family="NanumSquareR, NanumSquare"><tspan x="-30.94" y="0">폐기이력</tspan></text>
      <text id="모니터링_이력" data-name="모니터링
이력" transform="translate(724.06 309.794)" fill="#5f5f5f" font-size="17" font-family="NanumSquareR, NanumSquare"><tspan x="-30.94" y="0">모니터링</tspan><tspan x="-15.47" y="21">이력</tspan></text>
      <g id="그룹_360" data-name="그룹 360" transform="translate(250.513 117.53) rotate(180)">
        <path id="패스_163" data-name="패스 163" d="M7.429,0,0,5.478l7.429,5.478Z" transform="translate(0 0)" fill="#c1c1c1"/>
        <rect id="사각형_241-4" data-name="사각형 241" width="67.108" height="5.916" transform="translate(4.189 2.573)" fill="#c1c1c1"/>
      </g>
      <g id="그룹_361" data-name="그룹 361" transform="translate(179.216 122.092)">
        <path id="패스_163-2" data-name="패스 163" d="M7.429,0,0,5.478l7.429,5.478Z" transform="translate(0 0)" fill="#c1c1c1"/>
        <rect id="사각형_241-5" data-name="사각형 241" width="67.108" height="5.916" transform="translate(4.189 2.573)" fill="#c1c1c1"/>
      </g>
      <g id="그룹_380" data-name="그룹 380" transform="translate(528.625 226.127) rotate(-90)">
        <path id="패스_163-3" data-name="패스 163" d="M7.429,0,0,5.478l7.429,5.478Z" transform="translate(0 0)" fill="#c1c1c1"/>
        <rect id="사각형_241-6" data-name="사각형 241" width="40.23" height="5.916" transform="translate(4.189 2.573)" fill="#c1c1c1"/>
      </g>
    </g>
    <g id="그룹_381" data-name="그룹 381" transform="translate(230.983 1482)">
      <g id="사각형_351" data-name="사각형 351" transform="translate(252.017 19)" fill="#f7f7f7" stroke="#ccc" stroke-width="1">
        <rect width="805" height="347" rx="5" stroke="none"/>
        <rect x="0.5" y="0.5" width="804" height="346" rx="4.5" fill="none"/>
      </g>
      <g id="사각형_354" data-name="사각형 354" transform="translate(0.017 71)" fill="#fff" stroke="#bbb" stroke-width="1">
        <rect width="177" height="44" stroke="none"/>
        <rect x="0.5" y="0.5" width="176" height="43" fill="none"/>
      </g>
      <g id="사각형_360" data-name="사각형 360" transform="translate(378.017 81)" fill="#fff" stroke="#dedede" stroke-width="1">
        <rect width="171" height="71" stroke="none"/>
        <rect x="0.5" y="0.5" width="170" height="70" fill="none"/>
      </g>
      <rect id="사각형_363" data-name="사각형 363" width="408" height="119" transform="translate(378.017 200)" fill="#e5eef8"/>
      <g id="사각형_361" data-name="사각형 361" transform="translate(615.017 81)" fill="#fff" stroke="#dedede" stroke-width="1">
        <rect width="171" height="71" stroke="none"/>
        <rect x="0.5" y="0.5" width="170" height="70" fill="none"/>
      </g>
      <g id="사각형_362" data-name="사각형 362" transform="translate(852.017 81)" fill="#fff" stroke="#dedede" stroke-width="1">
        <rect width="171" height="71" stroke="none"/>
        <rect x="0.5" y="0.5" width="170" height="70" fill="none"/>
      </g>
      <rect id="사각형_366" data-name="사각형 366" width="171" height="92" transform="translate(852.017 200)" fill="#2583c8"/>
      <g id="사각형_355" data-name="사각형 355" transform="translate(0.017 126)" fill="#fff" stroke="#bbb" stroke-width="1">
        <rect width="177" height="45" stroke="none"/>
        <rect x="0.5" y="0.5" width="176" height="44" fill="none"/>
      </g>
      <g id="사각형_356" data-name="사각형 356" transform="translate(0.017 182)" fill="#fff" stroke="#bbb" stroke-width="1">
        <rect width="177" height="44" stroke="none"/>
        <rect x="0.5" y="0.5" width="176" height="43" fill="none"/>
      </g>
      <g id="사각형_357" data-name="사각형 357" transform="translate(0.017 237)" fill="#fff" stroke="#bbb" stroke-width="1">
        <rect width="177" height="45" stroke="none"/>
        <rect x="0.5" y="0.5" width="176" height="44" fill="none"/>
      </g>
      <g id="사각형_358" data-name="사각형 358" transform="translate(0.017 293)" fill="#fff" stroke="#bbb" stroke-width="1">
        <rect width="177" height="44" stroke="none"/>
        <rect x="0.5" y="0.5" width="176" height="43" fill="none"/>
      </g>
      <rect id="사각형_353" data-name="사각형 353" width="136" height="47" rx="21" transform="translate(21.017)" fill="#474747"/>
      <rect id="사각형_359" data-name="사각형 359" width="354" height="47" rx="21" transform="translate(478.017)" fill="#474747"/>
      <text id="사용자" transform="translate(89.017 29)" fill="#fff" font-size="20" font-family="NanumSquareB, NanumSquare"><tspan x="-27.3" y="0">사용자</tspan></text>
      <text id="폐배터리_유통이력_관리시스템" data-name="폐배터리 유통이력 관리시스템" transform="translate(655.017 29)" fill="#fff" font-size="20" font-family="NanumSquareB, NanumSquare"><tspan x="-123.3" y="0">폐배터리 유통이력 관리시스템</tspan></text>
      <text id="국민-2" data-name="국민" transform="translate(88.017 97)" fill="#5f5f5f" font-size="15" font-family="NanumSquareR, NanumSquare"><tspan x="-13.65" y="0">국민</tspan></text>
      <text id="관리기관_Org" data-name="관리기관 Org" transform="translate(462.017 120)" fill="#5f5f5f" font-size="17" font-family="NanumSquareR, NanumSquare"><tspan x="-47.192" y="0">관리기관 Org</tspan></text>
      <text id="Cloud" transform="translate(422.017 230)" fill="#2583c8" font-size="18" font-family="NanumSquareR, NanumSquare"><tspan x="-23.247" y="0">Cloud</tspan></text>
      <text id="VPN" transform="translate(344.017 166)" fill="#949494" font-size="11" font-family="NanumSquareR, NanumSquare"><tspan x="-10.549" y="0">VPN</tspan></text>
      <text id="WEB_WAS" data-name="WEB/
WAS" transform="translate(272.017 233)" fill="#949494" font-size="11" font-family="NanumSquareR, NanumSquare"><tspan x="-14.025" y="0">WEB/</tspan><tspan x="-12.221" y="15">WAS</tspan></text>
      <text id="DBMS" transform="translate(354.017 200)" fill="#949494" font-size="11" font-family="NanumSquareR, NanumSquare"><tspan x="-14.922" y="0">DBMS</tspan></text>
      <text id="Ordering_Service" data-name="Ordering Service" transform="translate(698.017 120)" fill="#5f5f5f" font-size="17" font-family="NanumSquareR, NanumSquare"><tspan x="-64.252" y="0">Ordering Service</tspan></text>
      <text id="관리기관_Org-2" data-name="관리기관 Org" transform="translate(936.017 120)" fill="#5f5f5f" font-size="17" font-family="NanumSquareR, NanumSquare"><tspan x="-47.192" y="0">관리기관 Org</tspan></text>
      <text id="폐배터리_이력관리_블록체인_채널" data-name="폐배터리 이력관리
블록체인 채널" transform="translate(935.017 238)" fill="#fff" font-size="17" font-family="NanumSquareB, NanumSquare"><tspan x="-64.005" y="0">폐배터리 이력관리</tspan><tspan x="-48.535" y="23">블록체인 채널</tspan></text>
      <text id="자동차해체_재활용업자-2" data-name="자동차해체 재활용업자" transform="translate(87.017 153)" fill="#5f5f5f" font-size="15" font-family="NanumSquareR, NanumSquare"><tspan x="-70.125" y="0">자동차해체 재활용업자</tspan></text>
      <text id="관리기관-2" data-name="관리기관" transform="translate(88.017 208)" fill="#5f5f5f" font-size="15" font-family="NanumSquareR, NanumSquare"><tspan x="-27.3" y="0">관리기관</tspan></text>
      <text id="보급업체-2" data-name="보급업체" transform="translate(88.017 264)" fill="#5f5f5f" font-size="15" font-family="NanumSquareR, NanumSquare"><tspan x="-27.3" y="0">보급업체</tspan></text>
      <text id="폐기물_재활용업체-2" data-name="폐기물 재활용업체" transform="translate(86.017 319)" fill="#5f5f5f" font-size="15" font-family="NanumSquareR, NanumSquare"><tspan x="-56.475" y="0">폐기물 재활용업체</tspan></text>
      <g id="사각형_364" data-name="사각형 364" transform="translate(399.017 241)" fill="#fff" stroke="#dedede" stroke-width="1">
        <rect width="171" height="63" stroke="none"/>
        <rect x="0.5" y="0.5" width="170" height="62" fill="none"/>
      </g>
      <g id="사각형_365" data-name="사각형 365" transform="translate(594.017 241)" fill="#fff" stroke="#dedede" stroke-width="1">
        <rect width="171" height="63" stroke="none"/>
        <rect x="0.5" y="0.5" width="170" height="62" fill="none"/>
      </g>
      <text id="보급업체_Org" data-name="보급업체 Org" transform="translate(483.017 277)" fill="#5f5f5f" font-size="17" font-family="NanumSquareR, NanumSquare"><tspan x="-47.192" y="0">보급업체 Org</tspan></text>
      <text id="폐기물재활용업체_Org" data-name="폐기물재활용업체
Org" transform="translate(677.017 269)" fill="#5f5f5f" font-size="17" font-family="NanumSquareR, NanumSquare"><tspan x="-61.88" y="0">폐기물재활용업체</tspan><tspan x="-14.127" y="23">Org</tspan></text>
      <line id="선_21" data-name="선 21" y2="29.929" transform="translate(463.893 151.306)" fill="none" stroke="#c1c1c1" stroke-width="3"/>
      <line id="선_27" data-name="선 27" y2="21.061" transform="translate(680.044 304.274)" fill="none" stroke="#c1c1c1" stroke-width="3"/>
      <line id="선_31" data-name="선 31" y2="33.254" transform="translate(876.242 292.081)" fill="none" stroke="#c1c1c1" stroke-width="3"/>
      <line id="선_32" data-name="선 32" y2="60.966" transform="translate(998.173 292.081)" fill="none" stroke="#c1c1c1" stroke-width="3"/>
      <line id="선_26" data-name="선 26" y2="34.362" transform="translate(483.845 304.274)" fill="none" stroke="#c1c1c1" stroke-width="3"/>
      <line id="선_34" data-name="선 34" y2="65.399" transform="translate(331.985 286.538)" fill="none" stroke="#c1c1c1" stroke-width="3"/>
      <line id="선_36" data-name="선 36" y2="22.169" transform="translate(309.816 264.369)" fill="none" stroke="#c1c1c1" stroke-width="3"/>
      <line id="선_37" data-name="선 37" y2="22.169" transform="translate(355.263 264.369)" fill="none" stroke="#c1c1c1" stroke-width="3"/>
      <line id="선_38" data-name="선 38" y2="35.471" transform="translate(308.708 169.041)" fill="none" stroke="#c1c1c1" stroke-width="3"/>
      <line id="선_39" data-name="선 39" y2="47.664" transform="translate(308.708 111.401)" fill="none" stroke="#c1c1c1" stroke-width="3"/>
      <line id="선_22" data-name="선 22" y2="48.772" transform="translate(937.208 151.306)" fill="none" stroke="#c1c1c1" stroke-width="3"/>
      <line id="선_30" data-name="선 30" y2="46.556" transform="translate(937.208 292.081)" fill="none" stroke="#c1c1c1" stroke-width="3"/>
      <line id="선_25" data-name="선 25" y2="21.061" transform="translate(877.351 179.017)" fill="none" stroke="#c1c1c1" stroke-width="3"/>
      <line id="선_23" data-name="선 23" x1="68.725" transform="translate(784.239 116.943)" fill="none" stroke="#c1c1c1" stroke-width="3"/>
      <line id="선_24" data-name="선 24" x1="414.566" transform="translate(462.784 180.126)" fill="none" stroke="#c1c1c1" stroke-width="3"/>
      <line id="선_28" data-name="선 28" x1="453.362" transform="translate(483.845 337.528)" fill="none" stroke="#c1c1c1" stroke-width="3"/>
      <line id="선_33" data-name="선 33" x1="666.188" y2="1.108" transform="translate(331.985 350.829)" fill="none" stroke="#c1c1c1" stroke-width="3"/>
      <line id="선_35" data-name="선 35" x1="47.664" transform="translate(308.708 285.43)" fill="none" stroke="#c1c1c1" stroke-width="3"/>
      <line id="선_40" data-name="선 40" x1="55.423" transform="translate(231.115 93.665)" fill="none" stroke="#c1c1c1" stroke-width="3"/>
      <line id="선_29" data-name="선 29" x1="198.415" transform="translate(678.935 324.226)" fill="none" stroke="#c1c1c1" stroke-width="3"/>
      <g id="그룹_373" data-name="그룹 373" transform="translate(289.31 158.887)">
        <g id="그룹_372" data-name="그룹 372" transform="translate(0 0)" clip-path="url(#clip-path)">
          <path id="패스_272" data-name="패스 272" d="M36.332,10.266H.487A.486.486,0,0,1,0,9.779V.486A.486.486,0,0,1,.487,0H36.332a.486.486,0,0,1,.486.486V9.779a.486.486,0,0,1-.486.486" transform="translate(-0.001 0)" fill="#303030"/>
          <rect id="사각형_412" data-name="사각형 412" width="34.966" height="8.124" transform="translate(0.926 1.071)" fill="#4c4c4c"/>
          <rect id="사각형_413" data-name="사각형 413" width="31.929" height="6.605" transform="translate(2.445 2.59)" fill="#1f1f1f"/>
          <rect id="사각형_414" data-name="사각형 414" width="2.725" height="2.725" transform="translate(4.781 4.53)" fill="#79e0e0"/>
          <rect id="사각형_415" data-name="사각형 415" width="21.515" height="0.431" transform="translate(10.387 5.677)" fill="#fad260"/>
        </g>
      </g>
      <g id="그룹_377" data-name="그룹 377" transform="translate(193.981 87.946)">
        <g id="그룹_372-2" data-name="그룹 372" transform="translate(0 0)" clip-path="url(#clip-path)">
          <path id="패스_272-2" data-name="패스 272" d="M36.332,10.266H.487A.486.486,0,0,1,0,9.779V.486A.486.486,0,0,1,.487,0H36.332a.486.486,0,0,1,.486.486V9.779a.486.486,0,0,1-.486.486" transform="translate(-0.001 0)" fill="#303030"/>
          <rect id="사각형_412-2" data-name="사각형 412" width="34.966" height="8.124" transform="translate(0.926 1.071)" fill="#4c4c4c"/>
          <rect id="사각형_413-2" data-name="사각형 413" width="31.929" height="6.605" transform="translate(2.445 2.59)" fill="#1f1f1f"/>
          <rect id="사각형_414-2" data-name="사각형 414" width="2.725" height="2.725" transform="translate(4.781 4.53)" fill="#79e0e0"/>
          <rect id="사각형_415-2" data-name="사각형 415" width="21.515" height="0.431" transform="translate(10.387 5.677)" fill="#fad260"/>
        </g>
      </g>
      <g id="그룹_375" data-name="그룹 375" transform="translate(292.635 205.632)">
        <g id="그룹_374" data-name="그룹 374" clip-path="url(#clip-path-3)">
          <path id="패스_273" data-name="패스 273" d="M41.053,53.073H10V1.593A1.594,1.594,0,0,1,11.595,0H39.459a1.594,1.594,0,0,1,1.594,1.594Z" transform="translate(-8.9 0.001)" fill="#303030"/>
          <rect id="사각형_417" data-name="사각형 417" width="25.35" height="5.889" transform="translate(3.952 3.394)" fill="#4c4c4c"/>
          <rect id="사각형_418" data-name="사각형 418" width="23.148" height="4.789" transform="translate(5.053 4.495)" fill="#1f1f1f"/>
          <rect id="사각형_419" data-name="사각형 419" width="1.975" height="1.975" transform="translate(6.747 5.902)" fill="#79e0e0"/>
          <rect id="사각형_420" data-name="사각형 420" width="15.598" height="0.312" transform="translate(10.812 6.733)" fill="#fad260"/>
          <rect id="사각형_421" data-name="사각형 421" width="25.35" height="5.889" transform="translate(3.952 12.53)" fill="#4c4c4c"/>
          <rect id="사각형_422" data-name="사각형 422" width="23.148" height="4.789" transform="translate(5.053 13.631)" fill="#1f1f1f"/>
          <rect id="사각형_423" data-name="사각형 423" width="1.975" height="1.975" transform="translate(6.747 15.038)" fill="#79e0e0"/>
          <rect id="사각형_424" data-name="사각형 424" width="15.598" height="0.312" transform="translate(10.812 15.869)" fill="#fad260"/>
          <rect id="사각형_425" data-name="사각형 425" width="25.35" height="5.89" transform="translate(3.952 21.666)" fill="#4c4c4c"/>
          <rect id="사각형_426" data-name="사각형 426" width="23.148" height="4.789" transform="translate(5.053 22.767)" fill="#1f1f1f"/>
          <rect id="사각형_427" data-name="사각형 427" width="1.975" height="1.975" transform="translate(6.747 24.174)" fill="#79e0e0"/>
          <rect id="사각형_428" data-name="사각형 428" width="15.598" height="0.312" transform="translate(10.812 25.006)" fill="#fad260"/>
          <rect id="사각형_429" data-name="사각형 429" width="25.35" height="5.889" transform="translate(3.952 30.803)" fill="#4c4c4c"/>
          <rect id="사각형_430" data-name="사각형 430" width="23.148" height="4.789" transform="translate(5.053 31.903)" fill="#1f1f1f"/>
          <rect id="사각형_431" data-name="사각형 431" width="1.975" height="1.975" transform="translate(6.747 33.31)" fill="#79e0e0"/>
          <rect id="사각형_432" data-name="사각형 432" width="15.598" height="0.312" transform="translate(10.812 34.142)" fill="#fad260"/>
          <rect id="사각형_433" data-name="사각형 433" width="25.35" height="5.889" transform="translate(3.952 39.939)" fill="#4c4c4c"/>
          <rect id="사각형_434" data-name="사각형 434" width="23.148" height="4.789" transform="translate(5.053 41.04)" fill="#1f1f1f"/>
          <rect id="사각형_435" data-name="사각형 435" width="1.975" height="1.975" transform="translate(6.747 42.446)" fill="#79e0e0"/>
          <rect id="사각형_436" data-name="사각형 436" width="15.598" height="0.312" transform="translate(10.812 43.278)" fill="#fad260"/>
          <path id="패스_274" data-name="패스 274" d="M255.067,441.41a.686.686,0,1,1-.686-.686.686.686,0,0,1,.686.686" transform="translate(-225.765 -392.203)" fill="#79e0e0"/>
          <rect id="사각형_437" data-name="사각형 437" width="6.905" height="1.138" transform="translate(19.747 48.755)" fill="#ccc"/>
          <rect id="사각형_438" data-name="사각형 438" width="6.905" height="1.138" transform="translate(11.85 48.755)" fill="#ccc"/>
          <rect id="사각형_439" data-name="사각형 439" width="6.905" height="1.138" transform="translate(3.952 48.755)" fill="#ccc"/>
          <path id="패스_275" data-name="패스 275" d="M33.254,483.76H0l1.1-1.683H32.153Z" transform="translate(0 -429.004)"/>
          <rect id="사각형_440" data-name="사각형 440" width="33.254" height="2.022" transform="translate(0 54.757)" fill="#303030"/>
        </g>
      </g>
      <g id="그룹_376" data-name="그룹 376" transform="translate(338.082 205.632)">
        <g id="그룹_374-2" data-name="그룹 374" clip-path="url(#clip-path-3)">
          <path id="패스_273-2" data-name="패스 273" d="M41.053,53.073H10V1.593A1.594,1.594,0,0,1,11.595,0H39.459a1.594,1.594,0,0,1,1.594,1.594Z" transform="translate(-8.9 0.001)" fill="#303030"/>
          <rect id="사각형_417-2" data-name="사각형 417" width="25.35" height="5.889" transform="translate(3.952 3.394)" fill="#4c4c4c"/>
          <rect id="사각형_418-2" data-name="사각형 418" width="23.148" height="4.789" transform="translate(5.053 4.495)" fill="#1f1f1f"/>
          <rect id="사각형_419-2" data-name="사각형 419" width="1.975" height="1.975" transform="translate(6.747 5.902)" fill="#79e0e0"/>
          <rect id="사각형_420-2" data-name="사각형 420" width="15.598" height="0.312" transform="translate(10.812 6.733)" fill="#fad260"/>
          <rect id="사각형_421-2" data-name="사각형 421" width="25.35" height="5.889" transform="translate(3.952 12.53)" fill="#4c4c4c"/>
          <rect id="사각형_422-2" data-name="사각형 422" width="23.148" height="4.789" transform="translate(5.053 13.631)" fill="#1f1f1f"/>
          <rect id="사각형_423-2" data-name="사각형 423" width="1.975" height="1.975" transform="translate(6.747 15.038)" fill="#79e0e0"/>
          <rect id="사각형_424-2" data-name="사각형 424" width="15.598" height="0.312" transform="translate(10.812 15.869)" fill="#fad260"/>
          <rect id="사각형_425-2" data-name="사각형 425" width="25.35" height="5.89" transform="translate(3.952 21.666)" fill="#4c4c4c"/>
          <rect id="사각형_426-2" data-name="사각형 426" width="23.148" height="4.789" transform="translate(5.053 22.767)" fill="#1f1f1f"/>
          <rect id="사각형_427-2" data-name="사각형 427" width="1.975" height="1.975" transform="translate(6.747 24.174)" fill="#79e0e0"/>
          <rect id="사각형_428-2" data-name="사각형 428" width="15.598" height="0.312" transform="translate(10.812 25.006)" fill="#fad260"/>
          <rect id="사각형_429-2" data-name="사각형 429" width="25.35" height="5.889" transform="translate(3.952 30.803)" fill="#4c4c4c"/>
          <rect id="사각형_430-2" data-name="사각형 430" width="23.148" height="4.789" transform="translate(5.053 31.903)" fill="#1f1f1f"/>
          <rect id="사각형_431-2" data-name="사각형 431" width="1.975" height="1.975" transform="translate(6.747 33.31)" fill="#79e0e0"/>
          <rect id="사각형_432-2" data-name="사각형 432" width="15.598" height="0.312" transform="translate(10.812 34.142)" fill="#fad260"/>
          <rect id="사각형_433-2" data-name="사각형 433" width="25.35" height="5.889" transform="translate(3.952 39.939)" fill="#4c4c4c"/>
          <rect id="사각형_434-2" data-name="사각형 434" width="23.148" height="4.789" transform="translate(5.053 41.04)" fill="#1f1f1f"/>
          <rect id="사각형_435-2" data-name="사각형 435" width="1.975" height="1.975" transform="translate(6.747 42.446)" fill="#79e0e0"/>
          <rect id="사각형_436-2" data-name="사각형 436" width="15.598" height="0.312" transform="translate(10.812 43.278)" fill="#fad260"/>
          <path id="패스_274-2" data-name="패스 274" d="M255.067,441.41a.686.686,0,1,1-.686-.686.686.686,0,0,1,.686.686" transform="translate(-225.765 -392.203)" fill="#79e0e0"/>
          <rect id="사각형_437-2" data-name="사각형 437" width="6.905" height="1.138" transform="translate(19.747 48.755)" fill="#ccc"/>
          <rect id="사각형_438-2" data-name="사각형 438" width="6.905" height="1.138" transform="translate(11.85 48.755)" fill="#ccc"/>
          <rect id="사각형_439-2" data-name="사각형 439" width="6.905" height="1.138" transform="translate(3.952 48.755)" fill="#ccc"/>
          <path id="패스_275-2" data-name="패스 275" d="M33.254,483.76H0l1.1-1.683H32.153Z" transform="translate(0 -429.004)"/>
          <rect id="사각형_440-2" data-name="사각형 440" width="33.254" height="2.022" transform="translate(0 54.757)" fill="#303030"/>
        </g>
      </g>
      <g id="그룹_379" data-name="그룹 379" transform="translate(289.31 72.216)">
        <g id="그룹_378" data-name="그룹 378" transform="translate(0 0)" clip-path="url(#clip-path-5)">
          <path id="패스_276" data-name="패스 276" d="M46.825,11.856c5.548,1.39,9.357,4.258,9.357,7.572A16.928,16.928,0,0,0,39.254,2.5C42.568,2.5,45.436,6.309,46.825,11.856Z" transform="translate(-19.177 -1.221)" fill="none" stroke="#79e0e0" stroke-linecap="round" stroke-linejoin="round" stroke-width="2"/>
          <path id="패스_277" data-name="패스 277" d="M45.932,43.169c-1.39,5.548-4.258,9.356-7.572,9.356a4.346,4.346,0,0,1-.935-.1V52.5c.31.016.621.026.935.026A16.928,16.928,0,0,0,55.288,35.6C55.288,38.911,51.48,41.779,45.932,43.169Z" transform="translate(-18.283 -17.39)" fill="none" stroke="#79e0e0" stroke-linecap="round" stroke-linejoin="round" stroke-width="2"/>
          <path id="패스_278" data-name="패스 278" d="M38.359,2.5c-.314,0-.625.01-.934.026V2.6A4.338,4.338,0,0,1,38.359,2.5Z" transform="translate(-18.283 -1.221)" fill="none" stroke="#79e0e0" stroke-linecap="round" stroke-linejoin="round" stroke-width="2"/>
          <path id="패스_279" data-name="패스 279" d="M54.057,43.169c5.548-1.39,9.357-4.258,9.357-7.572H54.95A31.387,31.387,0,0,1,54.057,43.169Z" transform="translate(-26.409 -17.39)" fill="none" stroke="#79e0e0" stroke-linecap="round" stroke-linejoin="round" stroke-width="2"/>
          <path id="패스_280" data-name="패스 280" d="M54.057,20.793a31.387,31.387,0,0,1,.893,7.572h8.464C63.414,25.051,59.6,22.183,54.057,20.793Z" transform="translate(-26.409 -10.158)" fill="none" stroke="#79e0e0" stroke-linecap="round" stroke-linejoin="round" stroke-width="2"/>
          <path id="패스_281" data-name="패스 281" d="M39.253,2.5h0Z" transform="translate(-19.176 -1.221)" fill="none" stroke="#79e0e0" stroke-linecap="round" stroke-linejoin="round" stroke-width="2"/>
          <path id="패스_282" data-name="패스 282" d="M45.932,50.4a31.387,31.387,0,0,1-7.572.893q-.47,0-.935-.013v8.374a4.346,4.346,0,0,0,.935.1C41.674,59.757,44.542,55.949,45.932,50.4Z" transform="translate(-18.283 -24.623)" fill="none" stroke="#79e0e0" stroke-linecap="round" stroke-linejoin="round" stroke-width="2"/>
          <path id="패스_283" data-name="패스 283" d="M37.425,10.977q.464-.013.935-.013a31.413,31.413,0,0,1,7.572.892C44.542,6.309,41.674,2.5,38.36,2.5h0a4.342,4.342,0,0,0-.934.1Z" transform="translate(-18.283 -1.221)" fill="none" stroke="#79e0e0" stroke-linecap="round" stroke-linejoin="round" stroke-width="2"/>
          <path id="패스_284" data-name="패스 284" d="M37.425,44.048q.464.012.935.013a31.39,31.39,0,0,0,7.572-.893,31.382,31.382,0,0,0,.893-7.571h-9.4Z" transform="translate(-18.283 -17.39)" fill="none" stroke="#79e0e0" stroke-linecap="round" stroke-linejoin="round" stroke-width="2"/>
          <path id="패스_285" data-name="패스 285" d="M46.824,27.513h0a31.39,31.39,0,0,0-.893-7.572,31.413,31.413,0,0,0-7.572-.892q-.47,0-.935.013v8.451Z" transform="translate(-18.283 -9.306)" fill="none" stroke="#79e0e0" stroke-linecap="round" stroke-linejoin="round" stroke-width="2"/>
          <path id="패스_286" data-name="패스 286" d="M11.856,11.856C6.309,13.246,2.5,16.114,2.5,19.428A16.928,16.928,0,0,1,19.427,2.5C16.114,2.5,13.246,6.309,11.856,11.856Z" transform="translate(-1.221 -1.221)" fill="none" stroke="#79e0e0" stroke-linecap="round" stroke-linejoin="round" stroke-width="2"/>
          <path id="패스_287" data-name="패스 287" d="M11.856,43.169c1.39,5.548,4.258,9.356,7.572,9.356a4.346,4.346,0,0,0,.935-.1V52.5c-.31.016-.621.026-.935.026A16.928,16.928,0,0,1,2.5,35.6C2.5,38.911,6.309,41.779,11.856,43.169Z" transform="translate(-1.221 -17.39)" fill="none" stroke="#79e0e0" stroke-linecap="round" stroke-linejoin="round" stroke-width="2"/>
          <path id="패스_288" data-name="패스 288" d="M35.6,2.5c.313,0,.625.01.934.026V2.6A4.333,4.333,0,0,0,35.6,2.5Z" transform="translate(-17.391 -1.221)" fill="none" stroke="#79e0e0" stroke-linecap="round" stroke-linejoin="round" stroke-width="2"/>
          <path id="패스_289" data-name="패스 289" d="M11.856,43.169C6.309,41.779,2.5,38.911,2.5,35.6h8.464A31.413,31.413,0,0,0,11.856,43.169Z" transform="translate(-1.221 -17.39)" fill="none" stroke="#79e0e0" stroke-linecap="round" stroke-linejoin="round" stroke-width="2"/>
          <path id="패스_290" data-name="패스 290" d="M11.856,20.793a31.414,31.414,0,0,0-.892,7.572H2.5C2.5,25.051,6.309,22.183,11.856,20.793Z" transform="translate(-1.221 -10.158)" fill="none" stroke="#79e0e0" stroke-linecap="round" stroke-linejoin="round" stroke-width="2"/>
          <path id="패스_291" data-name="패스 291" d="M35.6,2.5h0Z" transform="translate(-17.39 -1.221)" fill="none" stroke="#79e0e0" stroke-linecap="round" stroke-linejoin="round" stroke-width="2"/>
          <path id="패스_292" data-name="패스 292" d="M20.793,50.4a31.387,31.387,0,0,0,7.572.893c.314,0,.625,0,.935-.013v8.374a4.346,4.346,0,0,1-.935.1C25.051,59.757,22.183,55.949,20.793,50.4Z" transform="translate(-10.158 -24.623)" fill="none" stroke="#79e0e0" stroke-linecap="round" stroke-linejoin="round" stroke-width="2"/>
          <path id="패스_293" data-name="패스 293" d="M29.3,10.977q-.464-.013-.935-.013a31.417,31.417,0,0,0-7.572.892C22.183,6.309,25.05,2.5,28.364,2.5h0a4.337,4.337,0,0,1,.934.1Z" transform="translate(-10.158 -1.221)" fill="none" stroke="#79e0e0" stroke-linecap="round" stroke-linejoin="round" stroke-width="2"/>
          <path id="패스_294" data-name="패스 294" d="M28.448,44.048q-.464.012-.935.013a31.39,31.39,0,0,1-7.572-.893,31.409,31.409,0,0,1-.892-7.571h9.4Z" transform="translate(-9.306 -17.39)" fill="none" stroke="#79e0e0" stroke-linecap="round" stroke-linejoin="round" stroke-width="2"/>
          <path id="패스_295" data-name="패스 295" d="M19.049,27.513h0a31.417,31.417,0,0,1,.892-7.572,31.417,31.417,0,0,1,7.572-.892q.471,0,.935.013v8.451Z" transform="translate(-9.306 -9.306)" fill="none" stroke="#79e0e0" stroke-linecap="round" stroke-linejoin="round" stroke-width="2"/>
        </g>
      </g>
    </g>
  </g>
</svg>
