<svg xmlns="http://www.w3.org/2000/svg" xmlns:xlink="http://www.w3.org/1999/xlink" width="45" height="46.563" viewBox="0 0 45 46.563">
  <defs>
    <clipPath id="clip-path">
      <rect id="사각형_378" data-name="사각형 378" width="36.973" height="41.272" transform="translate(0 0)" fill="none"/>
    </clipPath>
  </defs>
  <g id="그룹_359" data-name="그룹 359" transform="translate(-200 -1086.437)">
    <circle id="타원_15" data-name="타원 15" cx="17" cy="17" r="17" transform="translate(211 1099)" fill="#2583c8" opacity="0.25"/>
    <g id="그룹_358" data-name="그룹 358" transform="translate(200 1086.437)">
      <g id="그룹_357" data-name="그룹 357" transform="translate(0 0)" clip-path="url(#clip-path)">
        <path id="패스_245" data-name="패스 245" d="M23.7,42.473a.873.873,0,0,1-.436-.116L9.684,34.514a.872.872,0,0,1-.436-.755V18.072a.871.871,0,0,1,.436-.755L23.268,9.475a.87.87,0,0,1,.872,0l13.584,7.843a.872.872,0,0,1,.436.755V33.759a.873.873,0,0,1-.436.755L24.14,42.357a.874.874,0,0,1-.436.116M10.991,33.256,23.7,40.6l12.713-7.34V18.575L23.7,11.236,10.991,18.575Z" transform="translate(-5.218 -5.279)" fill="#333"/>
        <path id="패스_246" data-name="패스 246" d="M41.265,8.792l-3.922,2.264L33.422,8.792V4.264L37.344,2l3.922,2.264Z" transform="translate(-18.858 -1.128)" fill="#fff"/>
        <path id="패스_247" data-name="패스 247" d="M36.215,10.8a.87.87,0,0,1-.436-.117L31.858,8.419a.872.872,0,0,1-.436-.755V3.136a.872.872,0,0,1,.436-.755L35.779.117a.872.872,0,0,1,.872,0l3.922,2.264a.872.872,0,0,1,.436.755V7.664a.872.872,0,0,1-.436.755l-3.922,2.264a.87.87,0,0,1-.436.117m-3.05-3.639,3.05,1.761,3.05-1.761V3.639l-3.05-1.761-3.05,1.761Z" transform="translate(-17.729 0)" fill="#333"/>
        <path id="패스_248" data-name="패스 248" d="M36.215,9.428a.87.87,0,0,1-.436-.117L31.858,7.047a.872.872,0,0,1,.872-1.51l3.486,2.012L39.7,5.537a.872.872,0,0,1,.872,1.51L36.651,9.311a.87.87,0,0,1-.436.117" transform="translate(-17.729 -3.058)" fill="#333"/>
        <path id="패스_249" data-name="패스 249" d="M41.293,15.97a.872.872,0,0,1-.872-.872V11.466a.872.872,0,1,1,1.743,0V15.1a.872.872,0,0,1-.872.872" transform="translate(-22.806 -5.977)" fill="#333"/>
        <path id="패스_250" data-name="패스 250" d="M41.265,78.719l-3.922,2.263-3.922-2.263V74.19l3.922-2.264,3.922,2.264Z" transform="translate(-18.858 -40.582)" fill="#fff"/>
        <path id="패스_251" data-name="패스 251" d="M36.215,80.726a.868.868,0,0,1-.435-.117l-3.922-2.263a.872.872,0,0,1-.436-.755V73.062a.872.872,0,0,1,.436-.755l3.922-2.264a.872.872,0,0,1,.872,0l3.922,2.264a.872.872,0,0,1,.436.755v4.529a.872.872,0,0,1-.436.755l-3.922,2.263a.871.871,0,0,1-.436.117m-3.05-3.638,3.05,1.76,3.05-1.76V73.565L36.215,71.8l-3.05,1.761Z" transform="translate(-17.729 -39.454)" fill="#333"/>
        <path id="패스_252" data-name="패스 252" d="M36.215,79.354a.87.87,0,0,1-.436-.117l-3.922-2.265a.871.871,0,0,1,.872-1.509l3.486,2.013L39.7,75.463a.871.871,0,0,1,.872,1.509l-3.922,2.265a.87.87,0,0,1-.436.117" transform="translate(-17.729 -42.511)" fill="#333"/>
        <path id="패스_253" data-name="패스 253" d="M41.293,85.9a.872.872,0,0,1-.872-.872V81.392a.872.872,0,1,1,1.743,0v3.633a.872.872,0,0,1-.872.872" transform="translate(-22.806 -45.431)" fill="#333"/>
        <path id="패스_254" data-name="패스 254" d="M9.843,26.274,5.922,28.538,2,26.274V21.745l3.921-2.264,3.922,2.264Z" transform="translate(-1.129 -10.991)" fill="#fff"/>
        <path id="패스_255" data-name="패스 255" d="M4.793,28.281a.87.87,0,0,1-.436-.117L.436,25.9A.872.872,0,0,1,0,25.146V20.617a.872.872,0,0,1,.436-.755L4.357,17.6a.872.872,0,0,1,.872,0L9.15,19.862a.872.872,0,0,1,.436.755v4.529a.872.872,0,0,1-.436.755L5.228,28.165a.87.87,0,0,1-.436.117m-3.05-3.639L4.793,26.4l3.05-1.761V21.12l-3.05-1.761L1.743,21.12Z" transform="translate(0 -9.863)" fill="#333"/>
        <path id="패스_256" data-name="패스 256" d="M4.793,26.908a.87.87,0,0,1-.436-.117L.435,24.526a.871.871,0,0,1,.872-1.509L4.793,25.03l3.486-2.013a.871.871,0,0,1,.872,1.509L5.228,26.791a.87.87,0,0,1-.436.117" transform="translate(0 -12.92)" fill="#333"/>
        <path id="패스_257" data-name="패스 257" d="M9.87,33.452A.872.872,0,0,1,9,32.58V28.947a.872.872,0,1,1,1.743,0V32.58a.872.872,0,0,1-.872.872" transform="translate(-5.077 -15.84)" fill="#333"/>
        <path id="패스_258" data-name="패스 258" d="M72.688,26.274l-3.922,2.264-3.922-2.264V21.745l3.922-2.264,3.922,2.264Z" transform="translate(-36.587 -10.991)" fill="#fff"/>
        <path id="패스_259" data-name="패스 259" d="M67.638,28.281a.87.87,0,0,1-.436-.117L63.281,25.9a.872.872,0,0,1-.436-.755V20.617a.872.872,0,0,1,.436-.755L67.2,17.6a.872.872,0,0,1,.872,0L72,19.862a.872.872,0,0,1,.436.755v4.529A.872.872,0,0,1,72,25.9l-3.922,2.264a.87.87,0,0,1-.436.117m-3.05-3.639,3.05,1.761,3.05-1.761V21.12l-3.05-1.761-3.05,1.761Z" transform="translate(-35.459 -9.863)" fill="#333"/>
        <path id="패스_260" data-name="패스 260" d="M67.638,26.908a.87.87,0,0,1-.436-.117L63.28,24.526a.871.871,0,0,1,.872-1.509l3.486,2.013,3.486-2.013A.871.871,0,0,1,72,24.526l-3.922,2.265a.87.87,0,0,1-.436.117" transform="translate(-35.458 -12.92)" fill="#333"/>
        <path id="패스_261" data-name="패스 261" d="M72.716,33.452a.872.872,0,0,1-.872-.872V28.947a.872.872,0,1,1,1.743,0V32.58a.872.872,0,0,1-.872.872" transform="translate(-40.536 -15.84)" fill="#333"/>
        <path id="패스_262" data-name="패스 262" d="M9.843,61.237,5.922,63.5,2,61.237V56.708l3.921-2.265,3.922,2.265Z" transform="translate(-1.129 -30.718)" fill="#fff"/>
        <path id="패스_263" data-name="패스 263" d="M4.793,63.244a.87.87,0,0,1-.436-.117L.436,60.863A.872.872,0,0,1,0,60.108V55.58a.871.871,0,0,1,.436-.755l3.921-2.265a.872.872,0,0,1,.872,0L9.15,54.826a.871.871,0,0,1,.435.755v4.528a.872.872,0,0,1-.436.755L5.228,63.127a.87.87,0,0,1-.436.117m-3.05-3.639,3.05,1.761,3.05-1.761V56.083l-3.05-1.761-3.05,1.761Z" transform="translate(0 -29.59)" fill="#333"/>
        <path id="패스_264" data-name="패스 264" d="M4.793,61.873a.87.87,0,0,1-.436-.117L.436,59.492a.872.872,0,0,1,.872-1.51l3.485,2.012,3.486-2.012a.872.872,0,0,1,.872,1.51L5.228,61.756a.87.87,0,0,1-.436.117" transform="translate(0 -32.649)" fill="#333"/>
        <path id="패스_265" data-name="패스 265" d="M9.87,68.416A.872.872,0,0,1,9,67.544V63.912a.872.872,0,0,1,1.743,0v3.633a.872.872,0,0,1-.872.872" transform="translate(-5.077 -35.568)" fill="#333"/>
        <path id="패스_266" data-name="패스 266" d="M72.688,61.237,68.767,63.5l-3.922-2.264V56.708l3.922-2.265,3.922,2.265Z" transform="translate(-36.587 -30.718)" fill="#fff"/>
        <path id="패스_267" data-name="패스 267" d="M67.638,63.244a.871.871,0,0,1-.436-.117l-3.922-2.264a.872.872,0,0,1-.436-.755V55.58a.871.871,0,0,1,.436-.755L67.2,52.561a.872.872,0,0,1,.872,0L72,54.826a.871.871,0,0,1,.436.755v4.528a.872.872,0,0,1-.436.755l-3.922,2.264a.87.87,0,0,1-.436.117m-3.05-3.639,3.05,1.761,3.05-1.761V56.083l-3.05-1.761-3.05,1.761Z" transform="translate(-35.459 -29.59)" fill="#333"/>
        <path id="패스_268" data-name="패스 268" d="M67.638,61.873a.87.87,0,0,1-.436-.117l-3.922-2.264a.872.872,0,0,1,.872-1.51l3.486,2.012,3.486-2.012A.872.872,0,0,1,72,59.492l-3.922,2.264a.87.87,0,0,1-.436.117" transform="translate(-35.458 -32.649)" fill="#333"/>
        <path id="패스_269" data-name="패스 269" d="M72.716,68.416a.872.872,0,0,1-.872-.872V63.912a.872.872,0,0,1,1.743,0v3.633a.872.872,0,0,1-.872.872" transform="translate(-40.536 -35.568)" fill="#333"/>
      </g>
    </g>
  </g>
</svg>
