<?xml version="1.0" encoding="utf-8"?>
<!-- Generator: Adobe Illustrator 23.0.3, SVG Export Plug-In . SVG Version: 6.00 Build 0)  -->
<svg version="1.1" id="레이어_1" xmlns="http://www.w3.org/2000/svg" xmlns:xlink="http://www.w3.org/1999/xlink" x="0px"
	 y="0px" viewBox="0 0 23.3 23.3" style="enable-background:new 0 0 23.3 23.3;" xml:space="preserve">
<style type="text/css">
	.st0{fill:#D7D7D7;}
</style>
<g id="그룹_3" transform="translate(-152.791 -71.297)">
	<path id="패스_9" class="st0" d="M175.4,79.7L175.4,79.7l-1.8-1.5v-4.6c0-0.8-0.6-1.4-1.4-1.4h-1.6c-0.8,0-1.4,0.7-1.4,1.4v1.1
		l-3.6-2.9l0,0c-0.8-0.6-1.8-0.6-2.6,0h0l-9.4,7.6c-0.9,0.7-1.1,2.1-0.5,3.1c0.4,0.6,1,0.9,1.7,0.9c0.5,0,0.9-0.2,1.3-0.4l5.8-4.4
		c0.3-0.2,0.4-0.7,0.1-1c-0.2-0.3-0.7-0.4-1-0.1l-5.9,4.4l0,0c-0.1,0.1-0.3,0.1-0.4,0.1c-0.2,0-0.3-0.1-0.4-0.3
		c-0.2-0.3-0.2-0.8,0.1-1.1l0,0l9.4-7.6c0.2-0.2,0.5-0.2,0.7,0l4.8,3.9c0.3,0.3,0.8,0.2,1-0.1l0,0c0.1-0.1,0.2-0.3,0.2-0.5v-2.6h1.4
		v4.9c0,0,0,0.1,0,0.1c0,0.2,0.1,0.4,0.3,0.5l2,1.6c0.3,0.3,0.3,0.6,0.2,1c-0.1,0.3-0.4,0.5-0.8,0.5h-15.7c-0.8,0-1.4,0.7-1.4,1.5
		v9.5c0,0.8,0.6,1.4,1.4,1.5h13.4c0.8,0,1.4-0.7,1.4-1.5v-8c0-0.4-0.3-0.7-0.7-0.7c-0.4,0-0.7,0.3-0.7,0.7v8h-13.2v-9.4h15.5
		c0.9,0,1.8-0.5,2.2-1.4C176.3,81.4,176.1,80.4,175.4,79.7z"/>
</g>
</svg>
