<svg xmlns="http://www.w3.org/2000/svg" width="23.329" height="23.323" viewBox="0 0 23.329 23.323">
  <g id="그룹_3" data-name="그룹 3" transform="translate(-152.791 -71.297)">
    <g id="그룹_2" data-name="그룹 2" transform="translate(161.964 85.162)">
      <path id="패스_8" data-name="패스 8" d="M194.444,131.292v.113a1.47,1.47,0,0,1-.106.529l1.411.868a.425.425,0,0,1,.212.314.494.494,0,0,1-.085.363.517.517,0,0,1-.289.212.41.41,0,0,1-.353-.071L193.9,132.7a3.564,3.564,0,0,1-.6.6,3.678,3.678,0,0,1-.787.476.555.555,0,0,1-.378.056.429.429,0,0,1-.272-.2.5.5,0,0,1-.074-.342.367.367,0,0,1,.222-.286,3.439,3.439,0,0,0,.572-.363,2.9,2.9,0,0,0,.43-.413,1.89,1.89,0,0,0,.272-.42.943.943,0,0,0,.1-.392v-.113h-1.009a.35.35,0,0,1-.283-.117.447.447,0,0,1-.1-.3.476.476,0,0,1,.1-.307.342.342,0,0,1,.283-.124h3.063a.341.341,0,0,1,.282.124.476.476,0,0,1,.1.307.447.447,0,0,1-.1.3.349.349,0,0,1-.282.117Zm-.176,3.578h2.138v-.4a.385.385,0,0,1,.138-.3.7.7,0,0,1,.783,0,.385.385,0,0,1,.138.3v1.44a1.533,1.533,0,0,1-.081.529.694.694,0,0,1-.314.356,1.851,1.851,0,0,1-.656.2,9.694,9.694,0,0,1-2.216,0,1.85,1.85,0,0,1-.656-.2.692.692,0,0,1-.314-.356,1.521,1.521,0,0,1-.081-.529,8.261,8.261,0,0,1,.042-.843,5.692,5.692,0,0,1,.12-.738.4.4,0,0,1,.208-.282.632.632,0,0,1,.406-.028.548.548,0,0,1,.349.187.4.4,0,0,1,.06.335Zm1.037,1.376q.36,0,.579-.021a1.289,1.289,0,0,0,.335-.067.255.255,0,0,0,.152-.127.524.524,0,0,0,.035-.208v-.19h-2.2v.19a.524.524,0,0,0,.035.208.255.255,0,0,0,.152.127,1.289,1.289,0,0,0,.335.067Q194.945,136.246,195.3,136.246Zm2.159-2.872a.343.343,0,0,1-.141.29.766.766,0,0,1-.776,0,.343.343,0,0,1-.141-.29v-2.738a.342.342,0,0,1,.141-.29.765.765,0,0,1,.776,0,.343.343,0,0,1,.141.29Z" transform="translate(-191.789 -130.24)" fill="#2583c8"/>
    </g>
    <path id="패스_9" data-name="패스 9" d="M175.373,79.683l-.042-.037-1.783-1.452V73.562a1.408,1.408,0,0,0-1.385-1.427h-1.584a1.408,1.408,0,0,0-1.385,1.427v1.106l-3.569-2.924-.01-.008a2.079,2.079,0,0,0-2.553,0l-.006,0-9.421,7.6a2.289,2.289,0,0,0-.454,3.055,2.086,2.086,0,0,0,1.733.929,2.05,2.05,0,0,0,1.258-.435l5.848-4.4a.74.74,0,1,0-.891-1.182l-5.852,4.4-.008.006a.577.577,0,0,1-.446.12.628.628,0,0,1-.419-.276.8.8,0,0,1,.146-1.055l.011-.008,9.421-7.6a.6.6,0,0,1,.711,0l4.758,3.9a.741.741,0,0,0,1.042-.1l.013-.017a.736.736,0,0,0,.17-.472V73.616h1.392v4.866a.756.756,0,0,0,.012.132.739.739,0,0,0,.27.514l2.022,1.646a.98.98,0,0,1,.216.992.807.807,0,0,1-.773.458H158.162a1.423,1.423,0,0,0-1.369,1.468v9.461a1.423,1.423,0,0,0,1.369,1.468h13.4a1.423,1.423,0,0,0,1.369-1.468v-8a.74.74,0,1,0-1.481,0V93.14H158.273V83.7h15.54a2.251,2.251,0,0,0,2.16-1.421A2.444,2.444,0,0,0,175.373,79.683Z" fill="#d7d7d7"/>
  </g>
</svg>
