<svg xmlns="http://www.w3.org/2000/svg" width="265.343" height="101.378" viewBox="0 0 265.343 101.378">
  <g id="그룹_113" data-name="그룹 113" transform="translate(-163.684 -154.302)">
    <g id="그룹_111" data-name="그룹 111">
      <path id="패스_111" data-name="패스 111" d="M182.068,239.937c0,3.346,1.565,4.824,4.824,4.824,3.11,0,4.824-1.581,4.824-4.824V223.766c0-18.985,6.556-34.43,30.219-34.43,23.184,0,30.219,15.445,30.219,34.43v26a5,5,0,0,1-10.006,0v-26c0-14.591-5.853-24.423-20.213-24.423-14.725,0-20.213,9.729-20.213,24.423v15.811c0,.124-.027.239-.036.36h.036c0,10.023-6.653,14.831-14.83,14.831s-14.831-4.2-14.831-14.831V190.72a5,5,0,0,1,10.007,0v49.217Z" fill="#2583c8"/>
      <g id="그룹_110" data-name="그룹 110">
        <path id="패스_112" data-name="패스 112" d="M177.065,181.065a13.382,13.382,0,1,1,13.381-13.381A13.4,13.4,0,0,1,177.065,181.065Zm0-19.257a5.876,5.876,0,1,0,5.876,5.876A5.883,5.883,0,0,0,177.065,161.808Z" fill="#f99900"/>
      </g>
    </g>
    <g id="그룹_112" data-name="그룹 112">
      <path id="패스_113" data-name="패스 113" d="M288.525,190a34.64,34.64,0,0,1,10.232,1.344,25.446,25.446,0,0,1,7.32,3.494,3.671,3.671,0,0,1,1.713,2.644,4.788,4.788,0,0,1-.771,3.091,4.525,4.525,0,0,1-2.313,1.792,3.131,3.131,0,0,1-2.824-.537,24.391,24.391,0,0,0-5.994-2.688,27.329,27.329,0,0,0-7.534-.9q-8.22,0-12.372,5.6t-4.152,17.607v2.777q0,11.828,4.024,17.472t12.586,5.645a26.058,26.058,0,0,0,8.3-1.209,22.2,22.2,0,0,0,6.592-3.54,3.815,3.815,0,0,1,2.869-.761,3.69,3.69,0,0,1,2.526,1.747,4.865,4.865,0,0,1,.855,3.27,4.265,4.265,0,0,1-1.8,3,26.745,26.745,0,0,1-8.477,4.3,37.041,37.041,0,0,1-11.045,1.523q-12.158,0-18.622-7.527t-6.464-23.206v-4.211q0-15.678,6.55-23.207T288.525,190Z" fill="#5f5e5e"/>
      <path id="패스_114" data-name="패스 114" d="M327.31,191.034a4.065,4.065,0,0,1,1.841.94,8.137,8.137,0,0,1,1.584,2.061,26.529,26.529,0,0,1,1.627,3.584l15.24,36.019,14.811-35.93a22.358,22.358,0,0,1,1.541-3.494,8.36,8.36,0,0,1,1.627-2.105,4.552,4.552,0,0,1,1.884-1.031,9.937,9.937,0,0,1,2.482-.268h1.286q3.165,0,4.409,1.388t1.241,4.973v54.387a3.12,3.12,0,0,1-1.2,2.733,4.757,4.757,0,0,1-2.826.852,4.948,4.948,0,0,1-2.869-.852,3.074,3.074,0,0,1-1.241-2.733V199.59q-.943,3.227-1.67,5.466t-1.669,4.48l-13.185,31.181a6.646,6.646,0,0,1-1.884,2.912,4.5,4.5,0,0,1-2.739.761,5.162,5.162,0,0,1-3.083-.806,6.6,6.6,0,0,1-1.969-3.046l-13.014-31q-.943-2.149-1.756-4.435t-1.754-5.511v51.968a3.077,3.077,0,0,1-1.242,2.733,4.949,4.949,0,0,1-2.868.852,4.806,4.806,0,0,1-2.783-.852,3.074,3.074,0,0,1-1.241-2.733V197.171q0-3.582,1.284-4.973t4.452-1.388h1.284A11.392,11.392,0,0,1,327.31,191.034Z" fill="#5f5e5e"/>
      <path id="패스_115" data-name="패스 115" d="M407.877,190q9.76,0,16.011,3.674a3.758,3.758,0,0,1,1.884,2.374,3.979,3.979,0,0,1-.428,3.092,3.8,3.8,0,0,1-2.141,2.015,3.6,3.6,0,0,1-2.74-.313,23.517,23.517,0,0,0-5.693-2.106,30.443,30.443,0,0,0-6.721-.672,18.4,18.4,0,0,0-5.352.717,12.356,12.356,0,0,0-3.981,1.971,9.219,9.219,0,0,0-2.525,2.912,7.309,7.309,0,0,0-.9,3.54v.9a9.111,9.111,0,0,0,.6,3.449,6.607,6.607,0,0,0,2.14,2.688,14.938,14.938,0,0,0,4.153,2.15,55.421,55.421,0,0,0,6.636,1.837,56.943,56.943,0,0,1,9.5,2.867,21.405,21.405,0,0,1,6.251,3.808A12.562,12.562,0,0,1,428,229.965a19.01,19.01,0,0,1,1.029,6.451v1.254q0,8.424-5.652,13.216t-16.267,4.794a36.576,36.576,0,0,1-10.4-1.478,29.782,29.782,0,0,1-8.519-3.9,3.545,3.545,0,0,1-1.841-2.643,4.749,4.749,0,0,1,.727-3.181,4.115,4.115,0,0,1,2.313-1.926,3.255,3.255,0,0,1,2.825.582,29.945,29.945,0,0,0,7.107,3.27,27.264,27.264,0,0,0,8.218,1.21q6.423,0,9.676-2.688a8.372,8.372,0,0,0,3.253-6.72v-.986a10.18,10.18,0,0,0-.684-3.9,7.138,7.138,0,0,0-2.312-2.912,15.5,15.5,0,0,0-4.281-2.195,60,60,0,0,0-6.593-1.837,62.507,62.507,0,0,1-8.775-2.464,20.619,20.619,0,0,1-6.165-3.45,12.792,12.792,0,0,1-3.639-4.973,18.709,18.709,0,0,1-1.2-7.123V207.3a16.7,16.7,0,0,1,1.413-6.855,15.571,15.571,0,0,1,4.109-5.51,19.252,19.252,0,0,1,6.636-3.629A28.386,28.386,0,0,1,407.877,190Z" fill="#5f5e5e"/>
    </g>
  </g>
</svg>
