<?xml version="1.0" encoding="utf-8"?>
<!-- Generator: Adobe Illustrator 23.0.3, SVG Export Plug-In . SVG Version: 6.00 Build 0)  -->
<svg version="1.1" id="레이어_1" xmlns="http://www.w3.org/2000/svg" xmlns:xlink="http://www.w3.org/1999/xlink" x="0px"
	 y="0px" viewBox="0 0 887.1 312.8" style="enable-background:new 0 0 887.1 312.8;" xml:space="preserve">
<style type="text/css">
	.st0{fill:none;stroke:#707070;stroke-dasharray:3;}
	.st1{fill:#2583C8;}
	.st2{fill:#F99900;}
	.st3{fill:#244F00;}
	.st4{fill:#333333;}
	.st5{fill:none;}
	.st6{enable-background:new    ;}
	.st7{fill:#FFFFFF;}
</style>
<g id="그룹_106" transform="translate(-259.871 -660)">
	<line id="선_6" class="st0" x1="775.5" y1="856.5" x2="700.5" y2="709.5"/>
	<line id="선_1" class="st0" x1="700.5" y1="709.5" x2="289.5" y2="856.5"/>
	<line id="선_2" class="st0" x1="489.5" y1="856.5" x2="700.5" y2="709.5"/>
	<line id="선_3" class="st0" x1="617.5" y1="856.5" x2="700.5" y2="709.5"/>
	<line id="선_4" class="st0" x1="910.5" y1="856.5" x2="700.5" y2="709.5"/>
	<line id="선_5" class="st0" x1="1110.5" y1="856.5" x2="700.5" y2="709.5"/>
	<path id="사각형_108" class="st1" d="M461,660h208c27.6,0,50,22.4,50,50l0,0c0,27.6-22.4,50-50,50H461c-27.6,0-50-22.4-50-50
		l0,0C411,682.4,433.4,660,461,660z"/>
	<path id="사각형_109" class="st2" d="M732,660h208c27.6,0,50,22.4,50,50l0,0c0,27.6-22.4,50-50,50H732c-27.6,0-50-22.4-50-50
		l0,0C682,682.4,704.4,660,732,660z"/>
	<path id="교차_1" class="st3" d="M682,710c0-15.1,6.8-29.3,18.5-38.8c11.7,9.5,18.5,23.8,18.5,38.8c0,15.1-6.8,29.3-18.5,38.8
		C688.8,739.3,682,725.1,682,710z"/>
	<path id="패스_90" class="st4" d="M262,954.7v15.9h-2.2v-15.9H262z M268.2,954.7l6.2,10.7c0.2,0.3,0.3,0.6,0.5,1
		c0.2,0.4,0.4,0.8,0.6,1.3v-13h2v15.9H275l-6.2-10.6c-0.2-0.3-0.3-0.6-0.5-1s-0.4-0.8-0.6-1.3v13h-2v-15.9H268.2z M281.1,954.7h5.7
		c0.8,0,1.6,0.1,2.3,0.3c0.6,0.2,1.2,0.5,1.6,0.9c0.4,0.4,0.8,0.9,1,1.4c0.2,0.6,0.3,1.2,0.3,1.8v0.5c0,0.6-0.1,1.2-0.3,1.8
		c-0.2,0.6-0.6,1.1-1,1.5c-0.5,0.4-1,0.8-1.6,1c-0.7,0.3-1.5,0.4-2.3,0.4h-3.5v6.2h-2.2V954.7z M283.3,956.6v5.9h3.1
		c2.3,0,3.4-0.9,3.4-2.8v-0.4c0.1-0.8-0.2-1.5-0.8-2c-0.7-0.5-1.5-0.7-2.4-0.6H283.3z M300.6,970.8c-0.9,0-1.8-0.1-2.6-0.4
		c-0.8-0.3-1.5-0.7-2-1.3c-0.6-0.6-1-1.4-1.3-2.2c-0.3-1-0.5-2-0.5-3.1v-2.4c0-1,0.1-2.1,0.5-3c0.3-0.8,0.7-1.6,1.3-2.2
		c0.6-0.6,1.3-1,2-1.3c0.8-0.3,1.7-0.4,2.6-0.4c0.9,0,1.8,0.1,2.6,0.4c0.8,0.3,1.5,0.7,2,1.3c0.6,0.6,1,1.4,1.3,2.2
		c0.3,1,0.5,2,0.5,3v2.4c0,1-0.1,2.1-0.5,3.1c-0.3,0.8-0.7,1.6-1.3,2.2c-0.6,0.6-1.3,1-2,1.3C302.4,970.7,301.5,970.8,300.6,970.8z
		 M300.6,956.4c-0.6,0-1.2,0.1-1.7,0.3c-0.5,0.2-1,0.5-1.3,0.9c-0.4,0.5-0.7,1-0.9,1.6c-0.2,0.8-0.3,1.6-0.3,2.4v1.9
		c0,0.8,0.1,1.6,0.3,2.4c0.2,0.6,0.5,1.2,0.9,1.6c0.4,0.4,0.8,0.7,1.3,0.9c0.5,0.2,1.1,0.3,1.7,0.3c0.6,0,1.2-0.1,1.7-0.3
		c0.5-0.2,1-0.5,1.3-0.9c0.4-0.5,0.7-1,0.9-1.6c0.2-0.8,0.3-1.6,0.3-2.4v-1.9c0-0.8-0.1-1.6-0.3-2.4c-0.2-0.6-0.5-1.2-0.9-1.6
		c-0.4-0.4-0.8-0.7-1.3-0.9C301.8,956.5,301.2,956.4,300.6,956.4z M315.2,968.8c0.9,0.1,1.8-0.2,2.5-0.7c0.5-0.4,0.8-1,0.8-1.6v-0.4
		c0-0.3-0.1-0.6-0.2-0.9c-0.1-0.3-0.3-0.5-0.6-0.7c-0.3-0.2-0.7-0.4-1.1-0.6c-0.5-0.2-1.1-0.3-1.6-0.5c-0.7-0.2-1.4-0.3-2.1-0.6
		c-0.6-0.2-1.2-0.5-1.7-0.8c-0.5-0.3-0.8-0.7-1.1-1.2c-0.3-0.6-0.4-1.2-0.4-1.8v-0.4c0-0.5,0.1-1.1,0.3-1.6c0.2-0.5,0.6-1,1-1.4
		c0.5-0.4,1.1-0.7,1.7-1c0.8-0.3,1.6-0.4,2.4-0.4c0.9,0,1.8,0.1,2.6,0.4c0.8,0.2,1.5,0.6,2.2,1l-1,1.7c-0.5-0.4-1.1-0.7-1.8-0.9
		c-0.7-0.2-1.3-0.3-2-0.3c-0.8,0-1.7,0.2-2.4,0.7c-0.5,0.4-0.9,1-0.9,1.6v0.4c0,0.3,0.1,0.7,0.2,0.9c0.2,0.3,0.4,0.5,0.7,0.7
		c0.4,0.2,0.7,0.4,1.1,0.5c0.5,0.1,1,0.3,1.6,0.4c0.8,0.2,1.7,0.4,2.5,0.8c0.6,0.2,1.1,0.6,1.6,1c0.4,0.3,0.7,0.8,0.8,1.2
		c0.2,0.5,0.3,1,0.3,1.5v0.4c0,0.7-0.1,1.3-0.4,1.9c-0.3,0.5-0.7,1-1.2,1.4c-0.5,0.4-1.1,0.7-1.8,0.8c-0.7,0.2-1.5,0.3-2.3,0.3
		c-1.1,0-2.1-0.2-3.1-0.5c-0.9-0.3-1.7-0.8-2.4-1.3l1.1-1.8c0.3,0.2,0.7,0.5,1,0.6c0.4,0.2,0.8,0.4,1.2,0.5c0.4,0.2,0.8,0.3,1.2,0.4
		C314.5,968.8,314.9,968.8,315.2,968.8z"/>
	<path id="패스_92" class="st4" d="M572.9,954.7h5.6c3.4,0,5,1.3,5,3.9v0.5c0,0.3,0,0.7-0.1,1c-0.1,0.3-0.2,0.6-0.4,0.9
		c-0.2,0.3-0.5,0.5-0.8,0.7c-0.4,0.2-0.8,0.4-1.2,0.5c0.9,0.1,1.7,0.5,2.4,1.1c0.6,0.7,1,1.6,0.9,2.5v0.6c0.1,1.2-0.4,2.3-1.2,3.1
		c-1.1,0.8-2.5,1.2-3.8,1.1h-6.3V954.7z M575.1,968.7h3.3c0.5,0,1.1,0,1.6-0.1c0.4,0,0.8-0.2,1.1-0.4c0.3-0.2,0.5-0.4,0.7-0.7
		c0.2-0.4,0.2-0.8,0.2-1.2v-0.5c0-0.4-0.1-0.8-0.2-1.2c-0.1-0.3-0.4-0.6-0.7-0.8c-0.4-0.2-0.8-0.4-1.3-0.5c-0.7-0.1-1.3-0.2-2-0.1
		h-2.8L575.1,968.7z M575.1,956.6v4.8h2.8c0.5,0,1,0,1.5-0.1c0.4,0,0.8-0.2,1.1-0.4c0.3-0.2,0.5-0.4,0.7-0.7
		c0.2-0.4,0.2-0.8,0.2-1.2v-0.4c0-0.4-0.1-0.8-0.2-1.1c-0.1-0.3-0.4-0.5-0.7-0.6c-0.4-0.2-0.7-0.2-1.1-0.3c-0.5,0-1-0.1-1.6-0.1
		L575.1,956.6z M589,954.7v15.9h-2.2v-15.9H589z M604.3,969.4c-0.8,0.5-1.6,0.9-2.5,1.1c-1,0.2-1.9,0.4-2.9,0.4
		c-1,0-1.9-0.1-2.8-0.4c-0.8-0.3-1.5-0.7-2.1-1.3c-0.6-0.6-1.1-1.4-1.3-2.2c-0.3-1-0.5-2-0.5-3.1v-2.4c0-1,0.1-2.1,0.5-3
		c0.3-0.8,0.7-1.6,1.3-2.2c0.6-0.6,1.3-1,2.1-1.3c0.9-0.3,1.8-0.5,2.7-0.4c1,0,1.9,0.1,2.8,0.4c0.9,0.3,1.7,0.7,2.4,1.3l-1.1,1.8
		c-0.6-0.5-1.3-0.9-2-1.1c-0.7-0.2-1.4-0.3-2.1-0.3c-1.2-0.1-2.4,0.4-3.2,1.3c-0.9,1.1-1.3,2.6-1.2,4v1.8c-0.1,1.5,0.3,2.9,1.3,4
		c0.9,0.9,2.1,1.3,3.4,1.3c0.6,0,1.1-0.1,1.7-0.2c0.5-0.1,1-0.3,1.5-0.5v-4.5h-3.5v-1.9h5.7L604.3,969.4z M612.7,954.7
		c1.8-0.1,3.6,0.5,5,1.7c1.2,1.4,1.8,3.2,1.7,5v2.3c0.1,1.8-0.5,3.6-1.6,5c-1.4,1.3-3.2,1.9-5,1.7h-5.3v-15.9H612.7z M609.6,968.6
		h2.9c0.6,0,1.3-0.1,1.9-0.3c0.5-0.2,1.1-0.5,1.5-0.9c0.4-0.4,0.7-1,0.9-1.5c0.2-0.7,0.3-1.5,0.3-2.3v-2c0-0.8-0.1-1.5-0.3-2.3
		c-0.2-0.6-0.5-1.1-0.9-1.6c-0.4-0.4-0.9-0.7-1.5-0.9c-0.6-0.2-1.3-0.3-1.9-0.3h-2.9V968.6z M635.1,970.6h-2.3l-1.7-4.7h-6.1
		l-1.7,4.7h-2.2l5.9-15.9h2.1L635.1,970.6z M625.7,964h4.8l-1.3-3.7l-0.3-0.8c-0.1-0.2-0.2-0.5-0.2-0.7l-0.2-0.7
		c-0.1-0.2-0.2-0.6-0.3-0.9c-0.1,0.4-0.2,0.7-0.3,0.9c-0.1,0.3-0.1,0.5-0.2,0.7l-0.2,0.7c-0.1,0.2-0.2,0.5-0.3,0.8L625.7,964z
		 M640.7,970.6v-14h-4.8v-1.9h11.9v1.9h-4.8v14H640.7z M662.5,970.6h-2.3l-1.7-4.7h-6.1l-1.7,4.7h-2.2l5.9-15.9h2.1L662.5,970.6z
		 M653.1,964h4.8l-1.3-3.7l-0.3-0.8c-0.1-0.2-0.2-0.5-0.2-0.7l-0.2-0.7c-0.1-0.2-0.2-0.6-0.3-0.9c-0.1,0.4-0.2,0.7-0.3,0.9
		c-0.1,0.3-0.1,0.5-0.2,0.7l-0.2,0.7c-0.1,0.2-0.2,0.5-0.3,0.8L653.1,964z"/>
	<path id="패스_93" class="st4" d="M709,954.7h5.6c3.4,0,5,1.3,5,3.9v0.5c0,0.3,0,0.7-0.1,1c-0.1,0.3-0.2,0.6-0.4,0.9
		c-0.2,0.3-0.5,0.5-0.8,0.7c-0.4,0.2-0.8,0.4-1.2,0.5c0.9,0.1,1.7,0.5,2.4,1.1c0.6,0.7,1,1.6,0.9,2.5v0.6c0.1,1.2-0.4,2.3-1.2,3.1
		c-1.1,0.8-2.5,1.2-3.8,1.1H709V954.7z M711.2,968.7h3.3c0.5,0,1.1,0,1.6-0.1c0.4,0,0.8-0.2,1.1-0.4c0.3-0.2,0.5-0.4,0.7-0.7
		c0.2-0.4,0.2-0.8,0.2-1.2v-0.5c0-0.4-0.1-0.8-0.2-1.2c-0.1-0.3-0.4-0.6-0.7-0.8c-0.4-0.2-0.8-0.4-1.3-0.5c-0.7-0.1-1.3-0.2-2-0.1
		h-2.8L711.2,968.7z M711.2,956.6v4.8h2.8c0.5,0,1,0,1.5-0.1c0.4,0,0.8-0.2,1.1-0.4c0.3-0.2,0.5-0.4,0.7-0.7
		c0.2-0.4,0.2-0.8,0.2-1.2v-0.4c0-0.4-0.1-0.8-0.2-1.1c-0.1-0.3-0.4-0.5-0.7-0.6c-0.4-0.2-0.7-0.2-1.1-0.3c-0.5,0-1-0.1-1.6-0.1
		L711.2,956.6z M725.1,954.7v14h7.6v1.9H723v-15.9H725.1z M740.9,970.8c-0.9,0-1.8-0.1-2.6-0.4c-0.8-0.3-1.5-0.7-2-1.3
		c-0.6-0.6-1-1.4-1.3-2.2c-0.3-1-0.5-2-0.5-3.1v-2.4c0-1,0.1-2.1,0.5-3c0.3-0.8,0.7-1.6,1.3-2.2c0.6-0.6,1.3-1,2-1.3
		c0.8-0.3,1.7-0.4,2.6-0.4c0.9,0,1.8,0.1,2.6,0.4c0.8,0.3,1.5,0.7,2,1.3c0.6,0.6,1,1.4,1.3,2.2c0.3,1,0.5,2,0.5,3v2.4
		c0,1-0.1,2.1-0.5,3.1c-0.3,0.8-0.7,1.6-1.3,2.2c-0.6,0.6-1.3,1-2,1.3C742.7,970.7,741.8,970.8,740.9,970.8L740.9,970.8z
		 M740.9,956.4c-0.6,0-1.2,0.1-1.7,0.3c-0.5,0.2-1,0.5-1.3,0.9c-0.4,0.5-0.7,1-0.9,1.6c-0.2,0.8-0.3,1.6-0.3,2.4v1.9
		c0,0.8,0.1,1.6,0.3,2.4c0.2,0.6,0.5,1.2,0.9,1.6c0.4,0.4,0.8,0.7,1.3,0.9c0.5,0.2,1.1,0.3,1.7,0.3c0.6,0,1.2-0.1,1.7-0.3
		c0.5-0.2,1-0.5,1.3-0.9c0.4-0.5,0.7-1,0.9-1.6c0.2-0.8,0.3-1.6,0.3-2.4v-1.9c0-0.8-0.1-1.6-0.3-2.4c-0.2-0.6-0.5-1.2-0.9-1.6
		c-0.4-0.4-0.8-0.7-1.3-0.9C742.1,956.5,741.5,956.4,740.9,956.4L740.9,956.4z M762,968.8c-0.7,0.7-1.6,1.3-2.6,1.6
		c-1,0.3-2,0.4-3,0.4c-0.9,0-1.8-0.1-2.6-0.4c-0.8-0.3-1.4-0.7-2-1.3c-0.6-0.6-1-1.4-1.3-2.2c-0.3-1-0.5-2-0.5-3.1v-2.4
		c0-1,0.1-2.1,0.5-3c0.3-0.8,0.7-1.6,1.3-2.2c0.6-0.6,1.3-1,2-1.3c0.8-0.3,1.7-0.5,2.6-0.4c1,0,1.9,0.1,2.9,0.4
		c0.9,0.3,1.7,0.7,2.4,1.3l-1.1,1.8c-0.6-0.5-1.3-0.9-2.1-1.2c-0.7-0.2-1.4-0.3-2.1-0.3c-0.6,0-1.1,0.1-1.7,0.3
		c-0.5,0.2-1,0.5-1.3,0.9c-0.4,0.5-0.7,1-0.9,1.6c-0.2,0.8-0.3,1.6-0.3,2.4v1.8c0,0.8,0.1,1.6,0.3,2.4c0.2,0.6,0.5,1.2,0.9,1.6
		c0.4,0.4,0.8,0.7,1.3,0.9c0.5,0.2,1.1,0.3,1.7,0.3c0.8,0,1.5-0.1,2.3-0.4c0.8-0.3,1.5-0.7,2.1-1.3L762,968.8z M770.1,961.6l6.8,9
		h-2.8l-5.5-7.4l-1.7,1.9v5.5h-2.2v-15.9h2.2v7.6l7-7.6h2.7L770.1,961.6z M790.6,968.8c-0.7,0.7-1.6,1.3-2.6,1.6c-1,0.3-2,0.4-3,0.4
		c-0.9,0-1.8-0.1-2.6-0.4c-0.8-0.3-1.4-0.7-2-1.3c-0.6-0.6-1-1.4-1.3-2.2c-0.3-1-0.5-2-0.5-3.1v-2.4c0-1,0.1-2.1,0.5-3
		c0.3-0.8,0.7-1.6,1.3-2.2c0.6-0.6,1.3-1,2-1.3c0.8-0.3,1.7-0.5,2.6-0.4c1,0,1.9,0.1,2.9,0.4c0.9,0.3,1.6,0.7,2.4,1.3l-1.1,1.8
		c-0.6-0.5-1.3-0.9-2.1-1.2c-0.7-0.2-1.4-0.3-2.1-0.3c-0.6,0-1.1,0.1-1.7,0.3c-0.5,0.2-1,0.5-1.3,0.9c-0.4,0.5-0.7,1-0.9,1.6
		c-0.2,0.8-0.3,1.6-0.3,2.4v1.8c0,0.8,0.1,1.6,0.3,2.4c0.2,0.6,0.5,1.2,0.9,1.6c0.4,0.4,0.8,0.7,1.3,0.9c0.5,0.2,1.1,0.3,1.7,0.3
		c0.8,0,1.5-0.1,2.3-0.4c0.8-0.3,1.5-0.7,2.1-1.3L790.6,968.8z M805,954.7v15.9h-2.2v-7.3h-7.4v7.3h-2.2v-15.9h2.2v6.6h7.4v-6.6H805
		z M821.2,970.6h-2.3l-1.7-4.7h-6.1l-1.7,4.7h-2.2l5.9-15.9h2.1L821.2,970.6z M811.8,964h4.8l-1.3-3.7l-0.3-0.8
		c-0.1-0.2-0.2-0.5-0.2-0.7l-0.2-0.7c-0.1-0.2-0.2-0.6-0.3-0.9c-0.1,0.4-0.2,0.7-0.3,0.9c-0.1,0.3-0.1,0.5-0.2,0.7l-0.2,0.7
		c-0.1,0.2-0.2,0.5-0.3,0.8L811.8,964z M825.6,954.7v15.9h-2.2v-15.9H825.6z M831.7,954.7l6.2,10.7c0.2,0.3,0.3,0.6,0.5,1
		c0.2,0.4,0.4,0.8,0.6,1.3v-13h2v15.9h-2.5l-6.2-10.6c-0.2-0.3-0.3-0.6-0.5-1s-0.4-0.8-0.6-1.3v13h-2v-15.9H831.7z"/>
	<path id="패스_94" class="st4" d="M879.9,968.8c0.9,0.1,1.8-0.2,2.5-0.7c0.5-0.4,0.8-1,0.8-1.6v-0.4c0-0.3-0.1-0.6-0.2-0.9
		c-0.1-0.3-0.3-0.5-0.6-0.7c-0.3-0.2-0.7-0.4-1.1-0.6c-0.5-0.2-1.1-0.3-1.6-0.5c-0.7-0.2-1.4-0.3-2.1-0.6c-0.6-0.2-1.2-0.5-1.7-0.8
		c-0.5-0.3-0.8-0.7-1.1-1.2c-0.3-0.6-0.4-1.2-0.4-1.8v-0.4c0-0.5,0.1-1.1,0.3-1.6c0.2-0.5,0.6-1,1-1.4c0.5-0.4,1.1-0.7,1.7-1
		c0.8-0.3,1.6-0.4,2.4-0.4c0.9,0,1.8,0.1,2.6,0.4c0.8,0.2,1.5,0.6,2.2,1l-1,1.7c-0.5-0.4-1.1-0.7-1.8-0.9c-0.7-0.2-1.3-0.3-2-0.3
		c-0.8,0-1.7,0.2-2.4,0.7c-0.5,0.4-0.9,1-0.9,1.6v0.4c0,0.3,0.1,0.7,0.2,0.9c0.2,0.3,0.4,0.5,0.7,0.7c0.4,0.2,0.7,0.4,1.1,0.5
		c0.5,0.1,1,0.3,1.6,0.4c0.8,0.2,1.7,0.4,2.5,0.8c0.6,0.2,1.1,0.6,1.6,1c0.4,0.3,0.7,0.8,0.8,1.2c0.2,0.5,0.3,1,0.3,1.5v0.4
		c0,0.7-0.1,1.3-0.4,1.9c-0.3,0.5-0.7,1-1.2,1.4c-0.5,0.4-1.1,0.7-1.8,0.8c-0.7,0.2-1.5,0.3-2.3,0.3c-1.1,0-2.1-0.2-3.1-0.5
		c-0.9-0.3-1.7-0.8-2.4-1.3l1.1-1.8c0.3,0.2,0.7,0.5,1,0.6c0.4,0.2,0.8,0.4,1.2,0.5c0.4,0.2,0.8,0.3,1.2,0.4
		C879.1,968.8,879.5,968.8,879.9,968.8z M891.2,959.1c-0.1-0.2-0.1-0.3-0.2-0.5s-0.1-0.3-0.2-0.5c-0.1-0.2-0.1-0.3-0.2-0.5
		c-0.1-0.2-0.2-0.4-0.2-0.7v13.6h-2.1v-15.9h3.2l4.4,10.4l4.3-10.4h3.2v15.9h-2.1v-13.6c-0.1,0.3-0.1,0.5-0.2,0.7
		c-0.1,0.2-0.1,0.4-0.2,0.5s-0.1,0.3-0.2,0.5s-0.1,0.3-0.2,0.5l-3.8,8.8H895L891.2,959.1z M919.6,970.6h-2.3l-1.7-4.7h-6.1l-1.7,4.7
		h-2.2l5.9-15.9h2.1L919.6,970.6z M910.2,964h4.8l-1.3-3.7l-0.3-0.8c-0.1-0.2-0.2-0.5-0.2-0.7l-0.2-0.7c-0.1-0.2-0.2-0.6-0.3-0.9
		c-0.1,0.4-0.2,0.7-0.3,0.9c-0.1,0.3-0.1,0.5-0.2,0.7l-0.2,0.7c-0.1,0.2-0.2,0.5-0.3,0.8L910.2,964z M924,970.6h-2.2v-15.9h5.7
		c0.7,0,1.5,0.1,2.2,0.3c0.6,0.2,1.1,0.5,1.6,0.9c0.4,0.4,0.8,0.8,1,1.4c0.2,0.5,0.3,1.1,0.3,1.7v0.6c0,0.8-0.2,1.7-0.7,2.4
		c-0.5,0.7-1.2,1.2-2,1.5l3.1,7h-2.4l-2.9-6.6H924V970.6z M924,962.1h3c0.9,0.1,1.9-0.2,2.6-0.7c0.5-0.5,0.8-1.2,0.8-1.9v-0.4
		c0-0.7-0.2-1.4-0.8-1.8c-0.7-0.5-1.6-0.8-2.4-0.7H924L924,962.1z M939.4,970.6v-14h-4.8v-1.9h11.9v1.9h-4.8v14H939.4z M958.4,954.7
		v1.9h-7.6v5.3h7.2v1.9h-7.2v6.8h-2.2v-15.9H958.4z M973.7,970.6h-2.3l-1.7-4.7h-6.1l-1.7,4.7h-2.2l5.9-15.9h2.1L973.7,970.6z
		 M964.3,964h4.8l-1.3-3.7l-0.3-0.8c-0.1-0.2-0.2-0.5-0.2-0.7l-0.2-0.7c-0.1-0.2-0.2-0.6-0.3-0.9c-0.1,0.4-0.2,0.7-0.3,0.9
		c-0.1,0.3-0.1,0.5-0.2,0.7l-0.2,0.7c-0.1,0.2-0.2,0.5-0.3,0.8L964.3,964z M978.1,970.6h-2.2v-15.9h5.7c0.7,0,1.5,0.1,2.2,0.3
		c0.6,0.2,1.1,0.5,1.6,0.9c0.4,0.4,0.8,0.8,1,1.4c0.2,0.5,0.3,1.1,0.3,1.7v0.6c0,0.8-0.2,1.7-0.7,2.4c-0.5,0.7-1.2,1.2-2,1.5l3.1,7
		h-2.4L982,964h-3.9V970.6z M978.1,962.1h3c0.9,0.1,1.9-0.2,2.6-0.7c0.5-0.5,0.8-1.2,0.8-1.9v-0.4c0-0.7-0.2-1.4-0.8-1.8
		c-0.7-0.5-1.6-0.8-2.4-0.7h-3.3V962.1z M993,959.1c-0.1-0.2-0.1-0.3-0.2-0.5s-0.1-0.3-0.2-0.5c-0.1-0.2-0.1-0.3-0.2-0.5
		c-0.1-0.2-0.2-0.4-0.2-0.7v13.6h-2.1v-15.9h3.2l4.4,10.4l4.3-10.4h3.2v15.9h-2.1v-13.6c-0.1,0.3-0.1,0.5-0.2,0.7s-0.1,0.4-0.2,0.5
		s-0.1,0.3-0.2,0.5s-0.1,0.3-0.2,0.5l-3.8,8.8h-1.8L993,959.1z"/>
	<path id="패스_95" class="st4" d="M1092.1,954.7l-4.4,15.9h-2.2l-3.5-13l-3.6,13h-2.2l-4.3-15.9h2.3l3.3,13l3.5-13h2.1l3.5,13
		l3.3-13H1092.1z M1104.4,954.7v1.9h-7.7v4.9h7.2v1.9h-7.2v5.3h7.9v1.9h-10v-15.9H1104.4z M1107.6,954.7h5.6c3.4,0,5,1.3,5,3.9v0.5
		c0,0.3,0,0.7-0.1,1c-0.1,0.3-0.2,0.6-0.4,0.9c-0.2,0.3-0.5,0.5-0.8,0.7c-0.4,0.2-0.8,0.4-1.2,0.5c0.9,0.1,1.7,0.5,2.4,1.1
		c0.6,0.7,1,1.6,0.9,2.5v0.6c0.1,1.2-0.4,2.3-1.2,3.1c-1.1,0.8-2.5,1.2-3.8,1.1h-6.3L1107.6,954.7z M1109.8,968.7h3.3
		c0.5,0,1.1,0,1.6-0.1c0.4,0,0.8-0.2,1.1-0.4c0.3-0.2,0.5-0.4,0.7-0.7c0.2-0.4,0.2-0.8,0.2-1.2v-0.5c0-0.4-0.1-0.8-0.2-1.2
		c-0.1-0.3-0.4-0.6-0.7-0.8c-0.4-0.2-0.8-0.4-1.3-0.5c-0.7-0.1-1.3-0.2-2-0.1h-2.8V968.7z M1109.8,956.6v4.8h2.8c0.5,0,1,0,1.5-0.1
		c0.4,0,0.8-0.2,1.1-0.4c0.3-0.2,0.5-0.4,0.7-0.7c0.2-0.4,0.2-0.8,0.2-1.2v-0.4c0-0.4-0.1-0.8-0.2-1.1c-0.1-0.3-0.4-0.5-0.7-0.6
		c-0.4-0.2-0.7-0.2-1.1-0.3c-0.5,0-1-0.1-1.6-0.1L1109.8,956.6z M1129,953.1l-6.7,19.7h-2.1l6.7-19.7H1129z M1136.3,968.8
		c0.9,0.1,1.8-0.2,2.5-0.7c0.5-0.4,0.8-1,0.8-1.6v-0.4c0-0.3-0.1-0.6-0.2-0.9c-0.1-0.3-0.3-0.5-0.6-0.7c-0.3-0.2-0.7-0.4-1.1-0.6
		c-0.5-0.2-1.1-0.3-1.6-0.5c-0.7-0.2-1.4-0.3-2.1-0.6c-0.6-0.2-1.2-0.5-1.7-0.8c-0.5-0.3-0.8-0.7-1.1-1.2c-0.3-0.6-0.4-1.2-0.4-1.8
		v-0.4c0-0.5,0.1-1.1,0.3-1.6c0.2-0.5,0.6-1,1-1.4c0.5-0.4,1.1-0.7,1.7-1c0.8-0.3,1.6-0.4,2.4-0.4c0.9,0,1.8,0.1,2.7,0.4
		c0.8,0.2,1.5,0.6,2.2,1l-1,1.7c-0.5-0.4-1.1-0.7-1.8-0.9c-0.7-0.2-1.3-0.3-2-0.3c-0.8,0-1.7,0.2-2.4,0.7c-0.5,0.4-0.9,1-0.9,1.6
		v0.4c0,0.3,0.1,0.7,0.2,0.9c0.2,0.3,0.4,0.5,0.7,0.7c0.4,0.2,0.7,0.4,1.1,0.5c0.5,0.1,1,0.3,1.6,0.4c0.8,0.2,1.7,0.4,2.5,0.8
		c0.6,0.2,1.1,0.6,1.6,1c0.4,0.3,0.7,0.8,0.8,1.2c0.2,0.5,0.3,1,0.3,1.5v0.4c0,0.7-0.1,1.3-0.4,1.9c-0.3,0.5-0.7,1-1.2,1.4
		c-0.5,0.4-1.1,0.7-1.8,0.8c-0.7,0.2-1.5,0.3-2.3,0.3c-1.1,0-2.1-0.2-3.1-0.5c-0.9-0.3-1.7-0.8-2.4-1.3l1.1-1.8
		c0.3,0.2,0.7,0.5,1,0.6c0.4,0.2,0.8,0.4,1.2,0.5c0.4,0.2,0.8,0.3,1.2,0.4C1135.5,968.8,1135.9,968.8,1136.3,968.8L1136.3,968.8z
		 M1147,954.7v15.9h-2.2v-15.9H1147z"/>
	<path id="bxs-calculator" d="M271.9,929h35.4c3.3,0,5.9-2.6,5.9-5.9c0,0,0,0,0,0v-47.2c0-3.3-2.6-5.9-5.9-5.9l0,0h-35.4
		c-3.3,0-5.9,2.6-5.9,5.9v47.2C266,926.4,268.6,929,271.9,929L271.9,929z M280.8,920.2h-5.9v-5.9h5.9V920.2z M280.8,908.3h-5.9v-5.9
		h5.9V908.3z M280.8,896.5h-5.9v-5.9h5.9V896.5z M292.5,920.2h-5.9v-5.9h5.9V920.2z M292.5,908.3h-5.9v-5.9h5.9V908.3z M292.5,896.5
		h-5.9v-5.9h5.9V896.5z M304.4,920.2h-5.9v-17.7h5.9V920.2z M304.4,896.5h-5.9v-5.9h5.9V896.5z M271.9,875.9h35.4v8.8h-35.4V875.9z"
		/>
	<path id="bx-data_1_" d="M640.2,914.3v-29.5c0-6.4-10.8-11.8-23.6-11.8s-23.6,5.4-23.6,11.8v29.5c0,6.4,10.8,11.8,23.6,11.8
		S640.2,920.7,640.2,914.3z M616.6,878.9c10.9,0,17.5,4.4,17.7,5.9c-0.2,1.5-6.8,5.9-17.7,5.9s-17.5-4.4-17.7-5.9
		C599.1,883.3,605.7,878.9,616.6,878.9z M598.9,892.5c4.4,2.5,10.7,4.1,17.7,4.1c7,0,13.3-1.6,17.7-4.1v7c-0.2,1.5-6.8,5.9-17.7,5.9
		s-17.5-4.5-17.7-5.9V892.5z M598.9,914.3v-7.1c4.4,2.5,10.7,4.1,17.7,4.1c7,0,13.3-1.6,17.7-4.1v7c-0.2,1.5-6.8,5.9-17.7,5.9
		S599.1,915.8,598.9,914.3z"/>
	<path id="bx-radar" d="M940.5,870c-16.2,0.2-29.3,13.3-29.5,29.5c0.2,16.2,13.3,29.3,29.5,29.5c16.2-0.2,29.3-13.3,29.5-29.5
		C969.8,883.3,956.7,870.2,940.5,870z M940.5,923.1c-13-0.2-23.4-10.6-23.6-23.6c0.2-11.8,8.9-21.8,20.6-23.4v6
		c-9.6,1.6-16.1,10.7-14.5,20.4c1.6,9.6,10.7,16.1,20.4,14.5c3.6-0.6,7-2.3,9.6-5l-4.2-4.2c-4.6,4.6-12,4.6-16.7,0s-4.6-12,0-16.7
		c1.5-1.5,3.4-2.6,5.4-3.1v6.3c-2.8,1.6-3.8,5.2-2.2,8.1c1.6,2.8,5.2,3.8,8.1,2.2c2.8-1.6,3.8-5.2,2.2-8.1c-0.5-0.9-1.3-1.6-2.2-2.2
		v-18.3c11.7,1.6,20.5,11.6,20.6,23.4C963.9,912.5,953.5,922.9,940.5,923.1z"/>
	<path id="bx-window" d="M1134.1,876h-47.2c-3.3,0-5.9,2.6-5.9,5.9v35.4c0,3.3,2.6,5.9,5.9,5.9h47.2c3.3,0,5.9-2.6,5.9-5.9v-35.4
		C1140,878.6,1137.4,876,1134.1,876z M1086.9,917.3v-29.5h47.2v29.5H1086.9z"/>
	<g id="bx-link" transform="translate(750 874)">
		<path id="패스_72" d="M14.7,23.1c3.5-3.3,9-3.3,12.5,0l2.1,2.1l4.2-4.2l-2.1-2.1c-5.8-5.8-15.1-5.8-20.8,0c0,0,0,0,0,0l-6.3,6.3
			C-1.4,31-1.3,40.3,4.5,46c5.7,5.7,15,5.7,20.7,0l2.1-2.1l-4.2-4.2L21,41.9c-3.5,3.5-9.1,3.5-12.5,0s-3.5-9.1,0-12.5l0,0L14.7,23.1
			z"/>
		<path id="패스_73" d="M25.2,4.3l-2.1,2.1l4.2,4.2l2.1-2.1c3.4-3.5,9-3.6,12.5-0.2s3.6,9,0.2,12.5c-0.1,0.1-0.1,0.1-0.2,0.2
			l-6.3,6.3c-3.5,3.3-9,3.3-12.5,0L21,25.2l-4.2,4.2l2.1,2.1c5.8,5.8,15.1,5.8,20.8,0c0,0,0,0,0,0l6.3-6.3c5.8-5.8,5.8-15.1,0-20.9
			S30.9-1.4,25.2,4.3L25.2,4.3z"/>
	</g>
	<g id="bxs-hdd" transform="translate(422 872)">
		<path id="패스_76" class="st5" d="M48.6,36.1h5.8v5.8h-5.8V36.1z M37,36.1h5.8v5.8H37V36.1z"/>
		<path id="패스_77" d="M54.5,27.3H7.8c-3.2,0-5.8,2.6-5.8,5.8v11.7c0,3.2,2.6,5.8,5.8,5.8h46.7c3.2,0,5.8-2.6,5.8-5.8V33.2
			C60.3,29.9,57.7,27.3,54.5,27.3z M42.8,41.9H37v-5.8h5.8L42.8,41.9z M54.5,41.9h-5.8v-5.8h5.8L54.5,41.9z M54.4,6.2
			C54.1,4.9,52.9,4,51.6,4H13.7c-1.2,0-2.3,0.8-2.7,1.9L5.3,21.5h52.8L54.4,6.2z"/>
	</g>
	<path id="패스_91" class="st4" d="M375.2,969.4c-0.8,0.5-1.6,0.9-2.5,1.1c-1,0.2-1.9,0.4-2.9,0.4c-1,0-1.9-0.1-2.8-0.4
		c-0.8-0.3-1.5-0.7-2.1-1.3c-0.6-0.6-1.1-1.4-1.3-2.2c-0.3-1-0.5-2-0.5-3.1v-2.4c0-1,0.1-2.1,0.5-3c0.3-0.8,0.7-1.6,1.3-2.2
		c0.6-0.6,1.3-1,2.1-1.3c0.9-0.3,1.8-0.5,2.7-0.4c1,0,1.9,0.1,2.8,0.4c0.9,0.3,1.7,0.7,2.4,1.3l-1.1,1.8c-0.6-0.5-1.3-0.9-2-1.1
		c-0.7-0.2-1.4-0.3-2.1-0.3c-1.2-0.1-2.4,0.4-3.2,1.3c-0.9,1.1-1.3,2.6-1.2,4v1.8c-0.1,1.5,0.3,2.9,1.3,4c0.9,0.9,2.1,1.3,3.4,1.3
		c0.6,0,1.1-0.1,1.7-0.2c0.5-0.1,1-0.3,1.4-0.5v-4.5h-3.5v-1.9h5.7L375.2,969.4z M384.3,970.8c-0.9,0-1.8-0.1-2.6-0.4
		c-0.8-0.3-1.5-0.7-2-1.3c-0.6-0.6-1-1.4-1.3-2.2c-0.3-1-0.5-2-0.5-3.1v-2.4c0-1,0.1-2.1,0.5-3c0.3-0.8,0.7-1.6,1.3-2.2
		c0.6-0.6,1.3-1,2-1.3c0.8-0.3,1.7-0.4,2.6-0.4c0.9,0,1.8,0.1,2.6,0.4c0.8,0.3,1.5,0.7,2,1.3c0.6,0.6,1,1.4,1.3,2.2
		c0.3,1,0.5,2,0.5,3v2.4c0,1-0.1,2.1-0.5,3.1c-0.3,0.8-0.7,1.6-1.3,2.2c-0.6,0.6-1.3,1-2,1.3C386,970.7,385.2,970.8,384.3,970.8z
		 M384.3,956.4c-0.6,0-1.2,0.1-1.7,0.3c-0.5,0.2-1,0.5-1.3,0.9c-0.4,0.5-0.7,1-0.9,1.6c-0.2,0.8-0.3,1.6-0.3,2.4v1.9
		c0,0.8,0.1,1.6,0.3,2.4c0.2,0.6,0.5,1.2,0.9,1.6c0.4,0.4,0.8,0.7,1.3,0.9c0.5,0.2,1.1,0.3,1.7,0.3c0.6,0,1.2-0.1,1.7-0.3
		c0.5-0.2,1-0.5,1.3-0.9c0.4-0.5,0.7-1,0.9-1.6c0.2-0.8,0.3-1.6,0.3-2.4v-1.9c0-0.8-0.1-1.6-0.3-2.4c-0.2-0.6-0.5-1.2-0.9-1.6
		c-0.4-0.4-0.8-0.7-1.3-0.9C385.4,956.5,384.9,956.4,384.3,956.4z M396,954.7v14h7.6v1.9h-9.8v-15.9H396z M415.7,954.7v1.9H408v5.3
		h7.2v1.9H408v6.8h-2.2v-15.9H415.7z M428.9,968.8c0.9,0.1,1.8-0.2,2.5-0.7c0.5-0.4,0.8-1,0.8-1.6v-0.4c0-0.3-0.1-0.6-0.2-0.9
		c-0.1-0.3-0.3-0.5-0.6-0.7c-0.3-0.2-0.7-0.4-1.1-0.6c-0.5-0.2-1.1-0.3-1.6-0.5c-0.7-0.2-1.4-0.3-2.1-0.6c-0.6-0.2-1.2-0.5-1.7-0.8
		c-0.5-0.3-0.8-0.7-1.1-1.2c-0.3-0.6-0.4-1.2-0.4-1.8v-0.4c0-0.5,0.1-1.1,0.3-1.6c0.2-0.5,0.6-1,1-1.4c0.5-0.4,1.1-0.7,1.7-1
		c0.8-0.3,1.6-0.4,2.4-0.4c0.9,0,1.8,0.1,2.6,0.4c0.8,0.2,1.5,0.6,2.2,1l-1,1.7c-0.5-0.4-1.1-0.7-1.8-0.9c-0.7-0.2-1.3-0.3-2-0.3
		c-0.8,0-1.7,0.2-2.4,0.7c-0.5,0.4-0.9,1-0.9,1.6v0.4c0,0.3,0.1,0.7,0.2,0.9c0.2,0.3,0.4,0.5,0.7,0.7c0.4,0.2,0.7,0.4,1.1,0.5
		c0.5,0.1,1,0.3,1.6,0.4c0.8,0.2,1.7,0.4,2.5,0.8c0.6,0.2,1.1,0.6,1.6,1c0.4,0.3,0.7,0.8,0.8,1.2c0.2,0.5,0.3,1,0.3,1.5v0.4
		c0,0.7-0.1,1.3-0.4,1.9c-0.3,0.5-0.7,1-1.2,1.4c-0.5,0.4-1.1,0.7-1.8,0.8c-0.7,0.2-1.5,0.3-2.3,0.3c-1.1,0-2.1-0.2-3.1-0.5
		c-0.9-0.3-1.7-0.8-2.4-1.3l1.1-1.8c0.3,0.2,0.7,0.5,1,0.6c0.4,0.2,0.8,0.4,1.2,0.5c0.4,0.2,0.8,0.3,1.2,0.4
		C428.2,968.8,428.5,968.8,428.9,968.8z M439.6,954.7v15.9h-2.2v-15.9H439.6z M446.1,959.1c-0.1-0.2-0.1-0.3-0.2-0.5
		s-0.1-0.3-0.2-0.5c-0.1-0.2-0.1-0.3-0.2-0.5c-0.1-0.2-0.2-0.4-0.2-0.7v13.6h-2.1v-15.9h3.2l4.4,10.4l4.3-10.4h3.2v15.9h-2.1v-13.6
		c-0.1,0.3-0.1,0.5-0.2,0.7s-0.1,0.4-0.2,0.5s-0.1,0.3-0.2,0.5c-0.1,0.1-0.1,0.3-0.2,0.5l-3.8,8.8h-1.8L446.1,959.1z M473.5,954.7
		v9.5c0,1-0.1,2.1-0.4,3.1c-0.2,0.8-0.6,1.5-1.1,2c-0.5,0.5-1.1,0.9-1.8,1.1c-0.8,0.2-1.7,0.4-2.5,0.4c-0.8,0-1.7-0.1-2.5-0.4
		c-0.7-0.2-1.3-0.6-1.8-1.1c-0.5-0.6-0.9-1.3-1.1-2c-0.3-1-0.4-2-0.4-3.1v-9.5h2.2v9.2c0,0.8,0.1,1.5,0.2,2.3
		c0.1,0.5,0.3,1.1,0.7,1.5c0.3,0.4,0.7,0.7,1.2,0.8c0.5,0.2,1.1,0.3,1.6,0.3c0.6,0,1.1-0.1,1.6-0.3c0.5-0.2,0.9-0.5,1.2-0.8
		c0.3-0.4,0.6-1,0.7-1.5c0.2-0.7,0.2-1.5,0.2-2.3v-9.2H473.5z M479.1,954.7v14h7.6v1.9h-9.8v-15.9H479.1z M501.5,970.6h-2.3
		l-1.7-4.7h-6.1l-1.7,4.7h-2.2l5.9-15.9h2.1L501.5,970.6z M492.1,964h4.8l-1.3-3.7l-0.3-0.8c-0.1-0.2-0.2-0.5-0.2-0.7l-0.2-0.7
		c-0.1-0.2-0.2-0.6-0.3-0.9c-0.1,0.4-0.2,0.7-0.3,0.9c-0.1,0.3-0.1,0.5-0.2,0.7l-0.2,0.7c-0.1,0.2-0.2,0.5-0.3,0.8L492.1,964z
		 M507.1,970.6v-14h-4.8v-1.9h11.9v1.9h-4.8v14H507.1z M522.3,970.8c-0.9,0-1.8-0.1-2.6-0.4c-0.8-0.3-1.5-0.7-2-1.3
		c-0.6-0.6-1-1.4-1.3-2.2c-0.3-1-0.5-2-0.5-3.1v-2.4c0-1,0.1-2.1,0.5-3c0.3-0.8,0.7-1.6,1.3-2.2c0.6-0.6,1.3-1,2-1.3
		c0.8-0.3,1.7-0.4,2.6-0.4c0.9,0,1.8,0.1,2.6,0.4c0.8,0.3,1.5,0.7,2,1.3c0.6,0.6,1,1.4,1.3,2.2c0.3,1,0.5,2,0.5,3v2.4
		c0,1-0.1,2.1-0.5,3.1c-0.3,0.8-0.7,1.6-1.3,2.2c-0.6,0.6-1.3,1-2,1.3C524.1,970.7,523.2,970.8,522.3,970.8z M522.3,956.4
		c-0.6,0-1.2,0.1-1.7,0.3c-0.5,0.2-1,0.5-1.3,0.9c-0.4,0.5-0.7,1-0.9,1.6c-0.2,0.8-0.3,1.6-0.3,2.4v1.9c0,0.8,0.1,1.6,0.3,2.4
		c0.2,0.6,0.5,1.2,0.9,1.6c0.4,0.4,0.8,0.7,1.3,0.9c0.5,0.2,1.1,0.3,1.7,0.3c0.6,0,1.2-0.1,1.7-0.3c0.5-0.2,1-0.5,1.3-0.9
		c0.4-0.5,0.7-1,0.9-1.6c0.2-0.8,0.3-1.6,0.3-2.4v-1.9c0-0.8-0.1-1.6-0.3-2.4c-0.2-0.6-0.5-1.2-0.9-1.6c-0.4-0.4-0.8-0.7-1.3-0.9
		C523.4,956.5,522.9,956.4,522.3,956.4z M534,970.6h-2.2v-15.9h5.7c0.7,0,1.5,0.1,2.2,0.3c0.6,0.2,1.1,0.5,1.6,0.9
		c0.4,0.4,0.8,0.8,1,1.4c0.2,0.5,0.3,1.1,0.3,1.7v0.6c0,0.8-0.2,1.7-0.7,2.4c-0.5,0.7-1.2,1.2-2,1.5l3.1,7h-2.4l-2.9-6.6H534V970.6z
		 M534,962.1h3c0.9,0.1,1.9-0.2,2.6-0.7c0.5-0.5,0.8-1.2,0.8-1.9v-0.4c0-0.7-0.3-1.4-0.8-1.8c-0.7-0.5-1.6-0.8-2.4-0.7H534V962.1z"
		/>
	<g class="st6">
		<path class="st7" d="M467.5,696h4.6v26h-4.6V696z"/>
		<path class="st7" d="M477.3,696h5.3l8.9,15.7c0.3,0.5,0.6,1.1,0.9,1.8s0.6,1.5,0.8,2.3V696h4.3v26h-5.3l-8.9-15.8
			c-0.3-0.6-0.6-1.2-0.9-1.9s-0.5-1.4-0.7-2.1v19.8h-4.3V696z"/>
		<path class="st7" d="M502.6,721.9v-26h16.7v3.9h-12.1v7.4h11.3v3.9h-11.3v10.8H502.6z"/>
		<path class="st7" d="M532.9,695.6c1.5,0,2.9,0.2,4.2,0.6s2.5,1.1,3.5,2c1,0.9,1.8,2.1,2.4,3.5s0.9,3.1,0.9,5.1v4.3
			c0,2-0.3,3.8-0.9,5.2c-0.6,1.4-1.4,2.6-2.4,3.5s-2.2,1.5-3.5,1.9s-2.7,0.6-4.2,0.6c-1.5,0-2.9-0.2-4.2-0.6s-2.5-1.1-3.5-1.9
			s-1.8-2-2.4-3.5c-0.6-1.4-0.9-3.2-0.9-5.2v-4.3c0-2,0.3-3.7,0.9-5.1s1.4-2.6,2.4-3.5c1-0.9,2.2-1.6,3.5-2S531.4,695.6,532.9,695.6
			z M532.9,718.1c0.9,0,1.7-0.1,2.5-0.3c0.8-0.2,1.4-0.6,2-1.2s1-1.4,1.3-2.3s0.5-2.2,0.5-3.7v-3.1c0-1.5-0.2-2.7-0.5-3.7
			c-0.3-1-0.8-1.8-1.3-2.3s-1.2-1-2-1.2c-0.8-0.2-1.6-0.3-2.5-0.3c-0.9,0-1.7,0.1-2.4,0.3c-0.8,0.2-1.4,0.6-2,1.2
			c-0.6,0.6-1,1.4-1.4,2.3c-0.3,1-0.5,2.2-0.5,3.7v3.1c0,1.5,0.2,2.7,0.5,3.7c0.3,1,0.8,1.8,1.4,2.3c0.6,0.6,1.2,1,2,1.2
			C531.2,718,532,718.1,532.9,718.1z"/>
	</g>
	<g class="st6">
		<path class="st7" d="M557.4,704.2c-0.3-0.1-0.7-0.2-1-0.3c-0.4-0.1-0.8-0.1-1.3-0.1c-0.9,0-1.7,0.2-2.4,0.6
			c-0.7,0.4-1.3,0.9-1.7,1.5c-0.5,0.6-0.8,1.4-1,2.3c-0.2,0.9-0.3,1.8-0.3,2.9v10.8h-1.5v-19.2h1.5v3.7c0.2-0.5,0.4-1,0.7-1.5
			c0.3-0.5,0.7-0.9,1.2-1.3c0.5-0.4,1-0.7,1.6-0.9c0.6-0.2,1.3-0.4,2.1-0.4c0.6,0,1,0,1.5,0.1s0.8,0.2,1.2,0.3L557.4,704.2z"/>
		<path class="st7" d="M585.8,721.9h-1.5v-12.7c0-0.8-0.1-1.6-0.2-2.2c-0.2-0.7-0.4-1.2-0.8-1.7c-0.4-0.5-0.8-0.8-1.4-1.1
			c-0.6-0.3-1.4-0.4-2.3-0.4c-1,0-1.8,0.2-2.5,0.5s-1.2,0.8-1.7,1.3c-0.4,0.5-0.8,1.1-1,1.6c-0.2,0.6-0.3,1.1-0.3,1.5v13.2h-1.5
			v-12.7c0-0.8-0.1-1.6-0.2-2.2c-0.2-0.7-0.4-1.2-0.8-1.7c-0.4-0.5-0.8-0.8-1.5-1.1c-0.6-0.3-1.4-0.4-2.3-0.4c-1,0-1.8,0.2-2.5,0.6
			s-1.2,0.8-1.7,1.4c-0.4,0.5-0.8,1.1-1,1.7c-0.2,0.6-0.3,1.1-0.3,1.5v13h-1.5v-19.2h1.5v3c0.2-0.3,0.4-0.7,0.7-1.1
			c0.3-0.4,0.7-0.7,1.1-1.1c0.5-0.3,1-0.6,1.6-0.8c0.6-0.2,1.4-0.3,2.2-0.3c1.6,0,2.9,0.4,3.8,1.1s1.5,1.6,1.9,2.6
			c0.5-1,1.2-1.9,2.3-2.6c1-0.7,2.3-1.1,3.9-1.1c1.1,0,2.1,0.2,2.8,0.5c0.8,0.4,1.4,0.8,1.9,1.4c0.5,0.6,0.8,1.3,1,2
			c0.2,0.8,0.3,1.6,0.3,2.4V721.9z"/>
		<path class="st7" d="M596.2,722.2c-0.9,0-1.7-0.1-2.5-0.4c-0.8-0.2-1.4-0.6-2-1.1c-0.6-0.5-1-1-1.3-1.7c-0.3-0.7-0.5-1.5-0.5-2.4
			v-0.5c0-0.7,0.1-1.4,0.4-2c0.3-0.6,0.6-1.2,1.2-1.7c0.5-0.5,1.2-0.8,2-1.1c0.8-0.3,1.8-0.4,2.9-0.4h5.9v-2.3
			c0-1.6-0.4-2.8-1.3-3.6c-0.9-0.8-2.1-1.2-3.8-1.2c-1.1,0-2,0.2-3,0.5c-0.9,0.3-1.8,0.8-2.7,1.4l-0.8-1.2c0.8-0.6,1.8-1.1,2.9-1.5
			c1.1-0.4,2.3-0.6,3.6-0.6c2,0,3.6,0.5,4.8,1.6c1.2,1.1,1.8,2.6,1.8,4.6v13.4h-1.5v-2.7h0c-0.2,0.3-0.5,0.7-0.8,1.1
			c-0.3,0.4-0.7,0.7-1.2,1c-0.5,0.3-1.1,0.5-1.8,0.7C597.9,722.1,597.1,722.2,596.2,722.2z M602.4,712.3h-5.8
			c-0.9,0-1.7,0.1-2.3,0.3c-0.6,0.2-1.1,0.5-1.5,0.8c-0.4,0.3-0.7,0.8-0.8,1.2c-0.2,0.5-0.3,1-0.3,1.5v0.6c0,0.8,0.1,1.5,0.4,2
			c0.3,0.5,0.7,1,1.1,1.3c0.4,0.3,0.9,0.6,1.5,0.7c0.6,0.1,1.1,0.2,1.7,0.2c0.6,0,1.2-0.1,1.8-0.2c0.6-0.1,1.1-0.3,1.7-0.6
			c0.8-0.4,1.4-0.9,1.8-1.6c0.5-0.7,0.7-1.4,0.7-2.2V712.3z"/>
		<path class="st7" d="M610.3,704h-3.3v-1.3h3.3v-5h1.5v5h5.4v1.3h-5.4v12.4c0,1.4,0.2,2.5,0.6,3.2s1.2,1.1,2.4,1.1
			c0.6,0,1,0,1.5-0.1c0.4-0.1,0.9-0.2,1.4-0.3l0.3,1.3c-0.4,0.1-0.8,0.2-1.4,0.3c-0.6,0.1-1.1,0.1-1.5,0.1c-0.7,0-1.3-0.1-1.9-0.2
			c-0.6-0.1-1.1-0.4-1.5-0.8s-0.7-0.9-1-1.6c-0.2-0.7-0.3-1.6-0.3-2.7V704z"/>
		<path class="st7" d="M623.4,696.4v2.1h-1.8v-2.1H623.4z M623.2,702.7v19.2h-1.5v-19.2H623.2z"/>
		<path class="st7" d="M635.7,702.4c2.5,0,4.4,0.8,5.8,2.3c1.4,1.5,2.1,3.6,2.1,6.4v2.5c0,2.8-0.7,4.9-2.1,6.4
			c-1.4,1.5-3.3,2.3-5.8,2.3s-4.4-0.8-5.8-2.3c-1.4-1.5-2.1-3.6-2.1-6.4V711c0-2.8,0.7-4.9,2.1-6.4
			C631.3,703.1,633.2,702.4,635.7,702.4z M635.7,720.9c1.9,0,3.5-0.6,4.6-1.8c1.1-1.2,1.7-3,1.7-5.5V711c0-2.5-0.6-4.3-1.7-5.5
			c-1.1-1.2-2.7-1.8-4.6-1.8s-3.5,0.6-4.6,1.8c-1.1,1.2-1.7,3-1.7,5.5v2.5c0,2.5,0.6,4.3,1.7,5.5
			C632.3,720.3,633.8,720.9,635.7,720.9z"/>
		<path class="st7" d="M662.7,721.9h-1.5v-12.7c0-1.7-0.4-3-1.2-4c-0.8-1-2.2-1.5-4.2-1.5c-1,0-1.9,0.2-2.7,0.6
			c-0.8,0.4-1.4,0.8-1.9,1.4s-0.9,1.1-1.1,1.7c-0.2,0.6-0.4,1.1-0.4,1.5v13h-1.5v-19.2h1.5v3c0.2-0.3,0.4-0.7,0.8-1.1
			c0.3-0.4,0.8-0.7,1.3-1.1c0.5-0.3,1.1-0.6,1.8-0.8c0.7-0.2,1.5-0.3,2.4-0.3c1.2,0,2.2,0.2,3.1,0.5c0.9,0.3,1.5,0.8,2.1,1.4
			c0.5,0.6,0.9,1.3,1.2,2.1c0.2,0.8,0.4,1.6,0.4,2.4V721.9z"/>
	</g>
	<g class="st6">
		<path class="st7" d="M754.5,721.9h-1.5v-12.7c0-1.7-0.4-3-1.2-4c-0.8-1-2.2-1.5-4.2-1.5c-1,0-1.9,0.2-2.7,0.6
			c-0.8,0.4-1.4,0.8-1.9,1.4s-0.9,1.1-1.1,1.7s-0.4,1.1-0.4,1.5v13H740v-27.2h1.5v11c0.2-0.3,0.4-0.7,0.8-1.1
			c0.3-0.4,0.8-0.7,1.3-1.1c0.5-0.3,1.1-0.6,1.8-0.8s1.5-0.3,2.4-0.3c1.2,0,2.2,0.2,3.1,0.5c0.9,0.3,1.5,0.8,2.1,1.4
			c0.5,0.6,0.9,1.3,1.2,2.1c0.2,0.8,0.4,1.6,0.4,2.4V721.9z"/>
		<path class="st7" d="M759.6,702.7h1.5v12.7c0,0.6,0.1,1.1,0.2,1.8s0.3,1.2,0.7,1.8c0.3,0.5,0.8,1,1.5,1.4c0.7,0.4,1.6,0.5,2.7,0.5
			c1.1,0,2-0.2,2.8-0.6c0.8-0.4,1.4-0.8,1.9-1.3s0.9-1.1,1.1-1.6c0.3-0.6,0.4-1,0.4-1.4v-13.2h1.5v19.2h-1.5v-3
			c-0.1,0.3-0.4,0.6-0.7,1c-0.3,0.4-0.8,0.7-1.3,1.1s-1.2,0.6-1.9,0.9c-0.7,0.3-1.5,0.4-2.3,0.4c-1.3,0-2.3-0.2-3.2-0.5
			c-0.8-0.3-1.5-0.8-2-1.4c-0.5-0.6-0.9-1.3-1.1-2c-0.2-0.8-0.3-1.6-0.3-2.4V702.7z"/>
		<path class="st7" d="M804.3,721.9h-1.5v-12.7c0-0.8-0.1-1.6-0.2-2.2s-0.4-1.2-0.8-1.7c-0.4-0.5-0.8-0.8-1.4-1.1
			c-0.6-0.3-1.4-0.4-2.3-0.4c-1,0-1.8,0.2-2.5,0.5c-0.7,0.4-1.2,0.8-1.7,1.3c-0.4,0.5-0.8,1.1-1,1.6s-0.3,1.1-0.3,1.5v13.2h-1.5
			v-12.7c0-0.8-0.1-1.6-0.2-2.2s-0.4-1.2-0.8-1.7c-0.4-0.5-0.8-0.8-1.5-1.1c-0.6-0.3-1.4-0.4-2.3-0.4c-1,0-1.8,0.2-2.5,0.6
			c-0.7,0.4-1.2,0.8-1.7,1.4c-0.4,0.5-0.8,1.1-1,1.7c-0.2,0.6-0.3,1.1-0.3,1.5v13h-1.5v-19.2h1.5v3c0.2-0.3,0.4-0.7,0.7-1.1
			s0.7-0.7,1.1-1.1s1-0.6,1.6-0.8c0.6-0.2,1.4-0.3,2.2-0.3c1.6,0,2.9,0.4,3.8,1.1c0.9,0.7,1.5,1.6,1.9,2.6c0.5-1,1.2-1.9,2.3-2.6
			c1-0.7,2.3-1.1,3.9-1.1c1.1,0,2.1,0.2,2.8,0.5c0.8,0.4,1.4,0.8,1.9,1.4c0.5,0.6,0.8,1.3,1,2c0.2,0.8,0.3,1.6,0.3,2.4V721.9z"/>
		<path class="st7" d="M814.7,722.2c-0.9,0-1.7-0.1-2.5-0.4c-0.8-0.2-1.4-0.6-2-1.1c-0.6-0.5-1-1-1.3-1.7c-0.3-0.7-0.5-1.5-0.5-2.4
			v-0.5c0-0.7,0.1-1.4,0.4-2s0.6-1.2,1.2-1.7c0.5-0.5,1.2-0.8,2-1.1c0.8-0.3,1.8-0.4,2.9-0.4h5.9v-2.3c0-1.6-0.4-2.8-1.3-3.6
			c-0.9-0.8-2.1-1.2-3.8-1.2c-1.1,0-2,0.2-3,0.5s-1.8,0.8-2.7,1.4l-0.8-1.2c0.8-0.6,1.8-1.1,2.9-1.5c1.1-0.4,2.3-0.6,3.6-0.6
			c2,0,3.6,0.5,4.8,1.6c1.2,1.1,1.8,2.6,1.8,4.6v13.4h-1.5v-2.7h0c-0.2,0.3-0.5,0.7-0.8,1.1s-0.7,0.7-1.2,1
			c-0.5,0.3-1.1,0.5-1.8,0.7C816.4,722.1,815.6,722.2,814.7,722.2z M820.9,712.3H815c-0.9,0-1.7,0.1-2.3,0.3
			c-0.6,0.2-1.1,0.5-1.5,0.8c-0.4,0.3-0.7,0.8-0.8,1.2c-0.2,0.5-0.3,1-0.3,1.5v0.6c0,0.8,0.1,1.5,0.4,2c0.3,0.5,0.7,1,1.1,1.3
			c0.4,0.3,0.9,0.6,1.5,0.7c0.6,0.1,1.1,0.2,1.7,0.2c0.6,0,1.2-0.1,1.8-0.2c0.6-0.1,1.1-0.3,1.7-0.6c0.8-0.4,1.4-0.9,1.8-1.6
			c0.5-0.7,0.7-1.4,0.7-2.2V712.3z"/>
		<path class="st7" d="M842.2,721.9h-1.5v-12.7c0-1.7-0.4-3-1.2-4c-0.8-1-2.2-1.5-4.2-1.5c-1,0-1.9,0.2-2.7,0.6s-1.4,0.8-1.9,1.4
			s-0.9,1.1-1.1,1.7c-0.2,0.6-0.4,1.1-0.4,1.5v13h-1.5v-19.2h1.5v3c0.2-0.3,0.4-0.7,0.8-1.1c0.3-0.4,0.8-0.7,1.3-1.1
			c0.5-0.3,1.1-0.6,1.8-0.8s1.5-0.3,2.4-0.3c1.2,0,2.2,0.2,3.1,0.5c0.9,0.3,1.5,0.8,2.1,1.4c0.5,0.6,0.9,1.3,1.2,2.1
			c0.2,0.8,0.4,1.6,0.4,2.4V721.9z"/>
	</g>
	<g class="st6">
		<path class="st7" d="M852.7,703.9c-0.2-0.5-0.4-1-0.6-1.6c-0.2-0.6-0.4-1.4-0.8-2.3v21.9h-4.3v-26h6.6l6.4,16.1l6.1-16.1h6.6v26
			h-4.4V700c-0.3,1.1-0.5,1.9-0.7,2.4c-0.2,0.5-0.4,1-0.5,1.5l-5.4,13.7h-3.7L852.7,703.9z"/>
		<path class="st7" d="M877.9,696h4.6v26h-4.6V696z"/>
		<path class="st7" d="M887.7,696h5.3l8.9,15.7c0.3,0.5,0.6,1.1,0.9,1.8s0.6,1.5,0.8,2.3V696h4.3v26h-5.3l-8.9-15.8
			c-0.3-0.6-0.6-1.2-0.9-1.9s-0.5-1.4-0.7-2.1v19.8h-4.3V696z"/>
		<path class="st7" d="M922,696c3.9,0,6.7,1,8.5,2.9s2.7,4.7,2.7,8.3v3.7c0,1.8-0.2,3.4-0.6,4.8s-1.1,2.5-2,3.5
			c-0.9,0.9-2.1,1.7-3.5,2.1c-1.4,0.5-3.1,0.7-5.1,0.7h-9.1v-26H922z M917.5,718h3.9c1.2,0,2.2-0.1,3.1-0.4c0.9-0.3,1.7-0.7,2.3-1.3
			c0.6-0.6,1.1-1.3,1.4-2.3s0.5-2.1,0.5-3.5v-3.3c0-2.7-0.6-4.7-1.8-5.8c-1.2-1.1-3-1.7-5.4-1.7h-3.9V718z"/>
	</g>
</g>
</svg>
