<?xml version="1.0" encoding="utf-8"?>
<!-- Generator: Adobe Illustrator 23.0.3, SVG Export Plug-In . SVG Version: 6.00 Build 0)  -->
<svg version="1.1" id="레이어_1" xmlns="http://www.w3.org/2000/svg" xmlns:xlink="http://www.w3.org/1999/xlink" x="0px"
	 y="0px" viewBox="0 0 320 295" style="enable-background:new 0 0 320 295;" xml:space="preserve">
<style type="text/css">
	.st0{fill:#F4F4F4;}
	.st1{fill:#2583C8;}
	.st2{fill:#F99900;}
	.st3{fill:#244F00;}
	.st4{enable-background:new    ;}
	.st5{fill:#FFFFFF;}
	.st6{fill:#333333;}
	.st7{fill:none;}
</style>
<g id="그룹_107" transform="translate(-0.408 -379)">
	<rect id="사각형_100" x="0.4" y="403.8" class="st0" width="320" height="270.2"/>
	<g id="그룹_105" transform="translate(144 -81)">
		<path id="사각형_108" class="st1" d="M-104,460H0c13.8,0,25,11.2,25,25l0,0c0,13.8-11.2,25-25,25h-104c-13.8,0-25-11.2-25-25
			l0,0C-129,471.2-117.8,460-104,460z"/>
		<path id="사각형_109" class="st2" d="M31.5,460h104c13.8,0,25,11.2,25,25l0,0c0,13.8-11.2,25-25,25h-104c-13.8,0-25-11.2-25-25
			l0,0C6.5,471.2,17.7,460,31.5,460z"/>
		<path id="교차_1" class="st3" d="M6.5,485c0-7.5,3.4-14.7,9.3-19.4c5.9,4.7,9.3,11.9,9.3,19.4c0,7.5-3.4,14.7-9.3,19.4
			C9.9,499.7,6.5,492.5,6.5,485z"/>
		<g class="st4">
			<path class="st5" d="M-100.7,477.3h2.3v13h-2.3V477.3z"/>
			<path class="st5" d="M-95.8,477.3h2.6l4.4,7.9c0.1,0.2,0.3,0.5,0.4,0.9c0.2,0.4,0.3,0.7,0.4,1.2v-9.9h2.2v13h-2.6l-4.4-7.9
				c-0.2-0.3-0.3-0.6-0.5-0.9s-0.3-0.7-0.3-1.1v9.9h-2.2V477.3z"/>
			<path class="st5" d="M-83.2,490.3v-13h8.4v1.9h-6v3.7h5.7v1.9h-5.7v5.4H-83.2z"/>
			<path class="st5" d="M-68.1,477.1c0.7,0,1.4,0.1,2.1,0.3s1.3,0.5,1.8,1c0.5,0.5,0.9,1,1.2,1.7s0.4,1.6,0.4,2.6v2.1
				c0,1-0.1,1.9-0.4,2.6s-0.7,1.3-1.2,1.7c-0.5,0.4-1.1,0.8-1.7,1c-0.7,0.2-1.4,0.3-2.1,0.3s-1.4-0.1-2.1-0.3
				c-0.7-0.2-1.2-0.5-1.7-1c-0.5-0.4-0.9-1-1.2-1.7c-0.3-0.7-0.4-1.6-0.4-2.6v-2.1c0-1,0.1-1.9,0.4-2.6c0.3-0.7,0.7-1.3,1.2-1.7
				c0.5-0.4,1.1-0.8,1.8-1S-68.8,477.1-68.1,477.1z M-68.1,488.4c0.4,0,0.9-0.1,1.2-0.2c0.4-0.1,0.7-0.3,1-0.6s0.5-0.7,0.7-1.2
				c0.2-0.5,0.2-1.1,0.2-1.9V483c0-0.7-0.1-1.4-0.2-1.9c-0.2-0.5-0.4-0.9-0.7-1.2s-0.6-0.5-1-0.6c-0.4-0.1-0.8-0.2-1.2-0.2
				c-0.4,0-0.8,0.1-1.2,0.2s-0.7,0.3-1,0.6s-0.5,0.7-0.7,1.2s-0.3,1.1-0.3,1.9v1.6c0,0.7,0.1,1.4,0.3,1.9s0.4,0.9,0.7,1.2
				s0.6,0.5,1,0.6C-68.9,488.3-68.5,488.4-68.1,488.4z"/>
		</g>
		<g class="st4">
			<path class="st5" d="M-55.8,481.5c-0.2-0.1-0.3-0.1-0.5-0.1c-0.2,0-0.4,0-0.6,0c-0.5,0-0.9,0.1-1.2,0.3c-0.3,0.2-0.6,0.4-0.9,0.8
				c-0.2,0.3-0.4,0.7-0.5,1.2c-0.1,0.4-0.2,0.9-0.2,1.4v5.4h-0.8v-9.6h0.8v1.9c0.1-0.3,0.2-0.5,0.4-0.7c0.2-0.2,0.4-0.5,0.6-0.7
				c0.2-0.2,0.5-0.3,0.8-0.5s0.7-0.2,1-0.2c0.3,0,0.5,0,0.7,0.1c0.2,0,0.4,0.1,0.6,0.2L-55.8,481.5z"/>
			<path class="st5" d="M-41.6,490.3h-0.8v-6.4c0-0.4,0-0.8-0.1-1.1s-0.2-0.6-0.4-0.9c-0.2-0.2-0.4-0.4-0.7-0.5s-0.7-0.2-1.1-0.2
				c-0.5,0-0.9,0.1-1.2,0.3c-0.3,0.2-0.6,0.4-0.8,0.7c-0.2,0.3-0.4,0.5-0.5,0.8c-0.1,0.3-0.2,0.5-0.2,0.8v6.6h-0.8v-6.4
				c0-0.4,0-0.8-0.1-1.1s-0.2-0.6-0.4-0.9s-0.4-0.4-0.7-0.5s-0.7-0.2-1.1-0.2c-0.5,0-0.9,0.1-1.2,0.3c-0.3,0.2-0.6,0.4-0.8,0.7
				c-0.2,0.3-0.4,0.6-0.5,0.8c-0.1,0.3-0.2,0.5-0.2,0.8v6.5h-0.8v-9.6h0.8v1.5c0.1-0.2,0.2-0.3,0.4-0.5c0.1-0.2,0.3-0.4,0.6-0.5
				c0.2-0.2,0.5-0.3,0.8-0.4c0.3-0.1,0.7-0.2,1.1-0.2c0.8,0,1.4,0.2,1.9,0.5c0.5,0.4,0.8,0.8,0.9,1.3c0.2-0.5,0.6-0.9,1.1-1.3
				c0.5-0.4,1.2-0.5,1.9-0.5c0.6,0,1,0.1,1.4,0.3c0.4,0.2,0.7,0.4,0.9,0.7c0.2,0.3,0.4,0.6,0.5,1c0.1,0.4,0.2,0.8,0.2,1.2V490.3z"/>
			<path class="st5" d="M-36.4,490.5c-0.4,0-0.9-0.1-1.2-0.2c-0.4-0.1-0.7-0.3-1-0.5c-0.3-0.2-0.5-0.5-0.7-0.9
				c-0.2-0.3-0.2-0.7-0.2-1.2v-0.3c0-0.4,0.1-0.7,0.2-1c0.1-0.3,0.3-0.6,0.6-0.8c0.3-0.2,0.6-0.4,1-0.6c0.4-0.1,0.9-0.2,1.5-0.2h2.9
				v-1.2c0-0.8-0.2-1.4-0.6-1.8s-1.1-0.6-1.9-0.6c-0.5,0-1,0.1-1.5,0.3c-0.5,0.2-0.9,0.4-1.4,0.7l-0.4-0.6c0.4-0.3,0.9-0.6,1.5-0.8
				c0.6-0.2,1.2-0.3,1.8-0.3c1,0,1.8,0.3,2.4,0.8c0.6,0.5,0.9,1.3,0.9,2.3v6.7h-0.8V489h0c-0.1,0.2-0.2,0.3-0.4,0.5
				c-0.2,0.2-0.4,0.3-0.6,0.5c-0.3,0.1-0.6,0.3-0.9,0.4C-35.5,490.4-35.9,490.5-36.4,490.5z M-33.3,485.5h-2.9
				c-0.5,0-0.8,0.1-1.2,0.2c-0.3,0.1-0.6,0.2-0.8,0.4s-0.3,0.4-0.4,0.6c-0.1,0.2-0.1,0.5-0.1,0.7v0.3c0,0.4,0.1,0.7,0.2,1
				s0.3,0.5,0.5,0.6s0.5,0.3,0.8,0.4c0.3,0.1,0.6,0.1,0.9,0.1c0.3,0,0.6,0,0.9-0.1c0.3-0.1,0.6-0.2,0.8-0.3c0.4-0.2,0.7-0.5,0.9-0.8
				s0.3-0.7,0.3-1.1V485.5z"/>
			<path class="st5" d="M-29.4,481.4H-31v-0.6h1.7v-2.5h0.8v2.5h2.7v0.6h-2.7v6.2c0,0.7,0.1,1.3,0.3,1.6c0.2,0.4,0.6,0.5,1.2,0.5
				c0.3,0,0.5,0,0.7-0.1c0.2,0,0.4-0.1,0.7-0.1l0.1,0.6c-0.2,0.1-0.4,0.1-0.7,0.2s-0.5,0.1-0.8,0.1c-0.3,0-0.6,0-0.9-0.1
				c-0.3-0.1-0.5-0.2-0.7-0.4c-0.2-0.2-0.4-0.5-0.5-0.8c-0.1-0.3-0.2-0.8-0.2-1.4V481.4z"/>
			<path class="st5" d="M-22.8,477.6v1.1h-0.9v-1.1H-22.8z M-22.9,480.7v9.6h-0.8v-9.6H-22.9z"/>
			<path class="st5" d="M-16.6,480.5c1.2,0,2.2,0.4,2.9,1.1c0.7,0.8,1,1.8,1,3.2v1.3c0,1.4-0.3,2.4-1,3.2c-0.7,0.8-1.7,1.1-2.9,1.1
				s-2.2-0.4-2.9-1.1c-0.7-0.8-1-1.8-1-3.2v-1.3c0-1.4,0.3-2.4,1-3.2C-18.8,480.9-17.9,480.5-16.6,480.5z M-16.6,489.8
				c1,0,1.7-0.3,2.3-0.9c0.6-0.6,0.9-1.5,0.9-2.8v-1.3c0-1.2-0.3-2.2-0.9-2.8s-1.3-0.9-2.3-0.9s-1.7,0.3-2.3,0.9
				c-0.6,0.6-0.9,1.5-0.9,2.8v1.3c0,1.2,0.3,2.2,0.9,2.8C-18.4,489.5-17.6,489.8-16.6,489.8z"/>
			<path class="st5" d="M-3.1,490.3h-0.8v-6.4c0-0.8-0.2-1.5-0.6-2c-0.4-0.5-1.1-0.7-2.1-0.7c-0.5,0-1,0.1-1.3,0.3
				c-0.4,0.2-0.7,0.4-0.9,0.7c-0.3,0.3-0.4,0.6-0.6,0.8c-0.1,0.3-0.2,0.5-0.2,0.8v6.5h-0.8v-9.6h0.8v1.5c0.1-0.2,0.2-0.3,0.4-0.5
				c0.2-0.2,0.4-0.4,0.6-0.5c0.3-0.2,0.6-0.3,0.9-0.4c0.4-0.1,0.8-0.2,1.2-0.2c0.6,0,1.1,0.1,1.5,0.3c0.4,0.2,0.8,0.4,1,0.7
				c0.3,0.3,0.5,0.6,0.6,1c0.1,0.4,0.2,0.8,0.2,1.2V490.3z"/>
		</g>
		<g class="st4">
			<path class="st5" d="M42.2,490.3h-0.8v-6.4c0-0.8-0.2-1.5-0.6-2c-0.4-0.5-1.1-0.7-2.1-0.7c-0.5,0-1,0.1-1.3,0.3
				c-0.4,0.2-0.7,0.4-0.9,0.7c-0.3,0.3-0.4,0.6-0.6,0.8c-0.1,0.3-0.2,0.5-0.2,0.8v6.5H35v-13.6h0.8v5.5c0.1-0.2,0.2-0.3,0.4-0.5
				c0.2-0.2,0.4-0.4,0.6-0.5c0.3-0.2,0.6-0.3,0.9-0.4c0.3-0.1,0.8-0.2,1.2-0.2c0.6,0,1.1,0.1,1.5,0.3c0.4,0.2,0.8,0.4,1,0.7
				c0.3,0.3,0.5,0.6,0.6,1c0.1,0.4,0.2,0.8,0.2,1.2V490.3z"/>
			<path class="st5" d="M44.8,480.7h0.8v6.3c0,0.3,0,0.6,0.1,0.9c0.1,0.3,0.2,0.6,0.3,0.9c0.2,0.3,0.4,0.5,0.7,0.7
				c0.3,0.2,0.8,0.3,1.3,0.3c0.5,0,1-0.1,1.4-0.3c0.4-0.2,0.7-0.4,1-0.7c0.3-0.3,0.4-0.5,0.6-0.8s0.2-0.5,0.2-0.7v-6.6h0.8v9.6h-0.8
				v-1.5c-0.1,0.1-0.2,0.3-0.4,0.5c-0.2,0.2-0.4,0.4-0.7,0.5c-0.3,0.2-0.6,0.3-0.9,0.5c-0.4,0.1-0.7,0.2-1.1,0.2
				c-0.6,0-1.2-0.1-1.6-0.3s-0.8-0.4-1-0.7c-0.3-0.3-0.4-0.6-0.5-1c-0.1-0.4-0.2-0.8-0.2-1.2V480.7z"/>
			<path class="st5" d="M67.2,490.3h-0.8v-6.4c0-0.4,0-0.8-0.1-1.1s-0.2-0.6-0.4-0.9s-0.4-0.4-0.7-0.5s-0.7-0.2-1.1-0.2
				c-0.5,0-0.9,0.1-1.2,0.3c-0.3,0.2-0.6,0.4-0.8,0.7c-0.2,0.3-0.4,0.5-0.5,0.8s-0.2,0.5-0.2,0.8v6.6h-0.8v-6.4c0-0.4,0-0.8-0.1-1.1
				s-0.2-0.6-0.4-0.9c-0.2-0.2-0.4-0.4-0.7-0.5c-0.3-0.1-0.7-0.2-1.1-0.2c-0.5,0-0.9,0.1-1.2,0.3c-0.3,0.2-0.6,0.4-0.8,0.7
				c-0.2,0.3-0.4,0.6-0.5,0.8c-0.1,0.3-0.2,0.5-0.2,0.8v6.5h-0.8v-9.6h0.8v1.5c0.1-0.2,0.2-0.3,0.4-0.5c0.1-0.2,0.3-0.4,0.6-0.5
				c0.2-0.2,0.5-0.3,0.8-0.4c0.3-0.1,0.7-0.2,1.1-0.2c0.8,0,1.4,0.2,1.9,0.5c0.5,0.4,0.8,0.8,0.9,1.3c0.2-0.5,0.6-0.9,1.1-1.3
				c0.5-0.4,1.2-0.5,1.9-0.5c0.6,0,1,0.1,1.4,0.3c0.4,0.2,0.7,0.4,0.9,0.7s0.4,0.6,0.5,1c0.1,0.4,0.2,0.8,0.2,1.2V490.3z"/>
			<path class="st5" d="M72.4,490.5c-0.4,0-0.9-0.1-1.2-0.2s-0.7-0.3-1-0.5c-0.3-0.2-0.5-0.5-0.7-0.9c-0.2-0.3-0.2-0.7-0.2-1.2v-0.3
				c0-0.4,0.1-0.7,0.2-1c0.1-0.3,0.3-0.6,0.6-0.8c0.3-0.2,0.6-0.4,1-0.6c0.4-0.1,0.9-0.2,1.5-0.2h2.9v-1.2c0-0.8-0.2-1.4-0.6-1.8
				s-1.1-0.6-1.9-0.6c-0.5,0-1,0.1-1.5,0.3c-0.5,0.2-0.9,0.4-1.4,0.7l-0.4-0.6c0.4-0.3,0.9-0.6,1.5-0.8c0.6-0.2,1.2-0.3,1.8-0.3
				c1,0,1.8,0.3,2.4,0.8c0.6,0.5,0.9,1.3,0.9,2.3v6.7h-0.8V489h0c-0.1,0.2-0.2,0.3-0.4,0.5c-0.2,0.2-0.4,0.3-0.6,0.5
				c-0.3,0.1-0.6,0.3-0.9,0.4C73.2,490.4,72.8,490.5,72.4,490.5z M75.4,485.5h-2.9c-0.5,0-0.8,0.1-1.2,0.2c-0.3,0.1-0.6,0.2-0.8,0.4
				c-0.2,0.2-0.3,0.4-0.4,0.6c-0.1,0.2-0.1,0.5-0.1,0.7v0.3c0,0.4,0.1,0.7,0.2,1c0.1,0.3,0.3,0.5,0.5,0.6c0.2,0.2,0.5,0.3,0.8,0.4
				c0.3,0.1,0.6,0.1,0.9,0.1c0.3,0,0.6,0,0.9-0.1c0.3-0.1,0.6-0.2,0.8-0.3c0.4-0.2,0.7-0.5,0.9-0.8c0.2-0.3,0.3-0.7,0.3-1.1V485.5z"
				/>
			<path class="st5" d="M86.1,490.3h-0.8v-6.4c0-0.8-0.2-1.5-0.6-2c-0.4-0.5-1.1-0.7-2.1-0.7c-0.5,0-1,0.1-1.3,0.3
				c-0.4,0.2-0.7,0.4-0.9,0.7c-0.3,0.3-0.4,0.6-0.6,0.8c-0.1,0.3-0.2,0.5-0.2,0.8v6.5h-0.8v-9.6h0.8v1.5c0.1-0.2,0.2-0.3,0.4-0.5
				c0.2-0.2,0.4-0.4,0.6-0.5c0.3-0.2,0.6-0.3,0.9-0.4c0.4-0.1,0.8-0.2,1.2-0.2c0.6,0,1.1,0.1,1.5,0.3c0.4,0.2,0.8,0.4,1,0.7
				s0.5,0.6,0.6,1c0.1,0.4,0.2,0.8,0.2,1.2V490.3z"/>
		</g>
		<g class="st4">
			<path class="st5" d="M91.4,481.3c-0.1-0.2-0.2-0.5-0.3-0.8s-0.2-0.7-0.4-1.2v11h-2.1v-13h3.3l3.2,8.1l3.1-8.1h3.3v13h-2.2v-11
				c-0.1,0.5-0.2,0.9-0.3,1.2c-0.1,0.3-0.2,0.5-0.3,0.7l-2.7,6.8H94L91.4,481.3z"/>
			<path class="st5" d="M104,477.3h2.3v13H104V477.3z"/>
			<path class="st5" d="M108.8,477.3h2.6l4.4,7.9c0.1,0.2,0.3,0.5,0.4,0.9c0.2,0.4,0.3,0.7,0.4,1.2v-9.9h2.2v13h-2.6l-4.4-7.9
				c-0.2-0.3-0.3-0.6-0.5-0.9s-0.3-0.7-0.3-1.1v9.9h-2.2V477.3z"/>
			<path class="st5" d="M126,477.3c1.9,0,3.4,0.5,4.3,1.4s1.4,2.3,1.4,4.1v1.9c0,0.9-0.1,1.7-0.3,2.4c-0.2,0.7-0.5,1.3-1,1.7
				c-0.5,0.5-1,0.8-1.7,1.1c-0.7,0.2-1.6,0.4-2.6,0.4h-4.6v-13H126z M123.8,488.4h1.9c0.6,0,1.1-0.1,1.5-0.2
				c0.5-0.1,0.8-0.3,1.1-0.6c0.3-0.3,0.5-0.7,0.7-1.1c0.2-0.5,0.2-1.1,0.2-1.7V483c0-1.4-0.3-2.3-0.9-2.9c-0.6-0.6-1.5-0.8-2.7-0.8
				h-1.9V488.4z"/>
		</g>
	</g>
	<path id="패스_100" class="st6" d="M33.5,517.4v9.4h-1.3v-9.4H33.5z M37.1,517.4l3.6,6.3c0.1,0.2,0.2,0.4,0.3,0.6
		c0.1,0.2,0.2,0.5,0.3,0.8v-7.7h1.2v9.4h-1.5l-3.6-6.3c-0.1-0.2-0.2-0.4-0.3-0.6c-0.1-0.2-0.2-0.5-0.3-0.8v7.7h-1.2v-9.4H37.1z
		 M44.7,517.4h3.4c0.5,0,0.9,0.1,1.4,0.2c0.4,0.1,0.7,0.3,1,0.6c0.3,0.2,0.4,0.5,0.6,0.9c0.1,0.3,0.2,0.7,0.2,1.1v0.3
		c0,0.4-0.1,0.7-0.2,1.1c-0.1,0.3-0.3,0.6-0.6,0.9c-0.3,0.3-0.6,0.5-1,0.6c-0.4,0.2-0.9,0.2-1.3,0.2H46v3.7h-1.3V517.4z M46,518.5
		v3.5h1.8c1.4,0,2-0.6,2-1.7v-0.2c0-0.5-0.1-0.9-0.5-1.2c-0.4-0.3-0.9-0.4-1.4-0.4H46z M56.3,526.9c-0.5,0-1-0.1-1.5-0.3
		c-0.5-0.2-0.9-0.4-1.2-0.8c-0.4-0.4-0.6-0.8-0.8-1.3c-0.2-0.6-0.3-1.2-0.3-1.8v-1.4c0-0.6,0.1-1.2,0.3-1.8c0.2-0.5,0.4-0.9,0.8-1.3
		c0.3-0.3,0.8-0.6,1.2-0.8c0.5-0.2,1-0.3,1.5-0.3c0.5,0,1,0.1,1.5,0.3c0.5,0.2,0.9,0.4,1.2,0.8c0.4,0.4,0.6,0.8,0.8,1.3
		c0.2,0.6,0.3,1.2,0.3,1.8v1.4c0,0.6-0.1,1.2-0.3,1.8c-0.2,0.5-0.4,0.9-0.8,1.3c-0.3,0.3-0.8,0.6-1.2,0.8
		C57.3,526.8,56.8,526.9,56.3,526.9z M56.3,518.4c-0.3,0-0.7,0.1-1,0.2c-0.3,0.1-0.6,0.3-0.8,0.5c-0.2,0.3-0.4,0.6-0.5,1
		c-0.1,0.5-0.2,0.9-0.2,1.4v1.1c0,0.5,0.1,1,0.2,1.4c0.1,0.4,0.3,0.7,0.5,1c0.2,0.2,0.5,0.4,0.8,0.5c0.3,0.1,0.7,0.2,1,0.2
		c0.3,0,0.7-0.1,1-0.2c0.3-0.1,0.6-0.3,0.8-0.5c0.2-0.3,0.4-0.6,0.5-1c0.1-0.5,0.2-0.9,0.2-1.4v-1.1c0-0.5-0.1-1-0.2-1.4
		c-0.1-0.4-0.3-0.7-0.5-1c-0.2-0.2-0.5-0.4-0.8-0.5C57,518.5,56.6,518.4,56.3,518.4z M64.9,525.8c0.5,0,1.1-0.1,1.5-0.4
		c0.3-0.2,0.5-0.6,0.5-1v-0.2c0-0.2,0-0.4-0.1-0.5c-0.1-0.2-0.2-0.3-0.4-0.4c-0.2-0.1-0.4-0.3-0.6-0.3c-0.3-0.1-0.6-0.2-1-0.3
		c-0.4-0.1-0.8-0.2-1.2-0.3c-0.4-0.1-0.7-0.3-1-0.5c-0.3-0.2-0.5-0.4-0.7-0.7c-0.2-0.3-0.3-0.7-0.2-1.1v-0.2c0-0.3,0.1-0.6,0.2-0.9
		c0.1-0.3,0.3-0.6,0.6-0.8c0.3-0.3,0.6-0.4,1-0.6c0.5-0.2,0.9-0.2,1.4-0.2c0.5,0,1.1,0.1,1.6,0.2c0.5,0.1,0.9,0.3,1.3,0.6l-0.6,1
		c-0.3-0.2-0.7-0.4-1.1-0.5c-0.4-0.1-0.8-0.2-1.2-0.2c-0.5,0-1,0.1-1.4,0.4c-0.3,0.2-0.5,0.6-0.5,0.9v0.2c0,0.2,0,0.4,0.1,0.6
		c0.1,0.2,0.2,0.3,0.4,0.4c0.2,0.1,0.4,0.2,0.7,0.3c0.3,0.1,0.6,0.2,0.9,0.2c0.5,0.1,1,0.3,1.4,0.4c0.3,0.1,0.7,0.3,0.9,0.6
		c0.2,0.2,0.4,0.4,0.5,0.7c0.1,0.3,0.2,0.6,0.2,0.9v0.2c0,0.4-0.1,0.8-0.3,1.1c-0.2,0.3-0.4,0.6-0.7,0.8c-0.3,0.2-0.7,0.4-1.1,0.5
		c-0.4,0.1-0.9,0.2-1.3,0.2c-0.6,0-1.3-0.1-1.8-0.3c-0.5-0.2-1-0.5-1.4-0.8l0.7-1.1c0.2,0.1,0.4,0.3,0.6,0.4
		c0.2,0.1,0.5,0.2,0.7,0.3c0.2,0.1,0.5,0.2,0.7,0.2C64.5,525.7,64.7,525.8,64.9,525.8z"/>
	<path id="패스_98" class="st6" d="M242.9,517.4h3.3c2,0,3,0.8,3,2.3v0.3c0,0.2,0,0.4-0.1,0.6c-0.1,0.2-0.1,0.4-0.3,0.5
		c-0.1,0.2-0.3,0.3-0.5,0.4c-0.2,0.1-0.5,0.2-0.7,0.3c0.5,0.1,1,0.3,1.4,0.7c0.4,0.4,0.6,0.9,0.5,1.5v0.3c0,0.7-0.2,1.3-0.7,1.8
		c-0.7,0.5-1.5,0.7-2.3,0.7h-3.7L242.9,517.4z M244.2,525.7h2c0.3,0,0.6,0,1-0.1c0.2,0,0.5-0.1,0.7-0.2c0.2-0.1,0.3-0.2,0.4-0.4
		c0.1-0.2,0.1-0.4,0.1-0.7V524c0-0.2,0-0.5-0.1-0.7c-0.1-0.2-0.2-0.4-0.4-0.5c-0.2-0.1-0.5-0.2-0.8-0.3c-0.4-0.1-0.8-0.1-1.2-0.1
		h-1.7L244.2,525.7z M244.2,518.5v2.8h1.7c0.3,0,0.6,0,0.9-0.1c0.2,0,0.4-0.1,0.6-0.2c0.2-0.1,0.3-0.3,0.4-0.4
		c0.1-0.2,0.1-0.5,0.1-0.7v-0.2c0-0.2,0-0.5-0.1-0.7c-0.1-0.2-0.2-0.3-0.4-0.4c-0.2-0.1-0.4-0.1-0.7-0.2c-0.3,0-0.6,0-0.9,0
		L244.2,518.5z M252.5,517.4v9.4h-1.3v-9.4H252.5z M261.5,526.1c-0.4,0.3-0.9,0.5-1.5,0.6c-0.6,0.1-1.1,0.2-1.7,0.2
		c-0.6,0-1.1-0.1-1.7-0.3c-0.5-0.2-0.9-0.4-1.3-0.8c-0.4-0.4-0.6-0.8-0.8-1.3c-0.2-0.6-0.3-1.2-0.3-1.8v-1.4c0-0.6,0.1-1.2,0.3-1.8
		c0.2-0.5,0.4-0.9,0.8-1.3c0.3-0.4,0.8-0.6,1.2-0.8c0.5-0.2,1.1-0.3,1.6-0.3c0.6,0,1.1,0.1,1.7,0.2c0.5,0.2,1,0.4,1.4,0.8l-0.7,1
		c-0.4-0.3-0.8-0.5-1.2-0.7c-0.4-0.1-0.8-0.2-1.2-0.2c-0.7,0-1.4,0.2-1.9,0.7c-0.5,0.7-0.8,1.5-0.7,2.4v1.1
		c-0.1,0.9,0.2,1.7,0.7,2.4c0.5,0.5,1.3,0.8,2,0.7c0.3,0,0.7,0,1-0.1c0.3-0.1,0.6-0.2,0.9-0.3v-2.6h-2.1v-1.1h3.4L261.5,526.1z
		 M266.4,517.4c1.1-0.1,2.1,0.3,2.9,1c0.7,0.8,1.1,1.9,1,3v1.3c0.1,1.1-0.3,2.1-1,3c-0.8,0.7-1.9,1.1-3,1h-3.1v-9.4H266.4z
		 M264.6,525.6h1.7c0.4,0,0.8,0,1.1-0.2c0.3-0.1,0.6-0.3,0.9-0.5c0.3-0.3,0.4-0.6,0.6-0.9c0.1-0.4,0.2-0.9,0.2-1.4v-1.2
		c0-0.5-0.1-0.9-0.2-1.4c-0.1-0.3-0.3-0.7-0.6-0.9c-0.2-0.2-0.5-0.4-0.9-0.5c-0.4-0.1-0.7-0.2-1.1-0.2h-1.7L264.6,525.6z
		 M279.7,526.8h-1.4l-1-2.8h-3.6l-1,2.8h-1.3l3.5-9.4h1.2L279.7,526.8z M274.2,522.9h2.8l-0.8-2.2l-0.2-0.5
		c-0.1-0.1-0.1-0.3-0.1-0.4l-0.1-0.4c0-0.1-0.1-0.3-0.2-0.5c-0.1,0.2-0.1,0.4-0.2,0.6s-0.1,0.3-0.1,0.4l-0.1,0.4
		c0,0.1-0.1,0.3-0.2,0.5L274.2,522.9z M283,526.8v-8.3h-2.9v-1.1h7v1.1h-2.9v8.3H283z M295.9,526.8h-1.4l-1-2.8h-3.6l-1,2.8h-1.3
		l3.5-9.4h1.2L295.9,526.8z M290.3,522.9h2.8l-0.8-2.2l-0.2-0.5c-0.1-0.1-0.1-0.3-0.1-0.4l-0.1-0.4c0-0.1-0.1-0.3-0.2-0.5
		c-0.1,0.2-0.1,0.4-0.2,0.6c0,0.2-0.1,0.3-0.1,0.4l-0.1,0.4c0,0.1-0.1,0.3-0.2,0.5L290.3,522.9z"/>
	<path id="bxs-calculator" d="M37.9,500.9h23.4c2.2,0,3.9-1.7,3.9-3.9v-31.2c0-2.1-1.7-3.9-3.9-3.9H37.9c-2.2,0-3.9,1.7-3.9,3.9V497
		C34,499.2,35.7,500.9,37.9,500.9z M43.7,495.1h-3.9v-3.9h3.9V495.1z M43.7,487.3h-3.9v-3.9h3.9V487.3z M43.7,479.5h-3.9v-3.9h3.9
		V479.5z M51.5,495.1h-3.9v-3.9h3.9V495.1z M51.5,487.3h-3.9v-3.9h3.9V487.3z M51.5,479.5h-3.9v-3.9h3.9V479.5z M59.3,495.1h-3.9
		v-11.7h3.9V495.1z M59.3,479.5h-3.9v-3.9h3.9V479.5z M37.9,465.9h23.4v5.8H37.9V465.9z"/>
	<path id="bx-data_1_" d="M285.2,491.2v-19.5c0-4.2-7.1-7.8-15.6-7.8c-8.4,0-15.6,3.6-15.6,7.8v19.5c0,4.2,7.1,7.8,15.6,7.8
		S285.2,495.4,285.2,491.2z M269.6,467.9c7.2,0,11.5,2.9,11.7,3.9c-0.1,1-4.5,3.9-11.7,3.9s-11.5-2.9-11.7-3.9
		C258,470.8,262.4,467.9,269.6,467.9z M257.9,476.8c3.6,1.9,7.6,2.8,11.7,2.7c4.1,0.1,8.1-0.8,11.7-2.7v4.6c-0.1,1-4.5,3.9-11.7,3.9
		c-7.2,0-11.6-2.9-11.7-3.9V476.8z M257.9,491.2v-4.7c3.6,1.9,7.6,2.8,11.7,2.7c4.1,0.1,8.1-0.8,11.7-2.7v4.6
		c-0.1,1-4.5,3.9-11.7,3.9S258,492.2,257.9,491.2L257.9,491.2z"/>
	<g id="bxs-hdd" transform="translate(141 465.94)">
		<path id="패스_76" class="st7" d="M30.8,21.2h3.8V25h-3.8V21.2z M23.1,21.2h3.8V25h-3.8V21.2z"/>
		<path id="패스_77" d="M34.6,15.4H3.8c-2.1,0-3.8,1.7-3.8,3.8v7.7c0,2.1,1.7,3.8,3.8,3.8h30.8c2.1,0,3.8-1.7,3.8-3.8v-7.7
			C38.5,17.1,36.8,15.4,34.6,15.4z M26.9,25h-3.8v-3.9h3.8L26.9,25z M34.6,25h-3.8v-3.9h3.8L34.6,25z M34.6,1.5
			c-0.2-0.9-1-1.5-1.9-1.5h-25C6.9,0,6.2,0.5,5.9,1.2L2.2,11.5H37L34.6,1.5z"/>
	</g>
	<path id="패스_99" class="st6" d="M114.1,526.1c-0.4,0.3-0.9,0.5-1.5,0.6c-0.6,0.1-1.1,0.2-1.7,0.2c-0.6,0-1.1-0.1-1.7-0.3
		c-0.5-0.2-0.9-0.4-1.3-0.8c-0.4-0.4-0.6-0.8-0.8-1.3c-0.2-0.6-0.3-1.2-0.3-1.8v-1.4c0-0.6,0.1-1.2,0.3-1.8c0.2-0.5,0.4-0.9,0.8-1.3
		c0.3-0.4,0.8-0.6,1.2-0.8c0.5-0.2,1.1-0.3,1.6-0.3c0.6,0,1.1,0.1,1.7,0.2c0.5,0.2,1,0.4,1.4,0.8l-0.7,1c-0.4-0.3-0.8-0.5-1.2-0.7
		c-0.4-0.1-0.8-0.2-1.2-0.2c-0.7,0-1.4,0.2-1.9,0.7c-0.5,0.7-0.8,1.5-0.7,2.4v1.1c-0.1,0.9,0.2,1.7,0.8,2.4c0.5,0.5,1.3,0.8,2,0.7
		c0.3,0,0.7,0,1-0.1c0.3-0.1,0.6-0.2,0.9-0.3v-2.6h-2.1v-1.1h3.4L114.1,526.1z M119.4,526.9c-0.5,0-1-0.1-1.5-0.3
		c-0.5-0.2-0.9-0.4-1.2-0.8c-0.4-0.4-0.6-0.8-0.8-1.3c-0.2-0.6-0.3-1.2-0.3-1.8v-1.4c0-0.6,0.1-1.2,0.3-1.8c0.2-0.5,0.4-0.9,0.8-1.3
		c0.3-0.3,0.8-0.6,1.2-0.8c0.5-0.2,1-0.3,1.5-0.3c0.5,0,1,0.1,1.5,0.3c0.5,0.2,0.9,0.4,1.2,0.8c0.4,0.4,0.6,0.8,0.8,1.3
		c0.2,0.6,0.3,1.2,0.3,1.8v1.4c0,0.6-0.1,1.2-0.3,1.8c-0.2,0.5-0.4,0.9-0.8,1.3c-0.3,0.3-0.8,0.6-1.2,0.8
		C120.4,526.8,119.9,526.9,119.4,526.9z M119.4,518.4c-0.3,0-0.7,0.1-1,0.2c-0.3,0.1-0.6,0.3-0.8,0.5c-0.2,0.3-0.4,0.6-0.5,1
		c-0.1,0.5-0.2,0.9-0.2,1.4v1.1c0,0.5,0.1,1,0.2,1.4c0.1,0.4,0.3,0.7,0.5,1c0.2,0.2,0.5,0.4,0.8,0.5c0.3,0.1,0.7,0.2,1,0.2
		c0.3,0,0.7-0.1,1-0.2c0.3-0.1,0.6-0.3,0.8-0.5c0.2-0.3,0.4-0.6,0.5-1c0.1-0.5,0.2-0.9,0.2-1.4v-1.1c0-0.5-0.1-1-0.2-1.4
		c-0.1-0.4-0.3-0.7-0.5-1c-0.2-0.2-0.5-0.4-0.8-0.5C120.1,518.5,119.7,518.4,119.4,518.4z M126.3,517.4v8.3h4.5v1.1H125v-9.4H126.3z
		 M137.9,517.4v1.1h-4.5v3.1h4.2v1.1h-4.2v4h-1.3v-9.4H137.9z M145.8,525.8c0.5,0,1.1-0.1,1.5-0.4c0.3-0.2,0.5-0.6,0.5-1v-0.2
		c0-0.2,0-0.4-0.1-0.5c-0.1-0.2-0.2-0.3-0.4-0.4c-0.2-0.1-0.4-0.3-0.6-0.3c-0.3-0.1-0.6-0.2-1-0.3c-0.4-0.1-0.8-0.2-1.2-0.3
		c-0.4-0.1-0.7-0.3-1-0.5c-0.3-0.2-0.5-0.4-0.7-0.7c-0.2-0.3-0.3-0.7-0.2-1.1v-0.2c0-0.3,0.1-0.6,0.2-0.9c0.1-0.3,0.3-0.6,0.6-0.8
		c0.3-0.3,0.6-0.4,1-0.6c0.5-0.2,0.9-0.2,1.4-0.2c0.5,0,1.1,0.1,1.6,0.2c0.5,0.1,0.9,0.3,1.3,0.6l-0.6,1c-0.3-0.2-0.7-0.4-1.1-0.5
		c-0.4-0.1-0.8-0.2-1.2-0.2c-0.5,0-1,0.1-1.4,0.4c-0.3,0.2-0.5,0.6-0.5,0.9v0.2c0,0.2,0,0.4,0.1,0.6c0.1,0.2,0.2,0.3,0.4,0.4
		c0.2,0.1,0.4,0.2,0.7,0.3c0.3,0.1,0.6,0.2,0.9,0.2c0.5,0.1,1,0.3,1.4,0.4c0.3,0.1,0.7,0.3,0.9,0.6c0.2,0.2,0.4,0.4,0.5,0.7
		c0.1,0.3,0.2,0.6,0.2,0.9v0.2c0,0.4-0.1,0.8-0.3,1.1c-0.2,0.3-0.4,0.6-0.7,0.8c-0.3,0.2-0.7,0.4-1.1,0.5c-0.4,0.1-0.9,0.2-1.3,0.2
		c-0.6,0-1.3-0.1-1.8-0.3c-0.5-0.2-1-0.5-1.4-0.8l0.6-1.1c0.2,0.1,0.4,0.3,0.6,0.4c0.2,0.1,0.5,0.2,0.7,0.3c0.2,0.1,0.5,0.2,0.7,0.2
		C145.3,525.7,145.5,525.8,145.8,525.8z M152.1,517.4v9.4h-1.3v-9.4H152.1z M155.9,520c0-0.1-0.1-0.2-0.1-0.3c0-0.1-0.1-0.2-0.1-0.3
		l-0.1-0.3c0-0.1-0.1-0.3-0.1-0.4v8.1h-1.2v-9.4h1.9l2.6,6.1l2.5-6.1h1.9v9.4h-1.2v-8.1c0,0.2-0.1,0.3-0.1,0.4
		c0,0.1-0.1,0.2-0.1,0.3c0,0.1-0.1,0.2-0.1,0.3c0,0.1-0.1,0.2-0.1,0.3l-2.2,5.2h-1.1L155.9,520z M172.1,517.4v5.6
		c0,0.6-0.1,1.2-0.2,1.8c-0.1,0.5-0.4,0.9-0.7,1.2c-0.3,0.3-0.7,0.5-1.1,0.7c-0.5,0.1-1,0.2-1.5,0.2c-0.5,0-1-0.1-1.5-0.2
		c-0.4-0.1-0.8-0.4-1.1-0.7c-0.3-0.3-0.5-0.8-0.7-1.2c-0.2-0.6-0.2-1.2-0.2-1.8v-5.6h1.3v5.5c0,0.5,0,0.9,0.1,1.3
		c0.1,0.3,0.2,0.6,0.4,0.9c0.2,0.2,0.4,0.4,0.7,0.5c0.3,0.1,0.6,0.2,1,0.2c0.3,0,0.7,0,1-0.2c0.3-0.1,0.5-0.3,0.7-0.5
		c0.2-0.3,0.3-0.6,0.4-0.9c0.1-0.4,0.1-0.9,0.1-1.3v-5.5H172.1z M175.4,517.4v8.3h4.5v1.1h-5.8v-9.4H175.4z M188.7,526.8h-1.4
		l-1-2.8h-3.6l-1,2.8h-1.3l3.5-9.4h1.2L188.7,526.8z M183.1,522.9h2.8l-0.8-2.2l-0.2-0.5c-0.1-0.1-0.1-0.3-0.1-0.4l-0.1-0.4
		c0-0.1-0.1-0.3-0.2-0.5c-0.1,0.2-0.1,0.4-0.2,0.6c0,0.2-0.1,0.3-0.1,0.4l-0.1,0.4c0,0.1-0.1,0.3-0.2,0.5L183.1,522.9z M192,526.8
		v-8.3h-2.9v-1.1h7v1.1h-2.9v8.3H192z M200.9,526.9c-0.5,0-1-0.1-1.5-0.3c-0.5-0.2-0.9-0.4-1.2-0.8c-0.4-0.4-0.6-0.8-0.8-1.3
		c-0.2-0.6-0.3-1.2-0.3-1.8v-1.4c0-0.6,0.1-1.2,0.3-1.8c0.2-0.5,0.4-0.9,0.8-1.3c0.3-0.3,0.8-0.6,1.2-0.8c0.5-0.2,1-0.3,1.5-0.3
		c0.5,0,1,0.1,1.5,0.3c0.5,0.2,0.9,0.4,1.2,0.8c0.4,0.4,0.6,0.8,0.8,1.3c0.2,0.6,0.3,1.2,0.3,1.8v1.4c0,0.6-0.1,1.2-0.3,1.8
		c-0.2,0.5-0.4,0.9-0.8,1.3c-0.3,0.3-0.8,0.6-1.2,0.8C202,526.8,201.5,526.9,200.9,526.9z M200.9,518.4c-0.3,0-0.7,0.1-1,0.2
		c-0.3,0.1-0.6,0.3-0.8,0.5c-0.2,0.3-0.4,0.6-0.5,1c-0.1,0.5-0.2,0.9-0.2,1.4v1.1c0,0.5,0.1,1,0.2,1.4c0.1,0.4,0.3,0.7,0.5,1
		c0.2,0.2,0.5,0.4,0.8,0.5c0.3,0.1,0.7,0.2,1,0.2c0.3,0,0.7-0.1,1-0.2c0.3-0.1,0.6-0.3,0.8-0.5c0.2-0.3,0.4-0.6,0.5-1
		c0.1-0.5,0.2-0.9,0.2-1.4v-1.1c0-0.5-0.1-1-0.2-1.4c-0.1-0.4-0.3-0.7-0.5-1c-0.2-0.2-0.5-0.4-0.8-0.5
		C201.6,518.5,201.3,518.4,200.9,518.4z M207.9,526.8h-1.3v-9.4h3.4c0.4,0,0.9,0.1,1.3,0.2c0.3,0.1,0.7,0.3,0.9,0.5
		c0.2,0.2,0.4,0.5,0.6,0.8c0.1,0.3,0.2,0.7,0.2,1v0.3c0,0.5-0.1,1-0.4,1.4c-0.3,0.4-0.7,0.7-1.2,0.9l1.9,4.2h-1.4l-1.7-3.9h-2.3
		L207.9,526.8z M207.9,521.8h1.8c0.6,0.1,1.1-0.1,1.6-0.4c0.3-0.3,0.5-0.7,0.5-1.1V520c0-0.4-0.1-0.8-0.5-1.1
		c-0.4-0.3-0.9-0.4-1.4-0.4h-1.9V521.8z"/>
	<path id="패스_101" class="st6" d="M11,619h3.3c2,0,3,0.8,3,2.3v0.3c0,0.2,0,0.4-0.1,0.6c-0.1,0.2-0.1,0.4-0.3,0.5
		c-0.1,0.2-0.3,0.3-0.5,0.4c-0.2,0.1-0.5,0.2-0.7,0.3c0.5,0.1,1,0.3,1.4,0.6c0.4,0.4,0.6,0.9,0.5,1.5v0.3c0,0.7-0.2,1.3-0.7,1.8
		c-0.7,0.5-1.5,0.7-2.3,0.7H11V619z M12.3,627.3h2c0.3,0,0.6,0,1-0.1c0.2,0,0.5-0.1,0.7-0.2c0.2-0.1,0.3-0.2,0.4-0.4
		c0.1-0.2,0.1-0.4,0.1-0.7v-0.3c0-0.2,0-0.5-0.1-0.7c-0.1-0.2-0.2-0.4-0.4-0.5c-0.2-0.1-0.5-0.2-0.8-0.3c-0.4-0.1-0.8-0.1-1.2-0.1
		h-1.7L12.3,627.3z M12.3,620.1v2.8H14c0.3,0,0.6,0,0.9-0.1c0.2,0,0.4-0.1,0.6-0.2c0.2-0.1,0.3-0.3,0.4-0.4c0.1-0.2,0.1-0.5,0.1-0.7
		v-0.2c0-0.2,0-0.5-0.1-0.7c-0.1-0.2-0.2-0.3-0.4-0.4c-0.2-0.1-0.4-0.1-0.7-0.2c-0.3,0-0.6,0-0.9,0L12.3,620.1z M20.5,619v8.3H25
		v1.1h-5.8V619H20.5z M29.9,628.5c-0.5,0-1-0.1-1.5-0.3c-0.5-0.2-0.9-0.4-1.2-0.8c-0.4-0.4-0.6-0.8-0.8-1.3
		c-0.2-0.6-0.3-1.2-0.3-1.8V623c0-0.6,0.1-1.2,0.3-1.8c0.2-0.5,0.4-0.9,0.8-1.3c0.3-0.3,0.8-0.6,1.2-0.8c0.5-0.2,1-0.3,1.5-0.3
		c0.5,0,1,0.1,1.5,0.3c0.5,0.2,0.9,0.4,1.2,0.8c0.4,0.4,0.6,0.8,0.8,1.3c0.2,0.6,0.3,1.2,0.3,1.8v1.4c0,0.6-0.1,1.2-0.3,1.8
		c-0.2,0.5-0.4,0.9-0.8,1.3c-0.3,0.3-0.8,0.6-1.2,0.8C30.9,628.5,30.4,628.5,29.9,628.5z M29.9,620c-0.3,0-0.7,0.1-1,0.2
		c-0.3,0.1-0.6,0.3-0.8,0.5c-0.2,0.3-0.4,0.6-0.5,1c-0.1,0.5-0.2,0.9-0.2,1.4v1.1c0,0.5,0.1,1,0.2,1.4c0.1,0.4,0.3,0.7,0.5,1
		c0.2,0.2,0.5,0.4,0.8,0.5c0.3,0.1,0.7,0.2,1,0.2c0.3,0,0.7-0.1,1-0.2c0.3-0.1,0.6-0.3,0.8-0.5c0.2-0.3,0.4-0.6,0.5-1
		c0.1-0.5,0.2-0.9,0.2-1.4v-1.1c0-0.5-0.1-1-0.2-1.4c-0.1-0.4-0.3-0.7-0.5-1c-0.2-0.2-0.5-0.4-0.8-0.5C30.6,620.1,30.2,620,29.9,620
		z M42.3,627.3c-0.4,0.4-1,0.7-1.5,0.9c-0.6,0.2-1.2,0.3-1.8,0.3c-0.5,0-1-0.1-1.5-0.3c-0.4-0.2-0.9-0.4-1.2-0.8
		c-0.3-0.4-0.6-0.8-0.8-1.3c-0.2-0.6-0.3-1.2-0.3-1.8V623c0-0.6,0.1-1.2,0.3-1.8c0.2-0.5,0.4-0.9,0.8-1.3c0.3-0.3,0.7-0.6,1.2-0.8
		c0.5-0.2,1-0.3,1.5-0.3c0.6,0,1.1,0.1,1.7,0.2c0.5,0.2,1,0.4,1.4,0.8l-0.7,1.1c-0.4-0.3-0.8-0.5-1.2-0.7c-0.4-0.1-0.8-0.2-1.2-0.2
		c-0.3,0-0.7,0.1-1,0.2c-0.3,0.1-0.6,0.3-0.8,0.6c-0.2,0.3-0.4,0.6-0.5,1c-0.1,0.5-0.2,0.9-0.2,1.4v1.1c0,0.5,0.1,0.9,0.2,1.4
		c0.1,0.4,0.3,0.7,0.5,1c0.2,0.2,0.5,0.4,0.8,0.6c0.3,0.1,0.6,0.2,1,0.2c0.5,0,0.9-0.1,1.4-0.2c0.5-0.2,0.9-0.4,1.3-0.8L42.3,627.3z
		 M47.1,623.1l4,5.3h-1.6l-3.2-4.4l-1,1.1v3.3h-1.3V619h1.3v4.5l4.1-4.5h1.6L47.1,623.1z M59.2,627.3c-0.4,0.4-1,0.7-1.5,0.9
		c-0.6,0.2-1.2,0.3-1.8,0.3c-0.5,0-1-0.1-1.5-0.3c-0.4-0.2-0.9-0.4-1.2-0.8c-0.3-0.4-0.6-0.8-0.8-1.3c-0.2-0.6-0.3-1.2-0.3-1.8V623
		c0-0.6,0.1-1.2,0.3-1.8c0.2-0.5,0.4-0.9,0.8-1.3c0.3-0.3,0.7-0.6,1.2-0.8c0.5-0.2,1-0.3,1.5-0.3c0.6,0,1.1,0.1,1.7,0.2
		c0.5,0.2,1,0.4,1.4,0.8l-0.7,1.1c-0.4-0.3-0.8-0.5-1.2-0.7c-0.4-0.1-0.8-0.2-1.2-0.2c-0.3,0-0.7,0.1-1,0.2
		c-0.3,0.1-0.6,0.3-0.8,0.6c-0.2,0.3-0.4,0.6-0.5,1c-0.1,0.5-0.2,0.9-0.2,1.4v1.1c0,0.5,0.1,0.9,0.2,1.4c0.1,0.4,0.3,0.7,0.5,1
		c0.2,0.2,0.5,0.4,0.8,0.6c0.3,0.1,0.6,0.2,1,0.2c0.5,0,0.9-0.1,1.4-0.2c0.5-0.2,0.9-0.4,1.3-0.8L59.2,627.3z M67.7,619v9.4h-1.3
		v-4.3h-4.4v4.3h-1.3V619h1.3v3.9h4.4V619H67.7z M77.3,628.4h-1.4l-1-2.8h-3.6l-1,2.8H69l3.5-9.4h1.2L77.3,628.4z M71.7,624.5h2.8
		l-0.8-2.2l-0.2-0.5c-0.1-0.1-0.1-0.3-0.1-0.4l-0.1-0.4c0-0.1-0.1-0.3-0.2-0.5c-0.1,0.2-0.1,0.4-0.2,0.6c0,0.2-0.1,0.3-0.1,0.4
		l-0.1,0.4c0,0.1-0.1,0.3-0.2,0.5L71.7,624.5z M79.9,619v9.4h-1.3V619H79.9z M83.5,619l3.6,6.3c0.1,0.2,0.2,0.4,0.3,0.6
		c0.1,0.2,0.2,0.5,0.3,0.8V619H89v9.4h-1.5l-3.6-6.3c-0.1-0.2-0.2-0.4-0.3-0.6s-0.2-0.5-0.3-0.8v7.7H82V619H83.5z"/>
	<path id="패스_102" class="st6" d="M124.5,627.4c0.5,0,1.1-0.1,1.5-0.4c0.3-0.2,0.5-0.6,0.5-1v-0.2c0-0.2,0-0.4-0.1-0.5
		c-0.1-0.2-0.2-0.3-0.4-0.4c-0.2-0.1-0.4-0.3-0.6-0.3c-0.3-0.1-0.6-0.2-1-0.3c-0.4-0.1-0.8-0.2-1.2-0.3c-0.4-0.1-0.7-0.3-1-0.5
		c-0.3-0.2-0.5-0.4-0.7-0.7c-0.2-0.3-0.3-0.7-0.2-1.1v-0.2c0-0.3,0.1-0.6,0.2-0.9c0.1-0.3,0.3-0.6,0.6-0.8c0.3-0.3,0.6-0.4,1-0.6
		c0.5-0.2,0.9-0.2,1.4-0.2c0.5,0,1.1,0.1,1.6,0.2c0.5,0.1,0.9,0.3,1.3,0.6l-0.6,1c-0.3-0.2-0.7-0.4-1.1-0.5
		c-0.4-0.1-0.8-0.2-1.2-0.2c-0.5,0-1,0.1-1.4,0.4c-0.3,0.2-0.5,0.6-0.5,0.9v0.2c0,0.2,0,0.4,0.1,0.6c0.1,0.2,0.2,0.3,0.4,0.4
		c0.2,0.1,0.4,0.2,0.7,0.3c0.3,0.1,0.6,0.2,0.9,0.2c0.5,0.1,1,0.3,1.4,0.4c0.3,0.1,0.7,0.3,0.9,0.6c0.2,0.2,0.4,0.4,0.5,0.7
		c0.1,0.3,0.2,0.6,0.2,0.9v0.2c0,0.4-0.1,0.8-0.3,1.1c-0.2,0.3-0.4,0.6-0.7,0.8c-0.3,0.2-0.7,0.4-1.1,0.5c-0.4,0.1-0.9,0.2-1.3,0.2
		c-0.6,0-1.3-0.1-1.8-0.3c-0.5-0.2-1-0.5-1.4-0.8l0.7-1.1c0.2,0.1,0.4,0.3,0.6,0.4c0.2,0.1,0.5,0.2,0.7,0.3c0.2,0.1,0.5,0.2,0.7,0.2
		C124,627.3,124.2,627.4,124.5,627.4z M131.2,621.6c0-0.1-0.1-0.2-0.1-0.3c0-0.1-0.1-0.2-0.1-0.3l-0.1-0.3c0-0.1-0.1-0.3-0.1-0.4
		v8.1h-1.2V619h1.9l2.6,6.1l2.5-6.1h1.9v9.4h-1.2v-8.1c0,0.2-0.1,0.3-0.1,0.4c0,0.1-0.1,0.2-0.1,0.3c0,0.1-0.1,0.2-0.1,0.3
		c0,0.1-0.1,0.2-0.1,0.3l-2.2,5.2h-1.1L131.2,621.6z M148,628.4h-1.4l-1-2.8H142l-1,2.8h-1.3l3.5-9.4h1.2L148,628.4z M142.4,624.5
		h2.8l-0.8-2.2l-0.2-0.5c-0.1-0.1-0.1-0.3-0.1-0.4L144,621c0-0.1-0.1-0.3-0.2-0.5c-0.1,0.2-0.1,0.4-0.2,0.6c0,0.2-0.1,0.3-0.1,0.4
		l-0.1,0.4c0,0.1-0.1,0.3-0.2,0.5L142.4,624.5z M150.6,628.4h-1.3V619h3.4c0.4,0,0.9,0.1,1.3,0.2c0.3,0.1,0.7,0.3,0.9,0.5
		c0.2,0.2,0.4,0.5,0.6,0.8c0.1,0.3,0.2,0.7,0.2,1v0.3c0,0.5-0.1,1-0.4,1.4c-0.3,0.4-0.7,0.7-1.2,0.9l1.9,4.2h-1.4l-1.7-3.9h-2.3
		L150.6,628.4z M150.6,623.4h1.8c0.5,0.1,1.1-0.1,1.6-0.4c0.3-0.3,0.5-0.7,0.5-1.1v-0.3c0-0.4-0.1-0.8-0.5-1.1
		c-0.4-0.3-0.9-0.4-1.4-0.4h-1.9V623.4z M159.7,628.4v-8.3h-2.9V619h7v1.1H161v8.3H159.7z M170.9,619v1.1h-4.5v3.1h4.2v1.1h-4.2v4
		h-1.3V619H170.9z M179.9,628.4h-1.4l-1-2.8H174l-1,2.8h-1.3l3.5-9.4h1.2L179.9,628.4z M174.4,624.5h2.8l-0.8-2.2l-0.2-0.5
		c-0.1-0.1-0.1-0.3-0.1-0.4l-0.1-0.4c0-0.1-0.1-0.3-0.2-0.5c-0.1,0.2-0.1,0.4-0.2,0.6s-0.1,0.3-0.1,0.4l-0.1,0.4
		c0,0.1-0.1,0.3-0.2,0.5L174.4,624.5z M182.5,628.4h-1.3V619h3.4c0.4,0,0.9,0.1,1.3,0.2c0.3,0.1,0.7,0.3,0.9,0.5
		c0.2,0.2,0.4,0.5,0.6,0.8c0.1,0.3,0.2,0.7,0.2,1v0.3c0,0.5-0.1,1-0.4,1.4c-0.3,0.4-0.7,0.7-1.2,0.9l1.9,4.2h-1.4l-1.7-3.9h-2.3
		L182.5,628.4z M182.5,623.4h1.8c0.6,0.1,1.1-0.1,1.6-0.4c0.3-0.3,0.5-0.7,0.5-1.1v-0.3c0-0.4-0.1-0.8-0.5-1.1
		c-0.4-0.3-0.9-0.4-1.4-0.4h-1.9V623.4z M191.3,621.6c0-0.1-0.1-0.2-0.1-0.3c0-0.1-0.1-0.2-0.1-0.3l-0.1-0.3c0-0.1-0.1-0.3-0.1-0.4
		v8.1h-1.2V619h1.9l2.6,6.1l2.5-6.1h1.9v9.4h-1.2v-8.1c0,0.2-0.1,0.3-0.1,0.4c0,0.1-0.1,0.2-0.1,0.3c0,0.1-0.1,0.2-0.1,0.3
		c0,0.1-0.1,0.2-0.1,0.3l-2.2,5.2h-1.1L191.3,621.6z"/>
	<path id="패스_103" class="st6" d="M258.4,619l-2.6,9.4h-1.3l-2.1-7.7l-2.1,7.7H249l-2.6-9.4h1.4l1.9,7.7l2.1-7.7h1.2l2.1,7.7
		l2-7.7H258.4z M265.7,619v1.1h-4.5v2.9h4.3v1.1h-4.3v3.2h4.6v1.1h-5.9V619H265.7z M267.6,619h3.3c2,0,3,0.8,3,2.3v0.3
		c0,0.2,0,0.4-0.1,0.6c-0.1,0.2-0.1,0.4-0.3,0.5c-0.1,0.2-0.3,0.3-0.5,0.4c-0.2,0.1-0.5,0.2-0.7,0.3c0.5,0.1,1,0.3,1.4,0.7
		c0.4,0.4,0.6,0.9,0.5,1.5v0.3c0,0.7-0.2,1.4-0.7,1.8c-0.7,0.5-1.5,0.7-2.3,0.7h-3.7V619z M268.9,627.3h2c0.3,0,0.6,0,1-0.1
		c0.2,0,0.5-0.1,0.7-0.2c0.2-0.1,0.3-0.2,0.4-0.4c0.1-0.2,0.1-0.4,0.1-0.7v-0.3c0-0.2,0-0.5-0.1-0.7c-0.1-0.2-0.2-0.4-0.4-0.5
		c-0.2-0.1-0.5-0.2-0.8-0.3c-0.4-0.1-0.8-0.1-1.2-0.1h-1.7V627.3z M268.9,620.1v2.8h1.7c0.3,0,0.6,0,0.9-0.1c0.2,0,0.4-0.1,0.6-0.2
		c0.2-0.1,0.3-0.3,0.4-0.4c0.1-0.2,0.1-0.5,0.1-0.7v-0.2c0-0.2,0-0.5-0.1-0.7c-0.1-0.2-0.2-0.3-0.4-0.4c-0.2-0.1-0.4-0.1-0.7-0.2
		c-0.3,0-0.6,0-0.9,0L268.9,620.1z M280.2,618.1l-4,11.6H275l4-11.6H280.2z M284.5,627.4c0.5,0,1.1-0.1,1.5-0.4
		c0.3-0.2,0.5-0.6,0.5-1v-0.2c0-0.2,0-0.4-0.1-0.5c-0.1-0.2-0.2-0.3-0.4-0.4c-0.2-0.1-0.4-0.3-0.6-0.3c-0.3-0.1-0.6-0.2-1-0.3
		c-0.4-0.1-0.8-0.2-1.2-0.3c-0.4-0.1-0.7-0.3-1-0.5c-0.3-0.2-0.5-0.4-0.7-0.7c-0.2-0.3-0.3-0.7-0.2-1.1v-0.2c0-0.3,0.1-0.6,0.2-0.9
		c0.1-0.3,0.3-0.6,0.6-0.8c0.3-0.2,0.6-0.4,1-0.6c0.5-0.2,0.9-0.2,1.4-0.2c0.5,0,1.1,0.1,1.6,0.2c0.5,0.1,0.9,0.3,1.3,0.6l-0.6,1
		c-0.3-0.2-0.7-0.4-1.1-0.5c-0.4-0.1-0.8-0.2-1.2-0.2c-0.5,0-1,0.1-1.4,0.4c-0.3,0.2-0.5,0.6-0.5,0.9v0.2c0,0.2,0,0.4,0.1,0.6
		c0.1,0.2,0.2,0.3,0.4,0.4c0.2,0.1,0.4,0.2,0.7,0.3c0.3,0.1,0.6,0.2,0.9,0.2c0.5,0.1,1,0.3,1.5,0.4c0.3,0.1,0.7,0.3,0.9,0.6
		c0.2,0.2,0.4,0.4,0.5,0.7c0.1,0.3,0.2,0.6,0.1,0.9v0.2c0,0.4-0.1,0.8-0.3,1.1c-0.2,0.3-0.4,0.6-0.7,0.8c-0.3,0.2-0.7,0.4-1.1,0.5
		c-0.4,0.1-0.9,0.2-1.3,0.2c-0.6,0-1.3-0.1-1.8-0.3c-0.5-0.2-1-0.5-1.4-0.8l0.6-1.1c0.2,0.1,0.4,0.3,0.6,0.4
		c0.2,0.1,0.5,0.2,0.7,0.3c0.2,0.1,0.5,0.2,0.7,0.2C284.1,627.3,284.3,627.4,284.5,627.4L284.5,627.4z M290.8,619v9.4h-1.3V619
		H290.8z"/>
	<path id="bx-radar" d="M160.5,563.6c-10.7,0.1-19.3,8.8-19.5,19.5c0.1,10.7,8.8,19.3,19.5,19.5c10.7-0.1,19.3-8.8,19.5-19.5
		C179.8,572.4,171.2,563.7,160.5,563.6z M160.5,598.6c-8.6-0.1-15.5-7-15.6-15.6c0.1-7.8,5.9-14.4,13.6-15.4v3.9
		c-6.4,1.1-10.7,7.1-9.6,13.4c1.1,6.4,7.1,10.7,13.4,9.6c2.4-0.4,4.6-1.5,6.3-3.3l-2.8-2.8c-3,3-7.9,3.1-11,0c-3-3-3.1-7.9,0-11
		c1-1,2.2-1.7,3.6-2.1v4.2c-1.9,1.1-2.5,3.5-1.4,5.3c1.1,1.9,3.5,2.5,5.3,1.4c1.9-1.1,2.5-3.5,1.4-5.3c-0.3-0.6-0.8-1.1-1.4-1.4
		v-12.1c7.7,1.1,13.5,7.6,13.6,15.4C175.9,591.6,169,598.5,160.5,598.6z"/>
	<path id="bx-window" d="M285.1,567.6h-31.2c-2.2,0-3.9,1.7-3.9,3.9v23.4c0,2.1,1.7,3.9,3.9,3.9h31.2c2.2,0,3.9-1.7,3.9-3.9v-23.4
		C288.9,569.3,287.2,567.6,285.1,567.6z M253.9,594.8v-19.5h31.2v19.5H253.9z"/>
	<g id="bx-link" transform="translate(33 566.23)">
		<path id="패스_72" d="M9.7,15.2c2.3-2.2,5.9-2.2,8.3,0l1.4,1.4l2.8-2.8l-1.4-1.4c-3.8-3.8-10-3.8-13.8,0c0,0,0,0,0,0l-4.1,4.1
			c-3.7,3.9-3.7,10,0.2,13.8c3.8,3.7,9.8,3.7,13.6,0L18,29l-2.8-2.8l-1.4,1.4c-2.3,2.3-6,2.3-8.3,0s-2.3-6,0-8.3L9.7,15.2z"/>
		<path id="패스_73" d="M16.6,2.8l-1.4,1.4L18,7l1.4-1.4c2.3-2.3,6-2.3,8.3,0s2.3,6,0,8.3l0,0L23.5,18c-2.3,2.2-5.9,2.2-8.3,0
			l-1.4-1.4l-2.8,2.8l1.4,1.4c3.8,3.8,10,3.8,13.8,0c0,0,0,0,0,0l4.1-4.1c3.8-3.8,3.8-10,0-13.8C26.6-1,20.4-1,16.6,2.8z"/>
	</g>
</g>
</svg>
