<svg xmlns="http://www.w3.org/2000/svg" width="244" height="97.964" viewBox="0 0 244 97.964">
  <g id="그룹_112" data-name="그룹 112" transform="translate(-28.721 -464.482)">
    <g id="그룹_109" data-name="그룹 109" transform="translate(28.721 464.482)">
      <path id="패스_106" data-name="패스 106" d="M42.292,531.543c0,3.241,1.515,4.674,4.674,4.674,3.013,0,4.672-1.532,4.672-4.674V515.875c0-18.4,6.353-33.36,29.281-33.36,22.463,0,29.278,14.964,29.278,33.36v25.191a4.847,4.847,0,1,1-9.695,0V515.875c0-14.136-5.672-23.663-19.584-23.663-14.266,0-19.584,9.426-19.584,23.663V531.2c0,.119-.027.231-.036.348h.036c0,9.711-6.447,14.371-14.369,14.371S32.6,541.843,32.6,531.543V483.856a4.848,4.848,0,0,1,9.7,0v47.687Z" transform="translate(-24.478 -448.571)" fill="#2583c8"/>
      <g id="그룹_108" data-name="그룹 108">
        <path id="패스_107" data-name="패스 107" d="M41.686,490.412a12.965,12.965,0,1,1,12.965-12.965A12.98,12.98,0,0,1,41.686,490.412Zm0-18.658a5.694,5.694,0,1,0,5.693,5.693A5.7,5.7,0,0,0,41.686,471.755Z" transform="translate(-28.721 -464.482)" fill="#f99900"/>
      </g>
    </g>
    <g id="그룹_111" data-name="그룹 111" transform="translate(125.126 499.397)">
      <g id="그룹_110" data-name="그룹 110" transform="translate(0)">
        <path id="패스_108" data-name="패스 108" d="M96.312,481.6a29.466,29.466,0,0,1,9.062,1.247,17.045,17.045,0,0,1,6.363,3.57,14.254,14.254,0,0,1,3.753,5.59,20.539,20.539,0,0,1,1.222,7.224v1.291a20.585,20.585,0,0,1-1.263,7.312,15.471,15.471,0,0,1-3.836,5.806,17.9,17.9,0,0,1-6.405,3.828,26.584,26.584,0,0,1-8.978,1.376H83.246V539.57a3.053,3.053,0,0,1-1.305,2.753,5.326,5.326,0,0,1-2.994.859,5.117,5.117,0,0,1-2.95-.859,3.088,3.088,0,0,1-1.263-2.753V487.963q0-3.614,1.391-4.989t5.1-1.377Zm-1.1,29.932q6.575,0,9.82-2.667t3.245-8.429V499.4q0-5.588-3.12-8.041t-9.1-2.451H83.246V511.53Z" transform="translate(-74.733 -480.651)" fill="#5f5e5e"/>
        <path id="패스_109" data-name="패스 109" d="M122.539,481.146q12.138,0,18.587,7.226t6.449,22.276v4.044q0,15.051-6.449,22.276T122.539,544.2q-12.138,0-18.587-7.226T97.5,514.692v-4.044q0-15.051,6.449-22.276T122.539,481.146Zm0,7.828q-8.344,0-12.433,5.2t-4.088,17.16V514q0,11.958,4.088,17.118t12.433,5.161q8.344,0,12.433-5.161T139.061,514v-2.665q0-11.955-4.09-17.16T122.539,488.974Z" transform="translate(-49.795 -481.146)" fill="#5f5e5e"/>
        <path id="패스_110" data-name="패스 110" d="M146.342,481.146q9.608,0,15.762,3.526a3.632,3.632,0,0,1,1.856,2.28,3.743,3.743,0,0,1-.423,2.969,3.7,3.7,0,0,1-2.108,1.934,3.62,3.62,0,0,1-2.7-.3,23.563,23.563,0,0,0-5.6-2.02,30.631,30.631,0,0,0-6.619-.645,18.574,18.574,0,0,0-5.267.687,12.307,12.307,0,0,0-3.92,1.892,8.957,8.957,0,0,0-2.487,2.8,6.892,6.892,0,0,0-.884,3.4v.861a8.561,8.561,0,0,0,.591,3.31,6.374,6.374,0,0,0,2.108,2.581,14.789,14.789,0,0,0,4.088,2.064,55.464,55.464,0,0,0,6.533,1.764,56.914,56.914,0,0,1,9.355,2.753,21.176,21.176,0,0,1,6.154,3.654,12.047,12.047,0,0,1,3.373,4.861,17.9,17.9,0,0,1,1.01,6.193v1.2q0,8.086-5.563,12.687t-16.016,4.6a36.808,36.808,0,0,1-10.241-1.421,29.619,29.619,0,0,1-8.387-3.74,3.4,3.4,0,0,1-1.812-2.537,4.461,4.461,0,0,1,.717-3.055,4.043,4.043,0,0,1,2.275-1.85,3.282,3.282,0,0,1,2.782.559,29.891,29.891,0,0,0,7,3.141A27.532,27.532,0,0,0,146,536.453q6.323,0,9.525-2.581a7.963,7.963,0,0,0,3.2-6.451v-.945a9.533,9.533,0,0,0-.675-3.742,6.871,6.871,0,0,0-2.275-2.795,15.393,15.393,0,0,0-4.216-2.108,61.036,61.036,0,0,0-6.489-1.764,62.811,62.811,0,0,1-8.641-2.363,20.453,20.453,0,0,1-6.07-3.312,12.312,12.312,0,0,1-3.583-4.773,17.563,17.563,0,0,1-1.18-6.839v-1.033A15.676,15.676,0,0,1,127,491.167a14.967,14.967,0,0,1,4.046-5.29,19.139,19.139,0,0,1,6.533-3.484A28.618,28.618,0,0,1,146.342,481.146Z" transform="translate(-19.567 -481.146)" fill="#5f5e5e"/>
      </g>
    </g>
  </g>
</svg>
