<?xml version="1.0" encoding="utf-8"?>
<!-- Generator: Adobe Illustrator 23.0.2, SVG Export Plug-In . SVG Version: 6.00 Build 0)  -->
<svg version="1.1" id="레이어_1" xmlns="http://www.w3.org/2000/svg" xmlns:xlink="http://www.w3.org/1999/xlink" x="0px"
	 y="0px" viewBox="0 0 100 100" style="enable-background:new 0 0 100 100;" xml:space="preserve">
<style type="text/css">
	.st0{fill:#C1C0C0;}
	.st1{fill:#5C5D5D;}
	.st2{fill:#4593D0;}
</style>
<g>
	<path class="st0" d="M50,98.2C23.4,98.2,1.8,76.6,1.8,50C1.8,23.4,23.4,1.8,50,1.8c26.6,0,48.2,21.6,48.2,48.2
		C98.2,76.6,76.6,98.2,50,98.2z M50,6.2C25.8,6.2,6.2,25.8,6.2,50c0,24.2,19.7,43.8,43.8,43.8c24.2,0,43.8-19.7,43.8-43.8
		C93.8,25.8,74.2,6.2,50,6.2z"/>
	<g>
		<g>
			<path class="st1" d="M73.4,69.5H26.6c-0.9,0-1.6-0.7-1.6-1.6V57.1c0-0.5,0.2-0.9,0.6-1.2c1.7-1.5,2.7-3.6,2.7-5.8
				c0-2.2-1-4.4-2.7-5.8c-0.4-0.3-0.6-0.8-0.6-1.2V32.1c0-0.9,0.7-1.6,1.6-1.6h46.8c0.9,0,1.6,0.7,1.6,1.6v10.8
				c0,0.5-0.2,0.9-0.6,1.2c-1.7,1.5-2.7,3.6-2.7,5.8c0,2.2,1,4.4,2.7,5.8c0.4,0.3,0.6,0.8,0.6,1.2v10.8C75,68.8,74.3,69.5,73.4,69.5
				z M28.2,66.3h43.5v-8.5c-2.1-2-3.3-4.8-3.3-7.8c0-2.9,1.2-5.7,3.3-7.8v-8.5H28.2v8.5c2.1,2,3.3,4.8,3.3,7.8
				c0,2.9-1.2,5.7-3.3,7.8V66.3z"/>
			<path class="st2" d="M43.1,59.5c-0.3,0-0.6-0.1-0.8-0.2c-0.5-0.3-0.8-0.8-0.8-1.4V42.1c0-0.6,0.3-1.1,0.8-1.4
				c0.5-0.3,1.1-0.3,1.6,0l13.7,7.9c0.5,0.3,0.8,0.8,0.8,1.4s-0.3,1.1-0.8,1.4l-13.7,7.9C43.7,59.5,43.4,59.5,43.1,59.5z M44.8,44.9
				v10.3l8.9-5.1L44.8,44.9z"/>
		</g>
	</g>
</g>
</svg>
