<?xml version="1.0" encoding="utf-8"?>
<!-- Generator: Adobe Illustrator 23.0.2, SVG Export Plug-In . SVG Version: 6.00 Build 0)  -->
<svg version="1.1" id="레이어_1" xmlns="http://www.w3.org/2000/svg" xmlns:xlink="http://www.w3.org/1999/xlink" x="0px"
	 y="0px" viewBox="0 0 100 100" style="enable-background:new 0 0 100 100;" xml:space="preserve">
<style type="text/css">
	.st0{fill:#C1C0C0;}
	.st1{fill:#4593D0;}
	.st2{fill:#5C5D5D;}
</style>
<g>
	<path class="st0" d="M50,98.2C23.4,98.2,1.8,76.6,1.8,50S23.4,1.8,50,1.8c26.6,0,48.2,21.6,48.2,48.2S76.6,98.2,50,98.2z M50,6.2
		C25.8,6.2,6.2,25.8,6.2,50c0,24.2,19.7,43.8,43.8,43.8c24.2,0,43.8-19.7,43.8-43.8C93.8,25.8,74.2,6.2,50,6.2z"/>
	<g>
		<g>
			<g id="XMLID_68_">
				<g id="XMLID_69_">
					<path class="st1" d="M53.3,38.2c0.2,0,0.3,0,0.4,0.1c0.1,0.1,0.2,0.2,0.2,0.4v0.5c1,0.1,1.9,0.3,2.6,0.7
						c0.2,0.1,0.4,0.3,0.4,0.5c0.1,0.2,0,0.5-0.1,0.7c-0.1,0.2-0.3,0.4-0.5,0.5c-0.2,0.1-0.4,0-0.6-0.1c-0.3-0.2-0.6-0.3-0.9-0.4
						c-0.3-0.1-0.6-0.1-1-0.2v3.4c0.7,0.2,1.4,0.4,1.8,0.6c0.5,0.2,0.9,0.5,1.1,0.7c0.3,0.3,0.5,0.6,0.6,0.9
						c0.1,0.3,0.2,0.7,0.2,1.2V48c0,0.6-0.1,1.1-0.3,1.6c-0.2,0.4-0.5,0.8-0.8,1c-0.3,0.3-0.7,0.5-1.2,0.6c-0.5,0.1-0.9,0.2-1.5,0.2
						v0.7c0,0.2-0.1,0.3-0.2,0.4c-0.1,0.1-0.3,0.1-0.4,0.1c-0.2,0-0.3,0-0.4-0.1c-0.1-0.1-0.2-0.2-0.2-0.4v-0.7
						c-0.6,0-1.2-0.1-1.7-0.3c-0.6-0.2-1.1-0.4-1.5-0.6c-0.3-0.1-0.4-0.3-0.4-0.6c0-0.3,0-0.5,0.2-0.7c0.2-0.2,0.3-0.4,0.6-0.4
						c0.2-0.1,0.4,0,0.7,0.1c0.4,0.2,0.7,0.4,1.1,0.5c0.4,0.1,0.8,0.2,1.2,0.3v-3.5c-0.4-0.1-0.8-0.2-1.2-0.4
						c-0.4-0.1-0.8-0.3-1.2-0.6c-0.3-0.3-0.6-0.6-0.9-1c-0.2-0.4-0.3-0.9-0.3-1.5v-0.2c0-0.3,0.1-0.7,0.2-1c0.1-0.3,0.3-0.7,0.6-0.9
						c0.3-0.3,0.6-0.5,1.1-0.7c0.5-0.2,1-0.3,1.7-0.4v-0.5c0-0.2,0.1-0.3,0.2-0.4C53,38.3,53.1,38.2,53.3,38.2z M52.6,41.1
						c-0.6,0.1-0.9,0.2-1.2,0.4c-0.2,0.2-0.3,0.5-0.3,0.8v0.2c0,0.2,0,0.5,0.1,0.6c0.1,0.2,0.1,0.3,0.3,0.4c0.1,0.1,0.3,0.2,0.5,0.3
						c0.2,0.1,0.4,0.2,0.7,0.2V41.1z M53.9,49.6c0.6-0.1,1-0.2,1.3-0.5c0.2-0.3,0.3-0.6,0.3-0.9v-0.1c0-0.2,0-0.4,0-0.5
						c0-0.2-0.1-0.3-0.2-0.5c-0.1-0.1-0.3-0.3-0.5-0.4c-0.2-0.1-0.5-0.2-0.9-0.3V49.6z"/>
				</g>
			</g>
			<g id="XMLID_67_">
				<path class="st2" d="M53.1,76c-4.8,0-17.3-1.1-21.7-1.6l-6.4,0.5c-0.4,0-0.8-0.1-1.1-0.4c-0.3-0.3-0.5-0.7-0.5-1.1V61.6
					c0-0.4,0.2-0.8,0.5-1.1s0.7-0.4,1.1-0.4l6.1,0.5c1.5-0.8,6.9-3.5,11-3.2c1.7,0.1,5.2,0,8.7-0.1c2.9-0.1,5.6-0.2,7.2-0.1
					c1.8,0,3.4,1.3,3.9,3.1c0.3,1.1,0.1,2.1-0.4,3l8.3-3.6c1.9-0.8,4.1,0,5.1,1.8c0.9,1.8,0.3,4-1.5,5.1l-10.9,6.6
					c-0.1,0-0.1,0.1-0.2,0.1c-0.2,0.1-5.1,2.1-7.2,2.6C54.5,75.9,53.9,76,53.1,76z M31.4,71.4c0,0,0.1,0,0.1,0
					c10.1,1,21.3,1.8,22.6,1.5c1.7-0.4,5.9-2.1,6.7-2.4L71.6,64c0.4-0.2,0.5-0.7,0.3-1.2c-0.2-0.4-0.7-0.6-1.2-0.4l-10,4.4
					c-0.2,0.1-0.3,0.1-0.5,0.1l-7,0.5c-0.7,0.1-1.4-0.4-1.6-1.2c-0.2-0.7,0.2-1.5,0.9-1.7l5.6-2.3c0.4-0.2,0.6-0.7,0.5-1.2
					c-0.1-0.5-0.6-0.8-1-0.8c-1.5,0-4.2,0-7,0.1c-3.5,0.1-7.1,0.2-8.9,0.1c-3.1-0.2-8.1,2.2-9.7,3.1c-0.3,0.1-0.6,0.2-0.9,0.2
					l-4.9-0.4v8.5l4.9-0.4C31.3,71.4,31.3,71.4,31.4,71.4z"/>
			</g>
			<g id="XMLID_66_">
				<path class="st2" d="M39.1,55.8c-0.4,0-0.9-0.2-1.1-0.5c-0.3-0.3-6.2-7.5-1.6-14.1c2-2.8,4-4.7,5.6-6.3c1.7-1.6,2.9-2.7,3.2-4
					c0.2-0.7,0.8-1.2,1.5-1.2h12.1c0.8,0,1.5,0.7,1.5,1.5c0,0.8-0.7,1.5-1.5,1.5h-11c-0.7,1.6-2.1,2.9-3.6,4.3
					c-1.6,1.5-3.4,3.2-5.2,5.8c-3.3,4.7,1.2,10.2,1.4,10.5c0.5,0.6,0.5,1.6-0.2,2.1C39.8,55.7,39.5,55.8,39.1,55.8z"/>
			</g>
			<g id="XMLID_65_">
				<path class="st2" d="M45.9,28.7c-0.6,0-1.1-0.3-1.4-0.9l-2.8-5.8c-0.3-0.6-0.1-1.3,0.3-1.8c0.3-0.3,3.5-3.1,6.5-2.1l0.7,0.2
					c2,0.7,5.4,1.9,7.3,0.7c3.1-2,6,0.2,7,1.6c0.3,0.5,0.4,1.1,0.1,1.6l-2.8,5.5c-0.4,0.7-1.3,1-2,0.7c-0.7-0.4-1-1.3-0.7-2l2.3-4.6
					c-0.6-0.5-1.4-0.9-2.4-0.3c-3.1,2-7.4,0.5-9.9-0.4l-0.7-0.2c-0.7-0.2-1.8,0.3-2.7,0.8l2.2,4.7c0.4,0.8,0,1.7-0.7,2
					C46.4,28.6,46.1,28.7,45.9,28.7z"/>
			</g>
			<g id="XMLID_64_">
				<path class="st2" d="M67.5,56.8c-0.5,0-0.9-0.2-1.2-0.6c-0.5-0.7-0.3-1.6,0.4-2.1c2.4-1.7,3-3.9,3.1-5.3
					c0.1-1.9-0.6-3.8-1.8-4.9c-2.8-2.5-7.2-7.4-7.4-7.6c-0.6-0.6-0.5-1.6,0.1-2.1c0.6-0.6,1.6-0.5,2.1,0.1c0,0.1,4.5,5,7.2,7.4
					c1.9,1.7,2.9,4.5,2.7,7.3c-0.2,3-1.7,5.7-4.4,7.6C68.1,56.7,67.8,56.8,67.5,56.8z"/>
			</g>
		</g>
	</g>
</g>
</svg>
