<svg xmlns="http://www.w3.org/2000/svg" width="238" height="68.148" viewBox="0 0 238 68.148">
  <g id="그룹_1" data-name="그룹 1" transform="translate(-5754 -1227.969)">
    <path id="패스_1" data-name="패스 1" d="M46.553,104.95c0,2.256,1.055,3.254,3.254,3.254a2.9,2.9,0,0,0,3.254-3.254V94.039c0-12.808,4.424-23.226,20.388-23.226,15.64,0,20.386,10.418,20.386,23.226v17.539a3.376,3.376,0,1,1-6.752,0V94.039c0-9.842-3.949-16.477-13.634-16.477-9.934,0-13.636,6.565-13.636,16.477v10.667c0,.083-.02.163-.026.244h.026c0,6.762-4.489,10.005-10.005,10.005S39.8,112.121,39.8,104.95v-33.2a3.376,3.376,0,0,1,6.752,0v33.2Z" transform="translate(5719.85 1180.792)" fill="#2583c8"/>
    <path id="패스_2" data-name="패스 2" d="M45.982,75.758A9.028,9.028,0,1,1,55.01,66.73,9.037,9.037,0,0,1,45.982,75.758Zm0-12.993a3.965,3.965,0,1,0,3.965,3.965A3.971,3.971,0,0,0,45.982,62.765Z" transform="translate(5717.044 1170.267)" fill="#f99900"/>
    <path id="패스_3" data-name="패스 3" d="M85.151,70.1a22.5,22.5,0,0,1,11.1,2.435,2.532,2.532,0,0,1,1.009,3.621,2.391,2.391,0,0,1-3.385,1.126A16.893,16.893,0,0,0,89.93,75.89a22.121,22.121,0,0,0-4.66-.445,13.307,13.307,0,0,0-3.71.475A8.711,8.711,0,0,0,78.8,77.227a6.2,6.2,0,0,0-1.752,1.929,4.681,4.681,0,0,0-.624,2.344v.594a5.8,5.8,0,0,0,.417,2.286,4.411,4.411,0,0,0,1.484,1.782A10.484,10.484,0,0,0,81.2,87.586,40.18,40.18,0,0,0,85.8,88.8a40.756,40.756,0,0,1,6.589,1.9,15,15,0,0,1,4.334,2.523A8.33,8.33,0,0,1,99.1,96.58a12.158,12.158,0,0,1,.711,4.275v.83a10.653,10.653,0,0,1-3.919,8.758q-3.918,3.176-11.278,3.176a26.519,26.519,0,0,1-7.214-.979,21.1,21.1,0,0,1-5.905-2.584,2.351,2.351,0,0,1-1.277-1.75,3.033,3.033,0,0,1,.5-2.107,2.83,2.83,0,0,1,1.6-1.277,2.345,2.345,0,0,1,1.959.385,21.2,21.2,0,0,0,4.928,2.167,19.739,19.739,0,0,0,5.7.8q4.454,0,6.71-1.782a5.458,5.458,0,0,0,2.254-4.451v-.654a6.484,6.484,0,0,0-.475-2.582,4.749,4.749,0,0,0-1.6-1.931,10.954,10.954,0,0,0-2.968-1.454A43.546,43.546,0,0,0,84.259,94.2a45.044,45.044,0,0,1-6.084-1.631A14.482,14.482,0,0,1,73.9,90.287a8.506,8.506,0,0,1-2.523-3.3,11.913,11.913,0,0,1-.832-4.72v-.713a10.643,10.643,0,0,1,.981-4.541,10.353,10.353,0,0,1,2.848-3.651,13.543,13.543,0,0,1,4.6-2.4A20.511,20.511,0,0,1,85.151,70.1Z" transform="translate(5749.827 1182.498)" fill="#fff"/>
    <path id="패스_4" data-name="패스 4" d="M112.992,70.291a3.664,3.664,0,0,1,3.623,2.848l8.726,31.108,8.549-31.879a2.455,2.455,0,0,1,1.247-1.782,3.019,3.019,0,0,1,2.137-.179,2.49,2.49,0,0,1,1.78,1.128,2.612,2.612,0,0,1,.179,2.137l-10.269,36.571a3.832,3.832,0,0,1-1.486,2.2,3.966,3.966,0,0,1-2.2.652,3.744,3.744,0,0,1-2.135-.681,3.961,3.961,0,0,1-1.486-2.227l-8.726-31.94-8.964,32a3.781,3.781,0,0,1-1.514,2.2,4.02,4.02,0,0,1-2.167.652,3.837,3.837,0,0,1-2.2-.681,3.968,3.968,0,0,1-1.484-2.227L86.457,73.971a2.665,2.665,0,0,1,2.078-3.563,3.86,3.86,0,0,1,2.227.06,2.312,2.312,0,0,1,1.394,1.841l8.43,32,8.726-31.168a3.548,3.548,0,0,1,1.456-2.2A4.105,4.105,0,0,1,112.992,70.291Z" transform="translate(5765.736 1182.667)" fill="#fff"/>
    <path id="패스_5" data-name="패스 5" d="M118.109,70.282a3.808,3.808,0,0,1,2.108.592,2.1,2.1,0,0,1,.92,1.9v37.816a2.1,2.1,0,0,1-.92,1.9,3.807,3.807,0,0,1-2.108.592,3.658,3.658,0,0,1-2.078-.592,2.118,2.118,0,0,1-.89-1.9V72.775a2.12,2.12,0,0,1,.89-1.9A3.659,3.659,0,0,1,118.109,70.282Z" transform="translate(5794.162 1182.675)" fill="#fff"/>
    <path id="패스_6" data-name="패스 6" d="M150.657,70.282a3.443,3.443,0,0,1,1.929.562,2.009,2.009,0,0,1,.862,1.812v35.917q0,2.494-.949,3.413a4.52,4.52,0,0,1-3.206.922,6.315,6.315,0,0,1-1.456-.149,3.09,3.09,0,0,1-1.216-.624,7.1,7.1,0,0,1-1.247-1.365,23.653,23.653,0,0,1-1.484-2.376L129.522,83.519q-.712-1.305-1.335-2.67a21.328,21.328,0,0,1-1.1-3.029v32.89a2.007,2.007,0,0,1-.86,1.81,3.583,3.583,0,0,1-3.859,0,2,2,0,0,1-.862-1.81V74.793q0-2.494.949-3.415a4.54,4.54,0,0,1,3.206-.92,6.728,6.728,0,0,1,1.486.149,2.848,2.848,0,0,1,1.216.624,7.79,7.79,0,0,1,1.218,1.365,23.89,23.89,0,0,1,1.484,2.376l14.367,24.873a28.707,28.707,0,0,1,1.394,2.672,21.335,21.335,0,0,1,1.1,3.029V72.656a2.03,2.03,0,0,1,.832-1.812A3.3,3.3,0,0,1,150.657,70.282Z" transform="translate(5800.44 1182.675)" fill="#fff"/>
    <path id="패스_7" data-name="패스 7" d="M158.53,70.1a25,25,0,0,1,7.125.89,20.056,20.056,0,0,1,5.164,2.316,2.46,2.46,0,0,1,1.128,1.752,3.071,3.071,0,0,1-.534,2.048,2.569,2.569,0,0,1-1.6,1.216,2.3,2.3,0,0,1-1.841-.385,15.785,15.785,0,0,0-4.126-1.81,20.155,20.155,0,0,0-5.373-.624,16.152,16.152,0,0,0-5.55.86,8.734,8.734,0,0,0-3.859,2.731,12.045,12.045,0,0,0-2.227,4.779,30.161,30.161,0,0,0-.711,7.065V92.78a30.55,30.55,0,0,0,.711,7.1,11.789,11.789,0,0,0,2.227,4.779,8.807,8.807,0,0,0,3.919,2.7,17.23,17.23,0,0,0,5.788.86,19.015,19.015,0,0,0,8.549-1.722V94.858H159.3a1.8,1.8,0,0,1-1.633-.771,3.172,3.172,0,0,1-.5-1.782,3.039,3.039,0,0,1,.5-1.752,1.834,1.834,0,0,1,1.633-.741h9.32q2.613,0,3.591.949t.979,3.5v12.17a6.011,6.011,0,0,1-.652,3.059,5.069,5.069,0,0,1-2.316,1.869A24.366,24.366,0,0,1,165.061,113a31.858,31.858,0,0,1-6.531.624q-9.082,0-13.743-4.839t-4.66-15.525V90.466q0-10.688,4.66-15.525T158.53,70.1Z" transform="translate(5818.806 1182.498)" fill="#fff"/>
  </g>
</svg>
