<?xml version="1.0" encoding="utf-8"?>
<!-- Generator: Adobe Illustrator 23.0.2, SVG Export Plug-In . SVG Version: 6.00 Build 0)  -->
<svg version="1.1" id="레이어_1" xmlns="http://www.w3.org/2000/svg" xmlns:xlink="http://www.w3.org/1999/xlink" x="0px"
	 y="0px" viewBox="0 0 100 100" style="enable-background:new 0 0 100 100;" xml:space="preserve">
<style type="text/css">
	.st0{fill:#C1C0C0;}
	.st1{fill:#5C5D5D;}
	.st2{fill:#4593D0;}
</style>
<g>
	<path class="st0" d="M50,98.2C23.4,98.2,1.8,76.6,1.8,50S23.4,1.8,50,1.8c26.6,0,48.2,21.6,48.2,48.2S76.6,98.2,50,98.2z M50,6.2
		C25.8,6.2,6.2,25.8,6.2,50c0,24.2,19.7,43.8,43.8,43.8c24.2,0,43.8-19.7,43.8-43.8C93.8,25.8,74.2,6.2,50,6.2z"/>
	<g>
		<g>
			<path class="st1" d="M54.3,74.9h-8.6c-0.8,0-1.4-0.6-1.6-1.3l-0.9-5.1c-2.4-0.9-4.6-2.3-6.5-4c-0.7-0.6-0.7-1.6-0.1-2.3
				c0.6-0.7,1.6-0.7,2.3-0.1c1.8,1.6,3.9,2.9,6.2,3.6c0.6,0.2,1,0.7,1.1,1.2l0.9,4.7H53l0.9-4.7c0.1-0.6,0.5-1.1,1.1-1.2
				c2.3-0.7,4.4-2,6.2-3.6c0.4-0.4,1.1-0.5,1.6-0.3l4.5,1.6l3-5.1l-3.6-3.1c-0.5-0.4-0.7-1-0.5-1.6c0.3-1.2,0.4-2.4,0.4-3.6
				c0-1.2-0.1-2.4-0.4-3.6c-0.1-0.6,0.1-1.2,0.5-1.6l3.6-3.1l-3-5.1l-4.5,1.6c-0.6,0.2-1.2,0.1-1.6-0.3c-1.8-1.6-3.9-2.9-6.2-3.6
				c-0.6-0.2-1-0.7-1.1-1.2L53,28.3H47L46.2,33c-0.1,0.6-0.5,1.1-1.1,1.2c-2.3,0.7-4.4,2-6.2,3.6c-0.4,0.4-1.1,0.5-1.6,0.3l-4.5-1.6
				l-3,5.1l3.6,3.1c0.5,0.4,0.7,1,0.5,1.6c-0.3,1.2-0.4,2.4-0.4,3.6c0,1.2,0.1,2.4,0.4,3.6c0.1,0.6-0.1,1.2-0.5,1.6l-3.6,3.1
				l3.6,6.3c0.4,0.8,0.2,1.7-0.6,2.2c-0.8,0.4-1.7,0.2-2.2-0.6l-4.3-7.4c-0.4-0.7-0.2-1.5,0.3-2l3.9-3.4c-0.2-1.1-0.3-2.2-0.3-3.3
				c0-1.1,0.1-2.2,0.3-3.3l-3.9-3.4c-0.6-0.5-0.7-1.4-0.3-2l4.3-7.4c0.4-0.7,1.2-1,1.9-0.7l4.9,1.7c1.7-1.4,3.7-2.6,5.8-3.3l0.9-5.1
				c0.1-0.8,0.8-1.3,1.6-1.3h8.6c0.8,0,1.4,0.6,1.6,1.3l0.9,5.1c2.1,0.8,4.1,1.9,5.8,3.3l4.9-1.7c0.7-0.3,1.5,0,1.9,0.7l4.3,7.4
				c0.4,0.7,0.2,1.5-0.3,2l-3.9,3.4c0.2,1.1,0.3,2.2,0.3,3.3c0,1.1-0.1,2.2-0.3,3.3l3.9,3.4c0.6,0.5,0.7,1.4,0.3,2l-4.3,7.4
				c-0.4,0.7-1.2,1-1.9,0.7l-4.9-1.7c-1.7,1.4-3.7,2.6-5.8,3.3l-0.9,5.1C55.7,74.3,55.1,74.9,54.3,74.9z"/>
			<path class="st2" d="M50,58.3c-4.6,0-8.3-3.7-8.3-8.3c0-4.6,3.7-8.3,8.3-8.3s8.3,3.7,8.3,8.3C58.3,54.6,54.6,58.3,50,58.3z
				 M50,44.9c-2.8,0-5.1,2.3-5.1,5.1c0,2.8,2.3,5.1,5.1,5.1c2.8,0,5.1-2.3,5.1-5.1C55.1,47.2,52.8,44.9,50,44.9z"/>
		</g>
	</g>
</g>
</svg>
