<?xml version="1.0" encoding="utf-8"?>
<!-- Generator: Adobe Illustrator 23.0.2, SVG Export Plug-In . SVG Version: 6.00 Build 0)  -->
<svg version="1.1" id="레이어_1" xmlns="http://www.w3.org/2000/svg" xmlns:xlink="http://www.w3.org/1999/xlink" x="0px"
	 y="0px" viewBox="0 0 100 100" style="enable-background:new 0 0 100 100;" xml:space="preserve">
<style type="text/css">
	.st0{fill:#C1C0C0;}
	.st1{fill:#5C5D5D;}
	.st2{fill:#4593D0;}
</style>
<g>
	<path class="st0" d="M50,98.2C23.4,98.2,1.8,76.6,1.8,50C1.8,23.4,23.4,1.8,50,1.8c26.6,0,48.2,21.6,48.2,48.2
		C98.2,76.6,76.6,98.2,50,98.2z M50,6.2C25.8,6.2,6.2,25.8,6.2,50c0,24.2,19.7,43.8,43.8,43.8c24.2,0,43.8-19.7,43.8-43.8
		C93.8,25.8,74.2,6.2,50,6.2z"/>
	<g>
		<g>
			<g>
				<path class="st1" d="M30.8,75.1c-0.8,0-1.5-0.7-1.5-1.5V30.3c0-0.8,0.7-1.5,1.5-1.5h38.9c0.6,0,1.1,0.3,1.3,0.8
					c0.3,0.5,0.2,1.1-0.1,1.6l-9,12.4l9,12.4c0.3,0.5,0.4,1.1,0.1,1.6c-0.3,0.5-0.8,0.8-1.3,0.8H36c-0.8,0-1.5-0.7-1.5-1.5
					c0-0.8,0.7-1.5,1.5-1.5h30.8l-7.9-10.9c-0.4-0.5-0.4-1.2,0-1.8l7.9-10.9H32.2v41.8C32.2,74.4,31.6,75.1,30.8,75.1z"/>
			</g>
			<path class="st2" d="M40.8,51.7c-0.8,0-1.5-0.7-1.5-1.5V36.4c0-0.8,0.7-1.5,1.5-1.5c0.8,0,1.5,0.7,1.5,1.5v13.9
				C42.3,51,41.7,51.7,40.8,51.7z"/>
		</g>
	</g>
</g>
</svg>
