<?xml version="1.0" encoding="utf-8"?>
<!-- Generator: Adobe Illustrator 23.0.2, SVG Export Plug-In . SVG Version: 6.00 Build 0)  -->
<svg version="1.1" id="레이어_1" xmlns="http://www.w3.org/2000/svg" xmlns:xlink="http://www.w3.org/1999/xlink" x="0px"
	 y="0px" viewBox="0 0 202 82.1" style="enable-background:new 0 0 202 82.1;" xml:space="preserve">
<style type="text/css">
	.st0{fill:#2F2725;}
	.st1{fill:#2583C8;}
	.st2{fill:#F99900;}
	.st3{fill:#FFFFFF;}
</style>
<path id="패스_61" class="st0" d="M47.8,56.7c0.4,0,0.9,0.1,1.2,0.4c0.4,0.2,0.6,0.7,0.6,1.1v22.4c0,0.4-0.2,0.9-0.5,1.1
	c-0.4,0.2-0.8,0.4-1.2,0.4c-0.4,0-0.8-0.1-1.2-0.4c-0.4-0.2-0.6-0.7-0.6-1.1V58.2c0-0.4,0.2-0.9,0.5-1.1
	C47,56.8,47.4,56.7,47.8,56.7z"/>
<path id="패스_62" class="st0" d="M71.7,56.7c0.4,0,0.8,0.1,1.1,0.3c0.3,0.2,0.5,0.7,0.5,1.1v21.3c0.1,0.7-0.1,1.4-0.6,2
	c-0.5,0.4-1.2,0.6-1.9,0.5c-0.3,0-0.6,0-0.8-0.1c-0.3-0.1-0.5-0.2-0.7-0.4c-0.3-0.2-0.5-0.5-0.7-0.8c-0.3-0.5-0.6-0.9-0.9-1.4
	l-8.2-14.6c-0.3-0.5-0.5-1-0.8-1.6c-0.3-0.6-0.5-1.2-0.6-1.8v19.5c0,0.4-0.2,0.8-0.5,1.1c-0.7,0.4-1.6,0.4-2.2,0
	c-0.3-0.2-0.5-0.7-0.5-1.1V59.4c-0.1-0.7,0.1-1.4,0.6-2c0.5-0.4,1.2-0.6,1.9-0.5c0.3,0,0.6,0,0.9,0.1c0.3,0.1,0.5,0.2,0.7,0.4
	c0.3,0.2,0.5,0.5,0.7,0.8c0.3,0.5,0.6,0.9,0.9,1.4l8.3,14.7c0.3,0.5,0.6,1,0.8,1.6c0.3,0.6,0.5,1.2,0.6,1.8V58.1
	c0-0.4,0.1-0.8,0.5-1.1C71,56.8,71.3,56.7,71.7,56.7z"/>
<path id="패스_63" class="st0" d="M93.9,57.4c0.4,0.6,0.4,1.5,0,2.1C93.7,59.8,93.3,60,93,60H82.1v8.2h10.2c0.4,0,0.7,0.2,0.9,0.5
	c0.2,0.3,0.3,0.7,0.3,1.1c0,0.4-0.1,0.7-0.3,1c-0.2,0.3-0.6,0.5-0.9,0.4H82.1v9.5c0,0.4-0.2,0.9-0.5,1.1c-0.4,0.2-0.8,0.4-1.2,0.4
	c-0.4,0-0.8-0.1-1.2-0.4c-0.4-0.3-0.6-0.7-0.5-1.1V59.5c-0.1-0.7,0.1-1.5,0.6-2c0.6-0.4,1.3-0.6,2.1-0.6h11.7
	C93.3,56.9,93.7,57,93.9,57.4z"/>
<path id="패스_64" class="st0" d="M107.1,56.3c3.3,0,5.8,1,7.6,3s2.6,5,2.6,9.1v1.7c0,4.1-0.9,7.1-2.6,9.1c-1.8,2-4.3,3-7.6,3
	s-5.8-1-7.6-3s-2.6-5-2.6-9.1v-1.7c0-4.1,0.9-7.1,2.6-9.1C101.2,57.3,103.8,56.3,107.1,56.3z M107.1,59.5c-1.9-0.1-3.8,0.6-5.1,2.1
	c-1.1,1.4-1.7,3.8-1.7,7v1.1c0,3.3,0.6,5.6,1.7,7c2.8,2.8,7.3,2.8,10.1,0l0,0c1.1-1.4,1.7-3.7,1.7-7v-1.1c0-3.3-0.6-5.6-1.7-7
	C110.9,60.1,109,59.4,107.1,59.5L107.1,59.5z"/>
<path id="패스_65" class="st0" d="M125.4,56.9c0.3,0.1,0.5,0.2,0.7,0.4c0.3,0.2,0.5,0.5,0.6,0.8c0.3,0.5,0.5,0.9,0.7,1.4l6.1,14.1
	l6-14.1c0.2-0.5,0.4-0.9,0.6-1.4c0.2-0.3,0.4-0.6,0.7-0.8c0.2-0.2,0.5-0.3,0.8-0.4c0.3-0.1,0.7-0.1,1-0.1h0.5
	c0.6-0.1,1.3,0.1,1.8,0.5c0.4,0.6,0.6,1.3,0.5,2v21.3c0,0.4-0.1,0.8-0.5,1.1c-0.3,0.2-0.7,0.3-1.1,0.3s-0.8-0.1-1.2-0.3
	c-0.3-0.2-0.5-0.7-0.5-1.1V60.3c-0.3,0.8-0.5,1.6-0.7,2.1c-0.2,0.6-0.4,1.2-0.7,1.8l-5.3,12.2c-0.1,0.4-0.4,0.8-0.8,1.1
	c-0.3,0.2-0.7,0.3-1.1,0.3c-0.4,0-0.9-0.1-1.2-0.3c-0.4-0.3-0.6-0.7-0.8-1.2l-5.2-12.1c-0.3-0.6-0.5-1.1-0.7-1.7
	c-0.2-0.6-0.5-1.3-0.7-2.2v20.4c0,0.4-0.2,0.8-0.5,1.1c-0.3,0.2-0.7,0.3-1.2,0.3c-0.4,0-0.8-0.1-1.1-0.3c-0.3-0.2-0.5-0.7-0.5-1.1
	V59.3c-0.1-0.7,0.1-1.4,0.5-2c0.5-0.4,1.1-0.6,1.8-0.5h0.5C124.8,56.8,125.1,56.9,125.4,56.9z"/>
<path id="패스_66" class="st0" d="M152.4,56.7c0.4,0,0.9,0.1,1.2,0.4c0.4,0.3,0.6,0.7,0.5,1.1v22.4c0,0.4-0.2,0.9-0.5,1.1
	c-0.4,0.2-0.8,0.4-1.2,0.4c-0.4,0-0.8-0.1-1.2-0.4c-0.4-0.3-0.6-0.7-0.5-1.1V58.2c0-0.4,0.2-0.9,0.5-1.1
	C151.5,56.8,152,56.7,152.4,56.7z"/>
<path id="패스_67" class="st0" d="M176.3,56.7c0.4,0,0.8,0.1,1.1,0.3c0.3,0.2,0.5,0.7,0.5,1.1v21.3c0.1,0.7-0.1,1.4-0.6,2
	c-0.5,0.4-1.2,0.6-1.9,0.5c-0.3,0-0.6,0-0.8-0.1c-0.3-0.1-0.5-0.2-0.7-0.4c-0.3-0.2-0.5-0.5-0.7-0.8c-0.3-0.5-0.6-0.9-0.9-1.4
	L164,64.5c-0.3-0.5-0.5-1-0.8-1.6c-0.3-0.6-0.5-1.2-0.6-1.8v19.5c0,0.4-0.2,0.8-0.5,1.1c-0.7,0.4-1.6,0.4-2.2,0
	c-0.3-0.2-0.5-0.7-0.5-1.1V59.4c-0.1-0.7,0.1-1.4,0.6-2c0.5-0.4,1.2-0.6,1.9-0.5c0.3,0,0.6,0,0.9,0.1s0.5,0.2,0.7,0.4
	c0.3,0.2,0.5,0.5,0.7,0.8c0.3,0.5,0.6,0.9,0.9,1.4l8.3,14.7c0.3,0.5,0.6,1,0.8,1.6c0.3,0.6,0.5,1.2,0.6,1.8V58.1
	c0-0.4,0.1-0.8,0.5-1.1C175.5,56.8,175.9,56.7,176.3,56.7z"/>
<path id="패스_68" class="st0" d="M191.4,57.1c3.5,0,6.1,0.9,7.9,2.8c1.8,1.9,2.7,4.8,2.7,8.7v2c0,4-0.9,6.9-2.7,8.7
	c-1.8,1.9-4.4,2.8-7.8,2.8h-5.6c-0.7,0.1-1.5-0.1-2.1-0.6c-0.4-0.6-0.6-1.3-0.6-2V59.7c-0.1-0.7,0.1-1.5,0.6-2
	c0.6-0.4,1.3-0.6,2.1-0.6L191.4,57.1z M191,79c2.6,0,4.5-0.7,5.7-2.1c1.2-1.4,1.8-3.6,1.8-6.7v-1.4c0-1.3-0.1-2.7-0.4-4
	c-0.2-1-0.7-1.9-1.3-2.7c-0.6-0.7-1.4-1.3-2.3-1.6c-1.1-0.4-2.3-0.5-3.4-0.5h-4.4v18.9L191,79z"/>
<path id="패스_69" class="st1" d="M7.4,76.1c-0.2,0.9,0.5,1.8,1.4,2c0.2,0,0.4,0,0.6,0c1,0.1,1.8-0.5,2-1.5c0-0.2,0-0.3,0-0.5
	v-6.6c0-7.7,2.7-13.9,12.2-13.9c9.4,0,12.2,6.3,12.2,13.9V80c0,1.1-0.9,2-2,2s-2-0.9-2-2l0,0V69.5c0-5.9-2.4-9.9-8.2-9.9
	c-6,0-8.2,3.9-8.2,9.9v6.4V76l0,0c0,4.1-2.7,6-6,6s-6-1.7-6-6V56.2c0-1.1,0.9-2,2-2s2,0.9,2,2L7.4,76.1L7.4,76.1z"/>
<g id="그룹_101">
	<path id="패스_70" class="st2" d="M5.4,52c-3,0-5.4-2.4-5.4-5.4s2.4-5.4,5.4-5.4s5.4,2.4,5.4,5.4l0,0C10.8,49.6,8.4,52,5.4,52z
		 M5.4,44.2c-1.3,0-2.4,1.1-2.4,2.4S4.1,49,5.4,49s2.4-1.1,2.4-2.4l0,0C7.8,45.3,6.7,44.2,5.4,44.2L5.4,44.2z"/>
</g>
<path id="패스_61_1_" class="st3" d="M47.8,15.7c0.4,0,0.9,0.1,1.2,0.4c0.4,0.2,0.6,0.7,0.6,1.1v22.4c0,0.4-0.2,0.9-0.5,1.1
	c-0.4,0.2-0.8,0.4-1.2,0.4c-0.4,0-0.8-0.1-1.2-0.4c-0.4-0.2-0.6-0.7-0.6-1.1V17.2c0-0.4,0.2-0.9,0.5-1.1
	C47,15.8,47.4,15.7,47.8,15.7z"/>
<path id="패스_62_1_" class="st3" d="M71.7,15.7c0.4,0,0.8,0.1,1.1,0.3c0.3,0.2,0.5,0.7,0.5,1.1v21.3c0.1,0.7-0.1,1.4-0.6,2
	c-0.5,0.4-1.2,0.6-1.9,0.5c-0.3,0-0.6,0-0.8-0.1c-0.3-0.1-0.5-0.2-0.7-0.4c-0.3-0.2-0.5-0.5-0.7-0.8c-0.3-0.5-0.6-0.9-0.9-1.4
	l-8.2-14.6c-0.3-0.5-0.5-1-0.8-1.6c-0.3-0.6-0.5-1.2-0.6-1.8v19.5c0,0.4-0.2,0.8-0.5,1.1c-0.7,0.4-1.6,0.4-2.2,0
	c-0.3-0.2-0.5-0.7-0.5-1.1V18.4c-0.1-0.7,0.1-1.4,0.6-2c0.5-0.4,1.2-0.6,1.9-0.5c0.3,0,0.6,0,0.9,0.1c0.3,0.1,0.5,0.2,0.7,0.4
	c0.3,0.2,0.5,0.5,0.7,0.8c0.3,0.5,0.6,0.9,0.9,1.4l8.3,14.7c0.3,0.5,0.6,1,0.8,1.6c0.3,0.6,0.5,1.2,0.6,1.8V17.1
	c0-0.4,0.1-0.8,0.5-1.1C71,15.8,71.3,15.7,71.7,15.7z"/>
<path id="패스_63_1_" class="st3" d="M93.9,16.4c0.4,0.6,0.4,1.5,0,2.1C93.7,18.8,93.3,19,93,19H82.1v8.2h10.2
	c0.4,0,0.7,0.2,0.9,0.5c0.2,0.3,0.3,0.7,0.3,1.1c0,0.4-0.1,0.7-0.3,1c-0.2,0.3-0.6,0.5-0.9,0.4H82.1v9.5c0,0.4-0.2,0.9-0.5,1.1
	c-0.4,0.2-0.8,0.4-1.2,0.4s-0.8-0.1-1.2-0.4s-0.6-0.7-0.5-1.1V18.5c-0.1-0.7,0.1-1.5,0.6-2c0.6-0.4,1.3-0.6,2.1-0.6h11.7
	C93.3,15.9,93.7,16,93.9,16.4z"/>
<path id="패스_64_1_" class="st3" d="M107.1,15.3c3.3,0,5.8,1,7.6,3s2.6,5,2.6,9.1v1.7c0,4.1-0.9,7.1-2.6,9.1c-1.8,2-4.3,3-7.6,3
	s-5.8-1-7.6-3c-1.8-2-2.6-5-2.6-9.1v-1.7c0-4.1,0.9-7.1,2.6-9.1S103.8,15.3,107.1,15.3z M107.1,18.5c-1.9-0.1-3.8,0.6-5.1,2.1
	c-1.1,1.4-1.7,3.8-1.7,7v1.1c0,3.3,0.6,5.6,1.7,7c2.8,2.8,7.3,2.8,10.1,0l0,0c1.1-1.4,1.7-3.7,1.7-7v-1.1c0-3.3-0.6-5.6-1.7-7
	C110.9,19.1,109,18.4,107.1,18.5L107.1,18.5z"/>
<path id="패스_65_1_" class="st3" d="M125.4,15.9c0.3,0.1,0.5,0.2,0.7,0.4c0.3,0.2,0.5,0.5,0.6,0.8c0.3,0.5,0.5,0.9,0.7,1.4
	l6.1,14.1l6-14.1c0.2-0.5,0.4-0.9,0.6-1.4c0.2-0.3,0.4-0.6,0.7-0.8c0.2-0.2,0.5-0.3,0.8-0.4c0.3-0.1,0.7-0.1,1-0.1h0.5
	c0.6-0.1,1.3,0.1,1.8,0.5c0.4,0.6,0.6,1.3,0.5,2v21.3c0,0.4-0.1,0.8-0.5,1.1c-0.3,0.2-0.7,0.3-1.1,0.3s-0.8-0.1-1.2-0.3
	c-0.3-0.2-0.5-0.7-0.5-1.1V19.3c-0.3,0.8-0.5,1.6-0.7,2.1c-0.2,0.6-0.4,1.2-0.7,1.8l-5.3,12.2c-0.1,0.4-0.4,0.8-0.8,1.1
	c-0.3,0.2-0.7,0.3-1.1,0.3c-0.4,0-0.9-0.1-1.2-0.3c-0.4-0.3-0.6-0.7-0.8-1.2l-5.2-12.1c-0.3-0.6-0.5-1.1-0.7-1.7s-0.5-1.3-0.7-2.2
	v20.4c0,0.4-0.2,0.8-0.5,1.1c-0.3,0.2-0.7,0.3-1.2,0.3c-0.4,0-0.8-0.1-1.1-0.3c-0.3-0.2-0.5-0.7-0.5-1.1V18.3
	c-0.1-0.7,0.1-1.4,0.5-2c0.5-0.4,1.1-0.6,1.8-0.5h0.5C124.8,15.8,125.1,15.9,125.4,15.9z"/>
<path id="패스_66_1_" class="st3" d="M152.4,15.7c0.4,0,0.9,0.1,1.2,0.4c0.4,0.3,0.6,0.7,0.5,1.1v22.4c0,0.4-0.2,0.9-0.5,1.1
	c-0.4,0.2-0.8,0.4-1.2,0.4c-0.4,0-0.8-0.1-1.2-0.4s-0.6-0.7-0.5-1.1V17.2c0-0.4,0.2-0.9,0.5-1.1C151.5,15.8,152,15.7,152.4,15.7z"/>
<path id="패스_67_1_" class="st3" d="M176.3,15.7c0.4,0,0.8,0.1,1.1,0.3c0.3,0.2,0.5,0.7,0.5,1.1v21.3c0.1,0.7-0.1,1.4-0.6,2
	c-0.5,0.4-1.2,0.6-1.9,0.5c-0.3,0-0.6,0-0.8-0.1c-0.3-0.1-0.5-0.2-0.7-0.4c-0.3-0.2-0.5-0.5-0.7-0.8c-0.3-0.5-0.6-0.9-0.9-1.4
	L164,23.5c-0.3-0.5-0.5-1-0.8-1.6c-0.3-0.6-0.5-1.2-0.6-1.8v19.5c0,0.4-0.2,0.8-0.5,1.1c-0.7,0.4-1.6,0.4-2.2,0
	c-0.3-0.2-0.5-0.7-0.5-1.1V18.4c-0.1-0.7,0.1-1.4,0.6-2c0.5-0.4,1.2-0.6,1.9-0.5c0.3,0,0.6,0,0.9,0.1c0.3,0.1,0.5,0.2,0.7,0.4
	c0.3,0.2,0.5,0.5,0.7,0.8c0.3,0.5,0.6,0.9,0.9,1.4l8.3,14.7c0.3,0.5,0.6,1,0.8,1.6c0.3,0.6,0.5,1.2,0.6,1.8V17.1
	c0-0.4,0.1-0.8,0.5-1.1C175.5,15.8,175.9,15.7,176.3,15.7z"/>
<path id="패스_68_1_" class="st3" d="M191.4,16.1c3.5,0,6.1,0.9,7.9,2.8c1.8,1.9,2.7,4.8,2.7,8.7v2c0,4-0.9,6.9-2.7,8.7
	c-1.8,1.9-4.4,2.8-7.8,2.8h-5.6c-0.7,0.1-1.5-0.1-2.1-0.6c-0.4-0.6-0.6-1.3-0.6-2V18.7c-0.1-0.7,0.1-1.5,0.6-2
	c0.6-0.4,1.3-0.6,2.1-0.6H191.4z M191,38c2.6,0,4.5-0.7,5.7-2.1c1.2-1.4,1.8-3.6,1.8-6.7v-1.4c0-1.3-0.1-2.7-0.4-4
	c-0.2-1-0.7-1.9-1.3-2.7c-0.6-0.7-1.4-1.3-2.3-1.6c-1.1-0.4-2.3-0.5-3.4-0.5h-4.4v18.9L191,38z"/>
<path id="패스_69_1_" class="st1" d="M7.4,35c-0.2,0.9,0.5,1.8,1.4,2c0.2,0,0.4,0,0.6,0c1,0.1,1.8-0.5,2-1.5c0-0.2,0-0.3,0-0.5
	v-6.6c0-7.7,2.7-13.9,12.2-13.9c9.4,0,12.2,6.3,12.2,13.9v10.5c0,1.1-0.9,2-2,2s-2-0.9-2-2l0,0V28.4c0-5.9-2.4-9.9-8.2-9.9
	c-6,0-8.2,3.9-8.2,9.9v6.4v0.1l0,0c0,4.1-2.7,6-6,6s-6-1.7-6-6V15.1c0-1.1,0.9-2,2-2s2,0.9,2,2L7.4,35L7.4,35z"/>
<g id="그룹_101_1_">
	<path id="패스_70_1_" class="st2" d="M5.4,10.9c-3,0-5.4-2.4-5.4-5.4s2.4-5.4,5.4-5.4s5.4,2.4,5.4,5.4l0,0
		C10.8,8.5,8.4,10.9,5.4,10.9z M5.4,3.1C4.1,3.1,3,4.2,3,5.5s1.1,2.4,2.4,2.4s2.4-1.1,2.4-2.4l0,0C7.8,4.2,6.7,3.1,5.4,3.1L5.4,3.1z
		"/>
</g>
</svg>
