<?xml version="1.0" encoding="utf-8"?>
<!-- Generator: Adobe Illustrator 23.0.2, SVG Export Plug-In . SVG Version: 6.00 Build 0)  -->
<svg version="1.1" id="레이어_1" xmlns="http://www.w3.org/2000/svg" xmlns:xlink="http://www.w3.org/1999/xlink" x="0px"
	 y="0px" viewBox="0 0 202 40.9" style="enable-background:new 0 0 202 40.9;" xml:space="preserve">
<style type="text/css">
	.st0{fill:#FFFFFF;}
	.st1{fill:#2583C8;}
	.st2{fill:#F99900;}
</style>
<g id="그룹_103" transform="translate(-175.982 -354.196)">
	<g id="그룹_100" transform="translate(222.088 369.33)">
		<path id="패스_61" class="st0" d="M1.7,0.4c0.4,0,0.9,0.1,1.2,0.4C3.3,1,3.5,1.5,3.5,1.9v22.4c0,0.4-0.2,0.9-0.5,1.1
			c-0.4,0.2-0.8,0.4-1.2,0.4c-0.4,0-0.8-0.1-1.2-0.4C0.2,25.2,0,24.7,0,24.3V1.9C0,1.5,0.2,1,0.5,0.8C0.9,0.5,1.3,0.4,1.7,0.4z"/>
		<path id="패스_62" class="st0" d="M25.6,0.4c0.4,0,0.8,0.1,1.1,0.3c0.3,0.2,0.5,0.7,0.5,1.1v21.3c0.1,0.7-0.1,1.4-0.6,2
			c-0.5,0.4-1.2,0.6-1.9,0.5c-0.3,0-0.6,0-0.8-0.1c-0.3-0.1-0.5-0.2-0.7-0.4c-0.3-0.2-0.5-0.5-0.7-0.8c-0.3-0.5-0.6-0.9-0.9-1.4
			L13.4,8.3c-0.3-0.5-0.5-1-0.8-1.6c-0.3-0.6-0.5-1.2-0.6-1.8v19.5c0,0.4-0.2,0.8-0.5,1.1c-0.7,0.4-1.6,0.4-2.2,0
			c-0.3-0.2-0.5-0.7-0.5-1.1V3.1c-0.1-0.7,0.1-1.4,0.6-2c0.5-0.4,1.2-0.6,1.9-0.5c0.3,0,0.6,0,0.9,0.1c0.3,0.1,0.5,0.2,0.7,0.4
			c0.3,0.2,0.5,0.5,0.7,0.8c0.3,0.5,0.6,0.9,0.9,1.4l8.3,14.7c0.3,0.5,0.6,1,0.8,1.6c0.3,0.6,0.5,1.2,0.6,1.8V1.8
			c0-0.4,0.1-0.8,0.5-1.1C24.9,0.5,25.2,0.4,25.6,0.4z"/>
		<path id="패스_63" class="st0" d="M47.8,1.1c0.4,0.6,0.4,1.5,0,2.1c-0.2,0.3-0.6,0.5-0.9,0.5H36v8.2h10.2c0.4,0,0.7,0.2,0.9,0.5
			c0.2,0.3,0.3,0.7,0.3,1.1c0,0.4-0.1,0.7-0.3,1c-0.2,0.3-0.6,0.5-0.9,0.4H36v9.5c0,0.4-0.2,0.9-0.5,1.1c-0.4,0.2-0.8,0.4-1.2,0.4
			c-0.4,0-0.8-0.1-1.2-0.4c-0.4-0.3-0.6-0.7-0.5-1.1V3.2c-0.1-0.7,0.1-1.5,0.6-2c0.6-0.4,1.3-0.6,2.1-0.6h11.7
			C47.2,0.6,47.6,0.7,47.8,1.1z"/>
		<path id="패스_64" class="st0" d="M61,0c3.3,0,5.8,1,7.6,3s2.6,5,2.6,9.1v1.7c0,4.1-0.9,7.1-2.6,9.1c-1.8,2-4.3,3-7.6,3
			c-3.3,0-5.8-1-7.6-3c-1.8-2-2.6-5-2.6-9.1v-1.7c0-4.1,0.9-7.1,2.6-9.1S57.7,0,61,0z M61,3.2c-1.9-0.1-3.8,0.6-5.1,2.1
			c-1.1,1.4-1.7,3.8-1.7,7v1.1c0,3.3,0.6,5.6,1.7,7c2.8,2.8,7.3,2.8,10.1,0c0,0,0,0,0,0c1.1-1.4,1.7-3.7,1.7-7v-1.1
			c0-3.3-0.6-5.6-1.7-7C64.8,3.8,62.9,3.1,61,3.2L61,3.2z"/>
		<path id="패스_65" class="st0" d="M79.3,0.6c0.3,0.1,0.5,0.2,0.7,0.4c0.3,0.2,0.5,0.5,0.6,0.8c0.3,0.5,0.5,0.9,0.7,1.4l6.1,14.1
			l6-14.1c0.2-0.5,0.4-0.9,0.6-1.4c0.2-0.3,0.4-0.6,0.7-0.8c0.2-0.2,0.5-0.3,0.8-0.4c0.3-0.1,0.7-0.1,1-0.1H97
			c0.6-0.1,1.3,0.1,1.8,0.5c0.4,0.6,0.6,1.3,0.5,2v21.3c0,0.4-0.1,0.8-0.5,1.1c-0.3,0.2-0.7,0.3-1.1,0.3c-0.4,0-0.8-0.1-1.2-0.3
			c-0.3-0.2-0.5-0.7-0.5-1.1V4c-0.3,0.8-0.5,1.6-0.7,2.1c-0.2,0.6-0.4,1.2-0.7,1.8l-5.3,12.2c-0.1,0.4-0.4,0.8-0.8,1.1
			c-0.3,0.2-0.7,0.3-1.1,0.3c-0.4,0-0.9-0.1-1.2-0.3c-0.4-0.3-0.6-0.7-0.8-1.2L80.2,7.9c-0.3-0.6-0.5-1.1-0.7-1.7
			c-0.2-0.6-0.5-1.3-0.7-2.2v20.4c0,0.4-0.2,0.8-0.5,1.1c-0.3,0.2-0.7,0.3-1.2,0.3c-0.4,0-0.8-0.1-1.1-0.3c-0.3-0.2-0.5-0.7-0.5-1.1
			V3c-0.1-0.7,0.1-1.4,0.5-2c0.5-0.4,1.1-0.6,1.8-0.5h0.5C78.7,0.5,79,0.6,79.3,0.6z"/>
		<path id="패스_66" class="st0" d="M106.3,0.4c0.4,0,0.9,0.1,1.2,0.4c0.4,0.3,0.6,0.7,0.5,1.1v22.4c0,0.4-0.2,0.9-0.5,1.1
			c-0.4,0.2-0.8,0.4-1.2,0.4c-0.4,0-0.8-0.1-1.2-0.4c-0.4-0.3-0.6-0.7-0.5-1.1V1.9c0-0.4,0.2-0.9,0.5-1.1
			C105.4,0.5,105.9,0.4,106.3,0.4z"/>
		<path id="패스_67" class="st0" d="M130.2,0.4c0.4,0,0.8,0.1,1.1,0.3c0.3,0.2,0.5,0.7,0.5,1.1v21.3c0.1,0.7-0.1,1.4-0.6,2
			c-0.5,0.4-1.2,0.6-1.9,0.5c-0.3,0-0.6,0-0.8-0.1c-0.3-0.1-0.5-0.2-0.7-0.4c-0.3-0.2-0.5-0.5-0.7-0.8c-0.3-0.5-0.6-0.9-0.9-1.4
			l-8.3-14.7c-0.3-0.5-0.5-1-0.8-1.6c-0.3-0.6-0.5-1.2-0.6-1.8v19.5c0,0.4-0.2,0.8-0.5,1.1c-0.7,0.4-1.6,0.4-2.2,0
			c-0.3-0.2-0.5-0.7-0.5-1.1V3.1c-0.1-0.7,0.1-1.4,0.6-2c0.5-0.4,1.2-0.6,1.9-0.5c0.3,0,0.6,0,0.9,0.1c0.3,0.1,0.5,0.2,0.7,0.4
			c0.3,0.2,0.5,0.5,0.7,0.8c0.3,0.5,0.6,0.9,0.9,1.4l8.3,14.7c0.3,0.5,0.6,1,0.8,1.6c0.3,0.6,0.5,1.2,0.6,1.8V1.8
			c0-0.4,0.1-0.8,0.5-1.1C129.4,0.5,129.8,0.4,130.2,0.4z"/>
		<path id="패스_68" class="st0" d="M145.3,0.8c3.5,0,6.1,0.9,7.9,2.8c1.8,1.9,2.7,4.8,2.7,8.7v2c0,4-0.9,6.9-2.7,8.7
			c-1.8,1.9-4.4,2.8-7.8,2.8h-5.6c-0.7,0.1-1.5-0.1-2.1-0.6c-0.4-0.6-0.6-1.3-0.6-2V3.4c-0.1-0.7,0.1-1.5,0.6-2
			c0.6-0.4,1.3-0.6,2.1-0.6L145.3,0.8z M144.9,22.7c2.6,0,4.5-0.7,5.7-2.1c1.2-1.4,1.8-3.6,1.8-6.7v-1.4c0-1.3-0.1-2.7-0.4-4
			c-0.2-1-0.7-1.9-1.3-2.7c-0.6-0.7-1.4-1.3-2.3-1.6c-1.1-0.4-2.3-0.5-3.4-0.5h-4.4v18.9L144.9,22.7z"/>
	</g>
	<g id="그룹_102" transform="translate(175.982 354.196)">
		<path id="패스_69" class="st1" d="M7.4,34.9c-0.2,0.9,0.5,1.8,1.4,2c0.2,0,0.4,0,0.6,0c1,0.1,1.8-0.5,2-1.5c0-0.2,0-0.3,0-0.5
			v-6.6c0-7.7,2.7-13.9,12.2-13.9c9.4,0,12.2,6.3,12.2,13.9v10.5c0,1.1-0.9,2-2,2c-1.1,0-2-0.9-2-2l0,0V28.3c0-5.9-2.4-9.9-8.2-9.9
			c-6,0-8.2,3.9-8.2,9.9v6.4c0,0,0,0.1,0,0.1h0c0,4.1-2.7,6-6,6s-6-1.7-6-6V15c0-1.1,0.9-2,2-2c1.1,0,2,0.9,2,2V34.9L7.4,34.9z"/>
		<g id="그룹_101">
			<path id="패스_70" class="st2" d="M5.4,10.8c-3,0-5.4-2.4-5.4-5.4C0,2.4,2.4,0,5.4,0c3,0,5.4,2.4,5.4,5.4l0,0
				C10.8,8.4,8.4,10.8,5.4,10.8z M5.4,3C4.1,3,3,4.1,3,5.4s1.1,2.4,2.4,2.4c1.3,0,2.4-1.1,2.4-2.4c0,0,0,0,0,0C7.8,4.1,6.7,3,5.4,3
				L5.4,3z"/>
		</g>
	</g>
</g>
</svg>
