<?xml version="1.0" encoding="utf-8"?>
<!-- Generator: Adobe Illustrator 25.0.0, SVG Export Plug-In . SVG Version: 6.00 Build 0)  -->
<svg version="1.1" id="레이어_1" xmlns="http://www.w3.org/2000/svg" xmlns:xlink="http://www.w3.org/1999/xlink" x="0px"
	 y="0px" viewBox="0 0 60 60" style="enable-background:new 0 0 60 60;" xml:space="preserve">
<style type="text/css">
	.st0{clip-path:url(#SVGID_2_);}
	.st1{fill:#EFEFEF;}
	.st2{fill:#2583C8;}
	.st3{fill:#FFFFFF;}
	.st4{fill:#595757;}
</style>
<g>
	<defs>
		<rect id="SVGID_1_" x="5.94" y="0.83" width="47.88" height="57.6"/>
	</defs>
	<clipPath id="SVGID_2_">
		<use xlink:href="#SVGID_1_"  style="overflow:visible;"/>
	</clipPath>
	<g id="그룹_542" class="st0">
		<path id="패스_406" class="st1" d="M53.83,33.3c0-13.22-10.72-23.94-23.94-23.94C16.66,9.36,5.94,20.08,5.94,33.3
			c0,13.22,10.72,23.94,23.94,23.94c0,0,0,0,0,0C43.11,57.24,53.83,46.53,53.83,33.3"/>
		<path id="패스_407" class="st2" d="M24.9,26.88c-7.19,0-13.02-5.83-13.02-13.03S17.71,0.83,24.9,0.83s13.02,5.83,13.02,13.02
			C37.92,21.04,32.09,26.87,24.9,26.88 M24.9,3.2c-5.88,0-10.65,4.77-10.65,10.65s4.77,10.66,10.65,10.66s10.66-4.77,10.66-10.66
			c0,0,0,0,0,0C35.55,7.97,30.79,3.2,24.9,3.2"/>
		<path id="패스_408" class="st2" d="M24.9,22.54c-4.8,0-8.68-3.89-8.68-8.69s3.89-8.68,8.69-8.68c4.8,0,8.68,3.89,8.68,8.68
			C33.58,18.65,29.7,22.53,24.9,22.54 M24.9,7.54c-3.49,0-6.32,2.83-6.32,6.32s2.83,6.32,6.32,6.32s6.32-2.83,6.32-6.32l0,0
			C31.21,10.37,28.39,7.54,24.9,7.54"/>
		<path id="패스_409" class="st3" d="M46.7,39.63v-9.99c0-1.91-1.54-3.45-3.45-3.46c-1.36,0-2.6,0.8-3.15,2.04
			c-0.78-1.74-2.82-2.52-4.56-1.74c-0.77,0.35-1.39,0.97-1.74,1.74c-0.78-1.74-2.82-2.52-4.56-1.74c-0.3,0.13-0.58,0.31-0.83,0.52
			V13.65c0-1.91-1.55-3.46-3.46-3.46s-3.46,1.55-3.46,3.46v20.7c0,0-1.22-4.2-4.88-4.34s-4.07,4.07-1.76,5.69s2.03,8.81,8.13,12.87
			v3.39h19.92v-3.39C45.37,46.26,46.75,43.01,46.7,39.63"/>
		<path id="패스_410" class="st4" d="M42.91,53.15H22.99c-0.65,0-1.18-0.53-1.18-1.19l0,0v-2.77c-3.71-2.73-5.07-6.52-6.07-9.33
			c-0.51-1.44-1-2.79-1.56-3.19c-1.6-1.16-2.29-3.21-1.73-5.1c0.57-1.8,2.34-2.95,4.22-2.74c1.36,0.04,2.65,0.57,3.65,1.49V13.65
			c0-2.56,2.08-4.64,4.64-4.64s4.64,2.08,4.64,4.64l0,0v11.47c1.5-0.35,3.07,0.07,4.2,1.12c1.78-1.65,4.52-1.65,6.3,0
			c1.88-1.74,4.81-1.63,6.55,0.25c0.8,0.86,1.24,1.98,1.24,3.15v9.99c0.03,3.53-1.33,6.93-3.79,9.46v2.87
			C44.09,52.61,43.56,53.14,42.91,53.15C42.91,53.14,42.91,53.14,42.91,53.15 M24.17,50.77h17.55v-2.2c0-0.35,0.16-0.69,0.43-0.92
			c2.2-2.09,3.42-5,3.36-8.03v-9.99c0-1.25-1.01-2.27-2.27-2.27c-0.89,0-1.71,0.53-2.07,1.34c-0.27,0.6-0.97,0.86-1.57,0.59
			c-0.26-0.12-0.48-0.33-0.59-0.59c-0.51-1.14-1.85-1.66-3-1.14c-0.51,0.23-0.92,0.63-1.14,1.14c-0.27,0.6-0.97,0.86-1.57,0.59
			c-0.26-0.12-0.48-0.33-0.59-0.59c-0.37-0.81-1.18-1.34-2.07-1.34c-0.54,0-1.06,0.19-1.47,0.54c-0.5,0.42-1.25,0.36-1.67-0.14
			c-0.18-0.21-0.28-0.48-0.28-0.76V13.65c0.03-1.25-0.97-2.29-2.22-2.32c-1.25-0.03-2.29,0.97-2.32,2.22c0,0.03,0,0.06,0,0.1v20.7
			c0,0.65-0.53,1.18-1.19,1.18c-0.53,0-0.99-0.35-1.14-0.85c-0.04-0.13-1.04-3.38-3.78-3.48h-0.13c-0.77-0.09-1.49,0.36-1.74,1.09
			c-0.26,0.91,0.08,1.89,0.84,2.45c1.18,0.83,1.73,2.38,2.43,4.33c0.99,2.77,2.21,6.21,5.68,8.52c0.33,0.22,0.53,0.59,0.53,0.99
			L24.17,50.77z"/>
		<path id="패스_411" class="st3" d="M20.96,57.24v-5.96h23.85v5.96"/>
		<path id="패스_412" class="st4" d="M44.81,58.43c-0.65,0-1.19-0.53-1.19-1.18v-4.78H22.14v4.78c0,0.65-0.53,1.18-1.19,1.18
			c-0.65,0-1.18-0.53-1.18-1.18v-5.96c0-0.65,0.53-1.18,1.18-1.18h23.85c0.65,0,1.19,0.53,1.19,1.18v5.96
			C45.99,57.9,45.46,58.43,44.81,58.43"/>
	</g>
</g>
</svg>
