<?xml version="1.0" encoding="utf-8"?>
<!-- Generator: Adobe Illustrator 25.0.0, SVG Export Plug-In . SVG Version: 6.00 Build 0)  -->
<svg version="1.1" id="레이어_1" xmlns="http://www.w3.org/2000/svg" xmlns:xlink="http://www.w3.org/1999/xlink" x="0px"
	 y="0px" viewBox="0 0 60 60" style="enable-background:new 0 0 60 60;" xml:space="preserve">
<style type="text/css">
	.st0{clip-path:url(#SVGID_2_);}
	.st1{fill:#EFEFEF;}
	.st2{fill:#FFFFFF;}
	.st3{fill:#595757;}
	.st4{fill:#2583C8;}
</style>
<g>
	<defs>
		<rect id="SVGID_1_" x="2.58" y="3.51" width="54.62" height="52.23"/>
	</defs>
	<clipPath id="SVGID_2_">
		<use xlink:href="#SVGID_1_"  style="overflow:visible;"/>
	</clipPath>
	<g id="그룹_540" transform="translate(0 0)" class="st0">
		<path id="패스_394" class="st1" d="M55.43,30.2c0-14.11-11.44-25.54-25.54-25.54C15.78,4.66,4.34,16.1,4.34,30.2
			c0,14.11,11.44,25.54,25.54,25.54c0,0,0,0,0,0C43.99,55.74,55.43,44.31,55.43,30.2"/>
		<path id="패스_395" class="st2" d="M7.18,36.52l16.63,16.63c1.08,1.02,2.78,0.97,3.8-0.1c0.98-1.04,0.98-2.66,0-3.7l-3.64-3.64
			l0.16-0.16l4.6,4.59c1.02,1.08,2.72,1.12,3.8,0.1c1.08-1.02,1.12-2.72,0.1-3.8c-0.03-0.04-0.07-0.07-0.1-0.1l-4.59-4.59l0.16-0.16
			l5.54,5.54c1.08,1.02,2.78,0.97,3.8-0.1c0.98-1.04,0.98-2.66,0-3.7l-5.54-5.54l0.16-0.16l6.49,6.49c1.02,1.08,2.72,1.12,3.8,0.1
			s1.12-2.72,0.1-3.8c-0.03-0.04-0.07-0.07-0.1-0.1L27.93,25.91c-3.45-3.03-8.06-4.4-12.61-3.74L7.18,36.52z"/>
		<path id="패스_396" class="st3" d="M25.71,55.13c-1.03,0-2.01-0.41-2.74-1.14L6.34,37.36c-0.38-0.38-0.46-0.96-0.19-1.42
			l8.14-14.35c0.18-0.32,0.51-0.54,0.88-0.59c0.77-0.1,1.55-0.15,2.34-0.15c4.15-0.05,8.17,1.46,11.26,4.23l14.41,14.41
			c1.51,1.52,1.51,3.97-0.01,5.48c-1,1-2.47,1.37-3.83,0.97c-0.34,1.84-1.94,3.17-3.81,3.17c-0.37,0-0.74-0.05-1.1-0.16
			c-0.39,2.11-2.42,3.49-4.53,3.1c-0.13-0.02-0.26-0.06-0.39-0.09C29.18,53.8,27.58,55.13,25.71,55.13 M8.66,36.32l15.99,15.99
			c0.59,0.57,1.53,0.57,2.13,0c0.59-0.58,0.59-1.53,0-2.12c0,0,0,0,0,0l-3.64-3.64c-0.46-0.46-0.46-1.21,0-1.68c0,0,0,0,0,0
			l0.16-0.16c0.46-0.46,1.21-0.46,1.68,0c0,0,0,0,0,0l4.59,4.59c0.59,0.57,1.53,0.57,2.12,0c0.59-0.58,0.59-1.53,0-2.12c0,0,0,0,0,0
			l-4.59-4.59c-0.46-0.46-0.46-1.21,0-1.67c0,0,0,0,0,0l0.16-0.16c0.47-0.44,1.21-0.44,1.67,0l5.54,5.54c0.59,0.57,1.53,0.57,2.13,0
			c0.59-0.59,0.59-1.53,0-2.12c0,0,0,0,0,0l-5.54-5.54c-0.46-0.46-0.46-1.21,0-1.68c0,0,0,0,0,0l0.16-0.16
			c0.46-0.46,1.21-0.46,1.68,0c0,0,0,0,0,0l6.49,6.49c0.59,0.57,1.53,0.57,2.13,0c0.59-0.59,0.59-1.54,0-2.13L27.09,26.75
			c-2.66-2.3-6.07-3.56-9.59-3.53c-0.48,0-0.97,0.02-1.45,0.07L8.66,36.32z"/>
		<path id="패스_397" class="st2" d="M32.01,29.9l-6.35,2.83c-1.33,0.68-2.96,0.14-3.64-1.19c-0.66-1.3-0.17-2.89,1.11-3.6
			l5.61-4.26c0,0,6.16-5.38,13.55-2.69l4.26,1.59l6.05,13.94l-10.25,3.79L32.01,29.9z"/>
		<path id="패스_398" class="st3" d="M42.33,41.5c-0.32,0-0.62-0.13-0.84-0.35l-9.75-9.83l-5.57,2.48
			c-1.89,1.02-4.25,0.32-5.27-1.57c-1.02-1.89-0.32-4.25,1.57-5.27l5.51-4.19c2.85-2.31,6.38-3.61,10.05-3.7
			c1.59,0,3.16,0.28,4.65,0.82l4.27,1.59c0.3,0.11,0.54,0.34,0.67,0.64l6.05,13.94c0.26,0.6-0.02,1.3-0.62,1.56
			c-0.02,0.01-0.04,0.02-0.06,0.02l-10.25,3.79C42.61,41.47,42.47,41.5,42.33,41.5 M32.01,28.72c0.32,0,0.62,0.13,0.84,0.35
			l9.79,9.87L51,35.85l-5.35-12.33l-3.79-1.41c-1.23-0.45-2.53-0.68-3.83-0.68c-3.11,0.11-6.1,1.21-8.53,3.15
			c-0.02,0.02-0.04,0.03-0.06,0.05l-5.61,4.26c-0.05,0.04-0.11,0.07-0.16,0.1c-0.74,0.39-1.03,1.31-0.63,2.06
			c0.4,0.73,1.31,1.01,2.06,0.63c0.02-0.01,0.05-0.02,0.07-0.03l6.35-2.83C31.67,28.75,31.84,28.71,32.01,28.72"/>
		<path id="패스_399" class="st3" d="M36.19,32.15c-1.68,0-3.33-0.43-4.8-1.24c-0.55-0.35-0.72-1.08-0.36-1.64
			c0.34-0.53,1.04-0.71,1.58-0.4c2.44,1.33,5.43,1.15,7.7-0.46c0.52-0.39,1.27-0.28,1.66,0.24c0.39,0.52,0.28,1.27-0.24,1.66
			c-0.02,0.01-0.04,0.03-0.05,0.04C40.08,31.52,38.17,32.15,36.19,32.15"/>
		<path id="패스_400" class="st2" d="M3.76,37.96V17.81h8.74c1.78,0.45,3.15,1.88,3.53,3.68L8.3,37.96H3.76z"/>
		<path id="패스_401" class="st3" d="M8.3,39.15H3.76c-0.65,0-1.18-0.53-1.18-1.19c0,0,0,0,0,0V17.81c0-0.65,0.53-1.18,1.18-1.18
			h8.74c0.09,0,0.18,0.01,0.27,0.03c2.25,0.56,3.97,2.37,4.43,4.64c0.04,0.24,0,0.48-0.1,0.7L9.37,38.47
			C9.17,38.89,8.76,39.15,8.3,39.15 M4.95,36.78h2.6l7.24-15.43c-0.38-1.14-1.29-2.02-2.45-2.36H4.95V36.78z"/>
		<path id="패스_402" class="st2" d="M56.01,37.96V17.81h-8.74c-1.78,0.45-3.15,1.88-3.53,3.68l7.73,16.48H56.01z"/>
		<path id="패스_403" class="st3" d="M56.01,39.15h-4.54c-0.46,0-0.88-0.27-1.07-0.68l-7.73-16.48c-0.1-0.22-0.14-0.46-0.1-0.7
			c0.45-2.27,2.18-4.08,4.43-4.64c0.09-0.02,0.18-0.03,0.27-0.03H56c0.65,0,1.18,0.53,1.18,1.18v20.16
			C57.19,38.62,56.66,39.15,56.01,39.15 M52.22,36.78h2.6V18.99h-7.39c-1.15,0.33-2.07,1.22-2.44,2.36L52.22,36.78z"/>
		<path id="패스_404" class="st4" d="M26.31,18.36c-0.51,0-1-0.2-1.37-0.57l-4.75-4.75c-0.76-0.76-0.76-1.98,0-2.74
			s1.98-0.76,2.74,0l3.38,3.38l8.41-8.41c0.76-0.76,1.98-0.76,2.74,0s0.76,1.98,0,2.74l0,0l-6.23,6.23l-3.55,3.55
			C27.32,18.15,26.83,18.36,26.31,18.36"/>
	</g>
</g>
</svg>
