<?xml version="1.0" encoding="utf-8"?>
<!-- Generator: Adobe Illustrator 25.0.0, SVG Export Plug-In . SVG Version: 6.00 Build 0)  -->
<svg version="1.1" id="레이어_1" xmlns="http://www.w3.org/2000/svg" xmlns:xlink="http://www.w3.org/1999/xlink" x="0px"
	 y="0px" viewBox="0 0 60 60" style="enable-background:new 0 0 60 60;" xml:space="preserve">
<style type="text/css">
	.st0{clip-path:url(#SVGID_2_);}
	.st1{fill:#FFFFFF;}
	.st2{fill:#595757;}
	.st3{fill:#EFEFEF;}
	.st4{fill:none;}
	.st5{fill:#2583C8;}
</style>
<g>
	<defs>
		<rect id="SVGID_1_" x="5.17" y="2.55" width="49.43" height="54.62"/>
	</defs>
	<clipPath id="SVGID_2_">
		<use xlink:href="#SVGID_1_"  style="overflow:visible;"/>
	</clipPath>
	<g id="그룹_538" class="st0">
		<path id="패스_378" class="st1" d="M32.65,3.73c-11.26,0-20.46,8.97-20.75,20.23l-5.54,9.91h5.53v1.44
			c0,9.79,6.79,12.04,13.06,13.11v7.56h24.28l-2.01-13.06c4.35-9.04,6.2-12.89,6.2-18.42C53.42,13.03,44.12,3.74,32.65,3.73
			C32.65,3.73,32.65,3.73,32.65,3.73"/>
		<path id="패스_379" class="st2" d="M49.23,57.16H24.94c-0.65,0-1.18-0.53-1.18-1.19l0,0v-6.56
			c-4.58-0.84-13.06-3.08-13.06-14.11v-0.25H6.36c-0.65,0-1.18-0.53-1.18-1.19c0-0.2,0.05-0.4,0.15-0.58l5.4-9.66
			C11.2,11.52,21.4,2.09,33.51,2.57C45.29,3.03,54.6,12.71,54.6,24.5c0,5.75-1.93,9.83-6.15,18.6l1.95,12.7
			c0.1,0.65-0.34,1.25-0.99,1.35C49.35,57.16,49.29,57.16,49.23,57.16 M26.13,54.79h21.72l-1.8-11.7c-0.04-0.24,0-0.48,0.1-0.69
			c4.3-8.93,6.08-12.62,6.08-17.91c0.01-10.81-8.74-19.59-19.55-19.6c-10.63-0.01-19.33,8.46-19.59,19.09
			c0,0.19-0.06,0.38-0.15,0.55l-4.55,8.15h3.51c0.65,0,1.19,0.53,1.19,1.18c0,0,0,0,0,0v1.43c0,8.2,4.83,10.71,12.08,11.94
			c0.57,0.1,0.99,0.59,0.99,1.17L26.13,54.79z"/>
		<path id="패스_380" class="st3" d="M48.93,24.59c0-9.11-7.39-16.5-16.5-16.5s-16.5,7.39-16.5,16.5s7.39,16.5,16.5,16.5l0,0
			C41.54,41.09,48.93,33.7,48.93,24.59"/>
		<path id="패스_381" class="st4" d="M45.42,24.63C45.4,17.46,39.57,11.68,32.4,11.7c-7.17,0.02-12.95,5.85-12.93,13.02
			c0.02,4.43,2.29,8.55,6.04,10.92v0.65c0,1.27,1.03,2.31,2.3,2.31h9.26c1.27-0.01,2.3-1.04,2.3-2.31v-0.65
			C43.14,33.25,45.42,29.09,45.42,24.63"/>
		<path id="패스_382" class="st5" d="M37.08,39.79h-9.26c-1.93-0.01-3.49-1.57-3.49-3.5v-0.01c-6.4-4.49-7.96-13.31-3.47-19.72
			s13.31-7.96,19.72-3.47s7.96,13.31,3.47,19.72c-0.95,1.35-2.12,2.53-3.47,3.47v0.01C40.57,38.22,39.01,39.79,37.08,39.79
			 M32.45,12.79c-6.55,0.04-11.83,5.38-11.79,11.92c0.02,4.03,2.09,7.77,5.49,9.93c0.34,0.22,0.55,0.59,0.55,1v0.65
			c0,0.62,0.5,1.13,1.12,1.13h9.26c0.62,0,1.12-0.51,1.12-1.13v-0.65c0-0.41,0.21-0.78,0.55-1c5.52-3.52,7.15-10.85,3.63-16.37
			C40.21,14.88,36.47,12.82,32.45,12.79"/>
		<path id="패스_383" class="st1" d="M37.46,43.73c0,2.04-1.65,3.7-3.69,3.7h-2.65c-2.04,0-3.7-1.66-3.7-3.7
			c0-2.04,1.66-3.7,3.7-3.7h2.65C35.81,40.04,37.46,41.69,37.46,43.73"/>
		<path id="패스_384" class="st2" d="M33.77,48.62h-2.65c-2.7,0-4.89-2.19-4.89-4.89s2.19-4.89,4.89-4.89h2.65
			c2.7,0,4.89,2.19,4.89,4.89S36.47,48.62,33.77,48.62 M31.12,41.22c-1.39,0-2.52,1.13-2.51,2.52c0,1.39,1.13,2.51,2.51,2.51h2.65
			c1.39,0,2.52-1.13,2.51-2.52c0-1.39-1.13-2.51-2.51-2.51H31.12z"/>
		<path id="패스_385" class="st1" d="M40.04,39.59c0,0.9-0.72,1.63-1.62,1.63c0,0,0,0,0,0H26.47c-0.9,0-1.63-0.73-1.63-1.63
			c0-0.9,0.73-1.63,1.63-1.63h11.94C39.32,37.96,40.04,38.69,40.04,39.59"/>
		<path id="패스_386" class="st2" d="M38.42,42.4H26.48c-1.55-0.03-2.79-1.31-2.76-2.87c0.03-1.51,1.25-2.73,2.76-2.76h11.94
			c1.55,0.03,2.79,1.31,2.76,2.87C41.15,41.15,39.93,42.37,38.42,42.4 M26.48,39.14c-0.25,0-0.44,0.2-0.44,0.44s0.2,0.44,0.44,0.44
			h11.94c0.25,0,0.44-0.2,0.44-0.44s-0.2-0.44-0.44-0.44H26.48z"/>
		<path id="패스_387" class="st1" d="M40.04,42.7c0,0.9-0.72,1.62-1.62,1.63H26.47c-0.9,0-1.63-0.73-1.63-1.63
			s0.73-1.63,1.63-1.63h11.94C39.32,41.07,40.04,41.8,40.04,42.7"/>
		<path id="패스_388" class="st2" d="M38.42,45.51H26.48c-1.55,0-2.81-1.26-2.81-2.82c0-1.55,1.26-2.81,2.81-2.81h11.94
			c1.55,0,2.81,1.26,2.81,2.82C41.23,44.25,39.97,45.51,38.42,45.51 M26.48,42.25c-0.25,0-0.44,0.2-0.44,0.44s0.2,0.44,0.44,0.44
			h11.94c0.25,0,0.44-0.2,0.44-0.44s-0.2-0.44-0.44-0.44H26.48z"/>
		<path id="패스_389" class="st2" d="M29.98,29.09h-2.05c-1.79,0-3.25-1.44-3.25-3.23c0-1.79,1.44-3.25,3.23-3.25
			s3.25,1.44,3.25,3.23c0,0,0,0.01,0,0.01v2.06C31.16,28.56,30.63,29.09,29.98,29.09C29.98,29.09,29.98,29.09,29.98,29.09
			 M27.93,24.97c-0.48,0.02-0.86,0.42-0.84,0.9c0.02,0.46,0.38,0.83,0.84,0.84h0.86v-0.87C28.8,25.37,28.41,24.98,27.93,24.97"/>
		<path id="패스_390" class="st2" d="M36.97,29.09h-2.05c-0.65,0-1.19-0.53-1.19-1.18c0,0,0,0,0,0v-2.06
			c0-1.79,1.46-3.23,3.24-3.23c1.79,0,3.23,1.46,3.23,3.24C40.19,27.64,38.75,29.09,36.97,29.09 M36.1,26.72h0.86
			c0.48,0,0.88-0.38,0.88-0.86c0-0.48-0.38-0.88-0.86-0.88c-0.48,0-0.88,0.38-0.88,0.86c0,0,0,0.01,0,0.01V26.72z"/>
		<path id="패스_391" class="st2" d="M35.1,29.09h-4.58c-0.65,0-1.19-0.53-1.19-1.18c0-0.65,0.53-1.19,1.18-1.19c0,0,0,0,0,0h4.58
			c0.65,0,1.18,0.53,1.18,1.19C36.28,28.56,35.75,29.09,35.1,29.09"/>
		<path id="패스_392" class="st2" d="M29.98,38.7c-0.65,0-1.18-0.53-1.18-1.18v-9.49c0-0.65,0.53-1.19,1.18-1.19
			c0.65,0,1.19,0.53,1.19,1.18c0,0,0,0,0,0v9.49C31.16,38.17,30.63,38.7,29.98,38.7C29.98,38.7,29.98,38.7,29.98,38.7"/>
		<path id="패스_393" class="st2" d="M34.92,38.7c-0.65,0-1.18-0.53-1.18-1.18v-9.49c0-0.65,0.53-1.19,1.18-1.19
			c0.65,0,1.19,0.53,1.19,1.18c0,0,0,0,0,0v9.49C36.1,38.17,35.57,38.7,34.92,38.7C34.92,38.7,34.92,38.7,34.92,38.7"/>
	</g>
</g>
</svg>
