<?xml version="1.0" encoding="utf-8"?>
<!-- Generator: Adobe Illustrator 25.0.0, SVG Export Plug-In . SVG Version: 6.00 Build 0)  -->
<svg version="1.1" id="레이어_1" xmlns="http://www.w3.org/2000/svg" xmlns:xlink="http://www.w3.org/1999/xlink" x="0px"
	 y="0px" viewBox="0 0 60 60" style="enable-background:new 0 0 60 60;" xml:space="preserve">
<style type="text/css">
	.st0{clip-path:url(#SVGID_2_);}
	.st1{fill:#EFEFEF;}
	.st2{fill:#FFFFFF;}
	.st3{fill:#595757;}
	.st4{fill:#2583C8;}
</style>
<g>
	<defs>
		<rect id="SVGID_1_" x="2.58" y="2.37" width="54.62" height="54.51"/>
	</defs>
	<clipPath id="SVGID_2_">
		<use xlink:href="#SVGID_1_"  style="overflow:visible;"/>
	</clipPath>
	<g id="그룹_544" transform="translate(0 0)" class="st0">
		<path id="패스_413" class="st1" d="M52.53,30.4c0-12.51-10.14-22.64-22.64-22.65c-12.51,0-22.64,10.14-22.65,22.64
			c0,12.51,10.14,22.64,22.64,22.65c0,0,0,0,0,0C42.39,53.04,52.53,42.9,52.53,30.4"/>
		<path id="패스_414" class="st2" d="M13.95,14.32c0-2.81-2.28-5.09-5.09-5.1s-5.09,2.28-5.1,5.09c0,2.81,2.28,5.09,5.09,5.1
			c0,0,0,0,0,0C11.67,19.41,13.95,17.13,13.95,14.32C13.95,14.32,13.95,14.32,13.95,14.32"/>
		<path id="패스_415" class="st3" d="M8.85,20.6c-3.47,0-6.28-2.81-6.28-6.28s2.81-6.28,6.28-6.28s6.28,2.81,6.28,6.28l0,0
			C15.13,17.79,12.32,20.6,8.85,20.6 M8.85,10.41c-2.16,0-3.91,1.75-3.91,3.91s1.75,3.91,3.91,3.91s3.91-1.75,3.91-3.91
			C12.76,12.16,11.01,10.42,8.85,10.41"/>
		<path id="패스_416" class="st2" d="M20.47,55.7c-2.64,0-4.77-2.14-4.77-4.77v-6.37H9.01c-2.64,0-4.77-2.14-4.77-4.77
			c0,0,0,0,0-0.01V27.05c-0.04-2.64,2.07-4.81,4.71-4.84c2.64-0.04,4.81,2.07,4.84,4.71c0,0.05,0,0.09,0,0.14v7.96h6.68
			c2.63,0,4.77,2.13,4.77,4.77v11.15C25.24,53.56,23.11,55.7,20.47,55.7"/>
		<path id="패스_417" class="st3" d="M20.47,56.88c-3.29,0-5.96-2.67-5.96-5.96v-5.18h-5.5c-3.29,0-5.96-2.67-5.96-5.96V27.05
			c0-3.29,2.67-5.96,5.96-5.96c3.29,0,5.96,2.67,5.96,5.96c0,0,0,0,0,0v6.77h5.5c3.29,0,5.96,2.67,5.96,5.96v11.14
			C26.43,54.21,23.76,56.88,20.47,56.88 M9.01,23.46c-1.98,0-3.59,1.61-3.59,3.59v12.73c0,1.98,1.61,3.59,3.59,3.59h6.68
			c0.65,0,1.19,0.53,1.19,1.19l0,0v6.37c0,1.98,1.61,3.59,3.59,3.59s3.59-1.61,3.59-3.59V39.78c0-1.98-1.61-3.59-3.59-3.59h-6.69
			c-0.65,0-1.19-0.53-1.19-1.19l0,0v-7.96C12.6,25.07,10.99,23.47,9.01,23.46"/>
		<path id="패스_418" class="st2" d="M45.82,14.32c0-2.81,2.28-5.09,5.09-5.1c2.81,0,5.09,2.28,5.1,5.09s-2.28,5.09-5.09,5.1
			c0,0,0,0,0,0C48.1,19.41,45.82,17.13,45.82,14.32C45.82,14.32,45.82,14.32,45.82,14.32"/>
		<path id="패스_419" class="st3" d="M50.91,20.6c-3.47,0-6.28-2.81-6.28-6.28s2.81-6.28,6.28-6.28s6.28,2.81,6.28,6.28l0,0
			C57.19,17.79,54.38,20.6,50.91,20.6 M50.91,10.41c-2.16,0-3.91,1.75-3.91,3.91s1.75,3.91,3.91,3.91c2.16,0,3.91-1.75,3.91-3.91v0
			C54.82,12.16,53.07,10.42,50.91,10.41"/>
		<path id="패스_420" class="st2" d="M39.3,55.7c2.64,0,4.77-2.14,4.77-4.77v-6.37h6.69c2.64,0,4.77-2.14,4.77-4.78c0,0,0,0,0,0
			V27.05c0.04-2.64-2.07-4.81-4.71-4.84c-2.64-0.04-4.81,2.07-4.84,4.71c0,0.05,0,0.09,0,0.14v7.96H39.3
			c-2.63,0-4.77,2.13-4.77,4.77v11.15C34.52,53.56,36.66,55.7,39.3,55.7"/>
		<path id="패스_421" class="st3" d="M39.3,56.88c-3.29,0-5.96-2.67-5.96-5.96V39.78c0-3.29,2.67-5.96,5.96-5.96h5.5v-6.77
			c0-3.29,2.67-5.96,5.96-5.96c3.29,0,5.96,2.67,5.96,5.96v12.73c0,3.29-2.67,5.96-5.96,5.96h-5.5v5.18
			C45.25,54.22,42.59,56.88,39.3,56.88 M39.3,36.2c-1.98,0-3.59,1.61-3.59,3.59v11.14c0,1.98,1.61,3.59,3.59,3.59
			c1.98,0,3.59-1.61,3.59-3.59v-6.37c0-0.65,0.53-1.19,1.18-1.19h6.68c1.98,0,3.59-1.61,3.59-3.59V27.05
			c0.03-1.98-1.55-3.62-3.53-3.65c-1.98-0.03-3.62,1.55-3.65,3.53c0,0.04,0,0.08,0,0.12v7.96c0,0.65-0.53,1.19-1.18,1.19L39.3,36.2z
			"/>
		<path id="패스_422" class="st3" d="M41.82,31.82H17.95c-0.65,0-1.18-0.53-1.18-1.19c0-0.65,0.53-1.18,1.18-1.18h23.87
			c0.65,0,1.18,0.53,1.18,1.19C43.01,31.29,42.48,31.82,41.82,31.82"/>
		<path id="패스_423" class="st3" d="M29.88,56.88c-0.65,0-1.19-0.53-1.19-1.18V31.59c0-0.65,0.53-1.19,1.18-1.19
			c0.65,0,1.19,0.53,1.19,1.18c0,0,0,0,0,0V55.7C31.07,56.35,30.54,56.88,29.88,56.88"/>
		<path id="패스_426" class="st2" d="M28.15,3.56C23.1,3.56,19,6.84,19,10.9c0.07,2.23,1.22,4.28,3.09,5.49
			c-0.55,0.84-1.28,1.55-2.13,2.09c0,0,2.18,2.39,5.91-0.48c0.75,0.16,1.51,0.24,2.27,0.24c5.05,0,9.14-3.29,9.14-7.34
			S33.2,3.56,28.15,3.56"/>
		<path id="패스_427" class="st4" d="M22.36,20.6c-1.22,0.02-2.41-0.46-3.27-1.32c-0.44-0.48-0.41-1.23,0.08-1.67
			c0.06-0.05,0.12-0.1,0.19-0.14c0.4-0.25,0.77-0.55,1.08-0.89c-1.63-1.44-2.58-3.5-2.62-5.67c0-4.7,4.63-8.52,10.33-8.52
			S38.47,6.2,38.47,10.9s-4.63,8.52-10.33,8.52c-0.67,0-1.33-0.06-1.99-0.17C25.06,20.08,23.73,20.55,22.36,20.6 M22.14,18.22
			c0.07,0.01,0.14,0.01,0.22,0.01c1.03-0.07,2.01-0.48,2.79-1.17c0.27-0.21,0.62-0.29,0.96-0.22c0.67,0.14,1.35,0.21,2.03,0.21
			c4.39,0,7.96-2.76,7.96-6.16s-3.57-6.16-7.96-6.16s-7.96,2.76-7.96,6.16c0.08,1.84,1.04,3.53,2.59,4.53
			c0.53,0.37,0.66,1.1,0.29,1.63C22.79,17.47,22.48,17.86,22.14,18.22"/>
	</g>
</g>
</svg>
